/* XPM */
static char *result[] = {
/* columns rows colors chars-per-pixel */
"64 64 68 1 ",
"  c black",
". c gray1",
"X c gray2",
"o c #070707",
"O c #0C0C0C",
"+ c #0D0C0C",
"@ c #0E0D0D",
"# c #150F0E",
"$ c #33180C",
"% c #201E1E",
"& c #3C1E11",
"* c #3B201A",
"= c #242323",
"- c gray14",
"; c #272727",
": c #292726",
"> c #2C2C2C",
", c #2D2D2D",
"< c #3B2E2B",
"1 c #3B2E2C",
"2 c #373737",
"3 c #3A3A3A",
"4 c gray24",
"5 c #7A1400",
"6 c gray25",
"7 c #444444",
"8 c gray29",
"9 c gray33",
"0 c #595555",
"q c #6E6D6D",
"w c #7C7C7C",
"e c #983200",
"r c #8D311E",
"t c #98321D",
"y c #C52A2A",
"u c #FE3131",
"i c #AA442F",
"p c #B34D38",
"a c #B6503B",
"s c #B4544A",
"d c #98704A",
"f c #87655A",
"g c #917458",
"h c #946B63",
"j c #9F7062",
"k c #917E65",
"l c #FE4F4F",
"z c #D46E59",
"x c #A98164",
"c c #B48B62",
"v c #B69970",
"b c #B09978",
"n c #C28F5C",
"m c #E0AD7A",
"M c #008FC2",
"N c #1AB4E0",
"B c #00CBFE",
"V c #37D6FE",
"C c gray53",
"Z c gray63",
"A c gray67",
"S c #CBAA82",
"D c #D7B68B",
"F c #DCB78B",
"G c #E2B58C",
"H c #FECB98",
"J c #F0DCD9",
"K c #FEFEFE",
/* pixels */
"ZZZZZZZZZZZZZZZZZZZZZZZZZZZZZ                 8ZZZZZZZZZZZZZZZZZ",
"999999999999999ZZ999999999999                 -99999999999999999",
"999999999999999ZZ999999999999                 -99999999999999999",
"993999399999999ZZ999999999999                 -99939999999999939",
"999999999999                 zzzzzzzzzzzzKKKKK1     999999999999",
"999999999999                 zzzzzzzzzzzzKKKKK1     999999999999",
"999C999999A9                 zzzzzzzzzzzzKKKKK1     9999CC999999",
"999C99      zzzzzzzzzzzJKKKKK      ttttttaaaaaslllll      999999",
"999999      zzzzzzzzzzzJKKKKK      ttttttaaaaaslllll      999999",
"999999      zzzzzzzzzzzJKKKKK      ttttttaaaaaslllll      999999",
"999999      zzzzzzzzzzzJKKKKK      ttttttaaaaaslllll      999993",
"      llllllccccchaaaaaxcccccaaaaaaaaaaaaaaaaaaaaaaauuuuuu      ",
"      llllllccccchaaaaaxcccccaaaaaaaaaaaaaaaaaaaaaaauuuuuu      ",
"      llllllccccchaaaaaxcccccaaaaaaaaaaaaaaaaaaaaaaauuuuuu      ",
"999999      aaaaaitttttpaaaaazzzzzzaaaaaannnnnjaaaaaaaaaaa      ",
"9999C9      aaaaaitttttpaaaaazzzzzzaaaaaannnnnjaaaaaaaaaaa      ",
"999999      aaaaaitttttpaaaaazzzzzzaaaaaannnnnjaaaaaaaaaaa      ",
"939999      aaaaaitttttpaaaaazzzzzzaaaaaannnnnjaaaaaaaaaaa      ",
"      llllllaaaaa*     yuuuuu>>>>>>zzzzzzHHHHH<     aaaaaa      ",
"      llllllaaaaa*     yuuuuu>>>>>>zzzzzzHHHHH<     aaaaaa      ",
"      llllllaaaaa*     yuuuuu>>>>>>zzzzzzHHHHH<     aaaaaa      ",
"      tttttt     +rrrrr.     GGGGGG      HHHHH<           000000",
"      tttttt     +ttttt.     HHHHHH      HHHHH<           999999",
"      tttttt     +ttttt.     HHHHHH      HHHHH<           999999",
"      tttttt     +ttttt.     HHHHHH      HHHHH<           999999",
"999999           +nnnnnSmmmmmHHHHHH      HHHHH<     999999999999",
"999999           +nnnnnSmmmmmHHHHHH      HHHHH<     999999999399",
"399999           +nnnnnSmmmmmHHHHHH      HHHHH<     999999999999",
"999999666666666ww=#####kbbbbbFFFFFFgggggg#####%66666999999999999",
"999339999999999ZZ,     dnnnnnmmmmmmHHHHHH     -99999999939999999",
"999999999999999ZZ,     dnnnnnmmmmmmHHHHHH     -99999999933999999",
"C99999999999C99ZZ,     dnnnnnmmmmmmHHHHHH     -99999999999999999",
"999999999999     O;;;;;.                            999999999999",
"999999999999     O;;;;;.                            999999999999",
"999999999C99     O;;;;;.                            999999999999",
"999999777q77     O;;;;;oXXXXXXXXXXX      XXXXXXXXXXX777777939999",
"999999           O;;;;;;;;;;;HHHHHH      mmmmmDHHHHH      999999",
"999999           O;;;;;;;;;;;HHHHHH      mmmmmDHHHHH      999999",
"999999           O;;;;;;;;;;;HHHHHH      mmmmmDHHHHH      999999",
"      mmmmmm     +22222:;;;;;mmmmmmmmmmmmnnnnnvmmmmm      999999",
"      mmmmmm     +22222:;;;;;mmmmmmmmmmmmnnnnnvmmmmm      999999",
"      mmmmmm     +22222:;;;;;mmmmmmmmmmmmnnnnnvmmmmm      999C99",
"      mmmmmm     +22222:;;;;;mmmmmmmmmmmmnnnnnvmmmmm      999999",
"      mmmmmm     +22222222222                       999999999999",
"      mmmmmm     +22222222222                       999993999999",
"      mmmmmm     +22222222222                       999999939999",
"999999           +MMMMMNBBBBBVVVVVV      99999999999999999999999",
"999999           +MMMMMNBBBBBVVVVVV      99999999999999999999999",
"99C999           +MMMMMNBBBBBVVVVVV      99999999999999999999999",
"999999           +MMMMMNBBBBBVVVVVV      999C9999999999999999999",
"      555555MMMMMMMMMMMNBBBBBVVVVVVVVVVVV           99999999C999",
"      555555MMMMMMMMMMMNBBBBBVVVVVVVVVVVV           999C99999999",
"      555555MMMMMMMMMMMNBBBBBVVVVVVVVVVVV           999999999999",
"      555555eeeee$           VVVVVVVVVVVVVVVVVfeeeee      999999",
"      555555eeeee$           VVVVVVVVVVVVVVVVVfeeeee      999999",
"      555555eeeee$           VVVVVVVVVVVVVVVVVfeeeee      999999",
"      555555eeeee$           VVVVVVVVVVVVVVVVVfeeeee      999399",
"999C99           @99999.     555555eeeeeeeeeee&     99999C999399",
"999999           @99999.     555555eeeeeeeeeee&     999999999399",
"999999           @9C99C.     555555eeeeeeeeeee&     999999C99999",
"3999C9999999939ZZ999999999999                 -99999999999999999",
"9999C9999399999ZZ999999999999                 499999999999999999",
"999999999999999ZZ999999999999                 -99999999999999999",
"ZZZZZZZZZZZZZZZZZZZZZZZZZZZZZ                 8ZZZZZZZZZZZZZZZZZ"
};
