/* XPM */
static char *MV9yZXNpemU_[] = {
/* columns rows colors chars-per-pixel */
"64 64 56 1 ",
"  c black",
". c gray1",
"X c #040404",
"o c gray2",
"O c #070707",
"+ c #0C0C0C",
"@ c #0D0C0C",
"# c #110D0C",
"$ c #100E0E",
"% c #150F0E",
"& c #111010",
"* c #33180C",
"= c #3C1E11",
"- c #3B201A",
"; c #272727",
": c #292726",
"> c #2C2C2C",
", c #3B2E2B",
"< c #3B2E2C",
"1 c #373737",
"2 c #7A1400",
"3 c #983200",
"4 c #8D311E",
"5 c #98321D",
"6 c #C52A2A",
"7 c #FE3131",
"8 c #AA442F",
"9 c #B34D38",
"0 c #B6503B",
"q c #B4544A",
"w c #98704A",
"e c #87655A",
"r c #917458",
"t c #946B63",
"y c #9F7062",
"u c #917E65",
"i c #FE4F4F",
"p c #D46E59",
"a c #A98164",
"s c #B48B62",
"d c #B69970",
"f c #B09978",
"g c #C28F5C",
"h c #E0AD7A",
"j c #008FC2",
"k c #1AB4E0",
"l c #00CBFE",
"z c #37D6FE",
"x c #CBAA82",
"c c #D7B68B",
"v c #DCB78B",
"b c #E2B58C",
"n c #FECB98",
"m c #F0DCD9",
"M c #FEFEFE",
"N c None",
/* pixels */
"NNNNNNNNNNNNNNNNNNNNNNNNNNNNN                  NNNNNNNNNNNNNNNNN",
"NNNNNNNNNNNNNNNNNNNNNNNNNNNNN                 oNNNNNNNNNNNNNNNNN",
"NNNNNNNNNNNNNNNNNNNNNNNNNNNNN                 oNNNNNNNNNNNNNNNNN",
"NNNNNNNNNNNNNNNNNNNNNNNNNNNNN                 oNNNNNNNNNNNNNNNNN",
"NNNNNNNNNNNN                 ppppppppppppMMMMM<     NNNNNNNNNNNN",
"NNNNNNNNNNNN                 ppppppppppppMMMMM<     NNNNNNNNNNNN",
"NNNNNNNNNNNN                 ppppppppppppMMMMM<     NNNNNNNNNNNN",
"NNNNNN      pppppppppppmMMMMM      55555500000qiiiii      NNNNNN",
"NNNNNN      pppppppppppmMMMMM      55555500000qiiiii      NNNNNN",
"NNNNNN      pppppppppppmMMMMM      55555500000qiiiii      NNNNNN",
"NNNNNN      pppppppppppmMMMMM      55555500000qiiiii      NNNNNN",
"      iiiiiissssst00000asssss00000000000000000000000777777      ",
"      iiiiiissssst00000asssss00000000000000000000000777777      ",
"      iiiiiissssst00000asssss00000000000000000000000777777      ",
"NNNNNN      00000855555900000pppppp000000gggggy00000000000      ",
"NNNNNN      00000855555900000pppppp000000gggggy00000000000      ",
"NNNNNN      00000855555900000pppppp000000gggggy00000000000      ",
"NNNNNN      00000855555900000pppppp000000gggggy00000000000      ",
"      iiiiii00000-     677777>>>>>>ppppppnnnnn,     000000      ",
"      iiiiii00000-     677777>>>>>>ppppppnnnnn,     000000      ",
"      iiiiii00000-     677777>>>>>>ppppppnnnnn,     000000      ",
"      555555     @44444      bbbbbb      nnnnn,           NNNNNN",
"      555555     @55555o     nnnnnn      nnnnn,           NNNNNN",
"      555555     @55555o     nnnnnn      nnnnn,           NNNNNN",
"      555555     @55555      nnnnnn      nnnnn,           NNNNNN",
"NNNNNN           @gggggxhhhhhnnnnnn      nnnnn,     NNNNNNNNNNNN",
"NNNNNN           @gggggxhhhhhnnnnnn      nnnnn,     NNNNNNNNNNNN",
"NNNNNN           @gggggxhhhhhnnnnnn      nnnnn,     NNNNNNNNNNNN",
"NNNNNNNNNNNNNNNNN$%%%%%ufffffvvvvvvrrrrrr%%%%%$NNNNNNNNNNNNNNNNN",
"NNNNNNNNNNNNNNNNN&     wggggghhhhhhnnnnnn     XNNNNNNNNNNNNNNNNN",
"NNNNNNNNNNNNNNNNN&     wggggghhhhhhnnnnnn     oNNNNNNNNNNNNNNNNN",
"NNNNNNNNNNNNNNNNN&     wggggghhhhhhnnnnnn     oNNNNNNNNNNNNNNNNN",
"NNNNNNNNNNNN     +;;;;;.                            NNNNNNNNNNNN",
"NNNNNNNNNNNN     @;;;;;.                            NNNNNNNNNNNN",
"NNNNNNNNNNNN     @;;;;;.                            NNNNNNNNNNNN",
"NNNNNNNNNNNN     +;;;;;Oooooooooooo      oooooooooooNNNNNNNNNNNN",
"NNNNNN           +;;;;;;;;;;;nnnnnn      hhhhhcnnnnn      NNNNNN",
"NNNNNN           @;;;;;;;;;;;nnnnnn      hhhhhcnnnnn      NNNNNN",
"NNNNNN           +;;;;;;;;;;;nnnnnn      hhhhhcnnnnn      NNNNNN",
"      hhhhhh     @11111:;;;;;hhhhhhhhhhhhgggggdhhhhh      NNNNNN",
"      hhhhhh     @11111:;;;;;hhhhhhhhhhhhgggggdhhhhh      NNNNNN",
"      hhhhhh     @11111:;;;;;hhhhhhhhhhhhgggggdhhhhh      NNNNNN",
"      hhhhhh     @11111:;;;:;hhhhhhhhhhhhgggggdhhhhh      NNNNNN",
"      hhhhhh     @11111111111                       NNNNNNNNNNNN",
"      hhhhhh     @11111111111                       NNNNNNNNNNNN",
"      hhhhhh     @11111111111                       NNNNNNNNNNNN",
"NNNNNN           @jjjjjklllllzzzzzz      NNNNNNNNNNNNNNNNNNNNNNN",
"NNNNNN           @jjjjjklllllzzzzzz      NNNNNNNNNNNNNNNNNNNNNNN",
"NNNNNN           @jjjjjklllllzzzzzz      NNNNNNNNNNNNNNNNNNNNNNN",
"NNNNNN           @jjjjjklllllzzzzzz      NNNNNNNNNNNNNNNNNNNNNNN",
"      222222jjjjjjjjjjjklllllzzzzzzzzzzzz           NNNNNNNNNNNN",
"      222222jjjjjjjjjjjklllllzzzzzzzzzzzz           NNNNNNNNNNNN",
"      222222jjjjjjjjjjjklllllzzzzzzzzzzzz           NNNNNNNNNNNN",
"      22222233333*           zzzzzzzzzzzzzzzzze33333      NNNNNN",
"      22222233333*           zzzzzzzzzzzzzzzzze33333      NNNNNN",
"      22222233333*           zzzzzzzzzzzzzzzzze33333      NNNNNN",
"      22222233333*           zzzzzzzzzzzzzzzzze33333      NNNNNN",
"NNNNNN           @NNNNNX     22222233333333333=     NNNNNNNNNNNN",
"NNNNNN           @NNNNNX     22222233333333333-     NNNNNNNNNNNN",
"NNNNNN           @NNNNNX     22222233333333333=     NNNNNNNNNNNN",
"NNNNNNNNNNNNNNNNNNNNNNNNNNNNN                 oNNNNNNNNNNNNNNNNN",
"NNNNNNNNNNNNNNNNNNNNNNNNNNNNN                  NNNNNNNNNNNNNNNNN",
"NNNNNNNNNNNNNNNNNNNNNNNNNNNNN                 XNNNNNNNNNNNNNNNNN",
"NNNNNNNNNNNNNNNNNNNNNNNNNNNNN                 oNNNNNNNNNNNNNNNNN"
};
