/* XPM */
static char *result[] = {
/* columns rows colors chars-per-pixel */
"64 64 53 1 ",
"  c black",
". c gray2",
"X c gray4",
"o c #0B0A0A",
"O c #150F0E",
"+ c #1F0C08",
"@ c #1E0C09",
"# c #271E14",
"$ c #281F1E",
"% c #331C16",
"& c #2D231A",
"* c #32291F",
"= c #031E27",
"- c #272727",
"; c #2D2221",
": c #2B2726",
"> c #2C2C2C",
", c #3A2D2C",
"< c #3A3A3A",
"1 c #3F3F3F",
"2 c #7A1400",
"3 c #42241D",
"4 c #612020",
"5 c gray25",
"6 c #444444",
"7 c #484545",
"8 c gray33",
"9 c #595555",
"0 c gray37",
"q c #6E6D6D",
"w c #983200",
"e c #8D311E",
"r c #98321D",
"t c #FE3131",
"y c #AD4732",
"u c #B6503B",
"i c #CB453F",
"p c #917458",
"a c #9C6E64",
"s c #FE4F4F",
"d c #D46E59",
"f c #B48B62",
"g c #B09978",
"h c #C28F5C",
"j c #E0AD7A",
"k c #008FC2",
"l c #00CBFE",
"z c gray53",
"x c gray63",
"c c #DCB78B",
"v c #E2B58C",
"b c #FECB98",
"n c #FEFEFE",
/* pixels */
"xxxxxxxxxxxxxxxxxxxxxxxxxxxxx                  xxxxxxxxxxxxxxxxx",
"88888888888888888888888888888                  88888888888888888",
"88888888888888888888888888888                  88888888888888888",
"88<88888888888<888<888<888888                  88888888888888888",
"888888888888                 ddddddddddddnnnnnn     ;8888888<888",
"888888888888                 ddddddddddddnnnnnn     ;8z888888888",
"88888888zz88                 ddddddddddddnnnnnn     ;88888888888",
"888888      dddddddddddnnnnnn      rrrrrruuuuuusssss4     88<<88",
"88zz88      dddddddddddnnnnnn      rrrrrruuuuuusssss4     888888",
"888888      dddddddddddnnnnnn      rrrrrruuuuuusssss4     888888",
"888888      dddddddddddnnnnnn      rrrrrruuuuuusssss4     888888",
"      ssssssfffffauuuuuffffffuuuuuuuuuuuuuuuuuuuuuuuittttt      ",
"      ssssssfffffauuuuuffffffuuuuuuuuuuuuuuuuuuuuuuuittttt      ",
"      ssssssfffffauuuuuffffffuuuuuuuuuuuuuuuuuuuuuuuittttt      ",
"888888      uuuuuyrrrrruuuuuudddddduuuuuuhhhhhhuuuuuuuuuuu      ",
"88<888      uuuuuyrrrrruuuuuudddddduuuuuuhhhhhhuuuuuuuuuuu      ",
"888888      uuuuuyrrrrruuuuuudddddduuuuuuhhhhhhuuuuuuuuuuu      ",
"888888      uuuuuyrrrrruuuuuudddddduuuuuuhhhhhhuuuuuuuuuuu      ",
"      ssssssuuuuu3     tttttt>>>>>>ddddddbbbbbb     %uuuuu      ",
"      ssssssuuuuu3     tttttt>>>>>>ddddddbbbbbb     %uuuuu      ",
"      ssssssuuuuu3     tttttt>>>>>>ddddddbbbbbb     %uuuuu      ",
"      rrrrrr     @eeeee      vvvvvv      bbbbbb           999999",
"      rrrrrr     +rrrrr      bbbbbb      bbbbbb           888888",
"      rrrrrr     +rrrrr      bbbbbb      bbbbbb           z88888",
"      rrrrrr     +rrrrr      bbbbbb      bbbbbb           888888",
"888888           #hhhhhjjjjjjbbbbbb      bbbbbb     ;8888888z888",
"888888           #hhhhhjjjjjjbbbbbb      bbbbbb     ;88888888888",
"8zz888           #hhhhhjjjjjjbbbbbb      bbbbbb     ;88888888888",
"88888855555555555$OOOOOggggggccccccppppppOOOOOO55555788888888888",
"88888888<88888888,     hhhhhhjjjjjjbbbbbb      88888888888z88888",
"88888888<<8888888,     hhhhhhjjjjjjbbbbbb      88888888888888888",
"8888888888888888z,     hhhhhhjjjjjjbbbbbb      88888888888888888",
"888888888888     X-----                  8888z88888888z888888888",
"888888888888     X-----                  8888888888z88888888888z",
"888888888888     X-----                  88888888888888888888888",
"88888888888<     o:::::..................q66666888888888888z8888",
"888888888888     *bbbbb------------111111      88888888888888888",
"88888888z888     *bbbbb------------111111      <8888888888888888",
"888888888888     *bbbbb------------111111      88888888888888888",
"88z888888888     &jjjjjbbbbbb      111111      8888888<888888888",
"888888888888     &jjjjjbbbbbb      111111      888<8888888888888",
"888888888888     &jjjjjbbbbbb      111111      88888888888888888",
"888888888888     &jjjjjbbbbbb      111111      88888888888888888",
"888888888888           jjjjjjbbbbbb111111      88z888z8888<88888",
"8<8888888<88           jjjjjjbbbbbb111111      88888888888888888",
"8<888888888<           jjjjjjbbbbbb111111      88888888888888888",
"888888888888           hhhhhhjjjjjj      88888888888888888888888",
"888888888888           hhhhhhjjjjjj      88888888888888888888888",
"888888888888           hhhhhhjjjjjj      8z888888888888888888888",
"888888888888           hhhhhhjjjjjj      8888888888z88888888z888",
"888888888888     =kkkkk            888888888888888888888<8888888",
"8888888z8888     =kkkkk            8888888888888z888888888888888",
"888z88888888     =kkkkk            888888888888888888z8888888888",
"888888888888     =kkkkkllllllllllll      888888<888888888888z888",
"888888888888     =kkkkkllllllllllll      8888<<<8888888888888888",
"88888888z888     =kkkkkllllllllllll      88888888888888888888888",
"8z888888z888     =kkkkkllllllllllll      88888888888888z88888888",
"8z0888888z888<888,     222222wwwwww      88888888888888888888888",
"8888888888888<888,     222222wwwwww      z888888z088888888z88z88",
"8888888888z888888,     222222wwwwww      8888888z888888888888888",
"8888888888888888<888z88            8888888888888z888z888<8888888",
"88888888888888888888z88            88888888888888888z888<88888z8",
"88888888888888888888888            88888888888888888888888888888",
"xxxxxxxxxxxxxxxxxxxxxxx            xxxxxxxxxxxxxxxxxxxxxxxxxxxxx"
};
