/* XPM */
static char *result[] = {
/* columns rows colors chars-per-pixel */
"64 64 73 1 ",
"  c black",
". c #040303",
"X c gray2",
"o c #0C0909",
"O c #0D0B0A",
"+ c #100D0C",
"@ c #110F0E",
"# c #150F0E",
"$ c #14100F",
"% c #16100F",
"& c #1B1B1B",
"* c #3E150D",
"= c #272727",
"- c #2C2C2C",
"; c #323131",
": c #373737",
"> c gray22",
", c #3A3A3A",
"< c #3F3F3F",
"1 c #42150C",
"2 c #551C00",
"3 c #521F06",
"4 c #7A1400",
"5 c #543E28",
"6 c #403D3C",
"7 c #662D21",
"8 c #673328",
"9 c #6D5033",
"0 c #00586F",
"q c gray25",
"w c #444444",
"e c gray33",
"r c #595555",
"t c #615F5F",
"y c #7E6144",
"u c #49646C",
"i c gray43",
"p c gray46",
"a c #983200",
"s c #8D311E",
"d c #98321D",
"f c #FE3131",
"g c #A8422D",
"h c #B6503B",
"j c #D83F41",
"k c #A05952",
"l c #856B52",
"z c #917458",
"x c #A8765C",
"c c #B47150",
"v c #807E7E",
"b c #FE4F4F",
"n c #D46E59",
"m c #A68A6D",
"M c #B48B62",
"N c #B09978",
"B c #C28F5C",
"V c #E0AD7A",
"C c #008FC2",
"Z c #00CBFE",
"A c gray52",
"S c gray53",
"D c #BAA482",
"F c #B5A98E",
"G c gray63",
"H c #C0A885",
"J c #DCB78B",
"K c #E2B58C",
"L c #E6C69C",
"P c #E4C79E",
"I c #FECB98",
"U c #CFC1A0",
"Y c #FEFEFE",
/* pixels */
"GGGGGGGGGGGGGGGGGGGGGGGGGGGGG                 @GGGGGGGGGGGGGGGGG",
"eeeeeeeeeeeeeeeeeeeeeeeeeeeee                 @Geeeeeeeeeeeeeeee",
"eeeeeeeeeeeeeeeeeeeeeeeeeeeee                 @Geeeeeeeeeeeeeeee",
"eeeeeeeeeeeeeeeee,eeeeeeeeeee                 @Geeeeeeeeeeeeeeee",
"eeeeeeeeeee,                 nnnnnnnnnnnnYYYYYA     6eeeeeSSeeee",
"eeeeeSeeeeee                 nnnnnnnnnnnnYYYYYA     teeeeeeeeeee",
"e,eeeeeeeeee                 nnnnnnnnnnnnYYYYYA     6eeeeeeeeeee",
"eeeSee      nnnnnnnnnnnYYYYYY      ddddddhhhhhkbbbbb.     eeeeee",
"eeeeee      nnnnnnnnnnnYYYYYY      ddddddhhhhhkbbbbb.     eee,ee",
"eeeeee      nnnnnnnnnnnYYYYYY      ddddddhhhhhkbbbbb.     eeeeee",
"eeeeee      nnnnnnnnnnnYYYYYY      ddddddhhhhhkbbbbb.     eeeeee",
"      bbbbbbMMMMMchhhhhMMMMMMhhhhhhhhhhhhhhhhhhhhhhhjfffff      ",
"      bbbbbbMMMMMchhhhhMMMMMMhhhhhhhhhhhhhhhhhhhhhhhjfffff      ",
"      bbbbbbMMMMMchhhhhMMMMMMhhhhhhhhhhhhhhhhhhhhhhhjfffff      ",
"eeeeee      hhhhhgdddddhhhhhhnnnnnnhhhhhhBBBBBxhhhhhhhhhhh      ",
"eeeepe      hhhhhgdddddhhhhhhnnnnnnhhhhhhBBBBBxhhhhhhhhhhh      ",
"eeeeee      hhhhhgdddddhhhhhhnnnnnnhhhhhhBBBBBxhhhhhhhhhhh      ",
"eeeeee      hhhhhgdddddhhhhhhnnnnnnhhhhhhBBBBBxhhhhhhhhhhh      ",
"      bbbbbbhhhhh7     ffffff------nnnnnnIIIIIl     8hhhhh      ",
"      bbbbbbhhhhh7     ffffff------nnnnnnIIIIIl     8hhhhh      ",
"      bbbbbbhhhhh7     ffffff------nnnnnnIIIIIl     8hhhhh      ",
"      dddddd     *sssss      KKKKKK      IIIIIl           rrrrvr",
"      dddddd     1ddddd      IIIIII      IIIIIl           eeeeee",
"      dddddd     1ddddd      IIIIII      IIIIIl           eeeeee",
"      dddddd     1ddddd      IIIIII      IIIIIl           eeeeee",
"eeSeee           5BBBBBVVVVVVIIIIII      IIIIIl     6eeeeeeeeeee",
"eeeeee           5BBBBBVVVVVVIIIIII      IIIIIl     6eeeeeeeeeee",
"eeeeee           5BBBBBVVVVVVIIIIII      IIIIIl     6eeeeeeeeeee",
"eeeeeeqqqqqqqqqqq;#####NNNNNNJJJJJJzzzzzz#####o     +%%%%%eeeeee",
"eeeeeeeeeSeeeeeee<     BBBBBBVVVVVVIIIIII                 eee,ee",
"eeeeeeeeeeeeeeeee<     BBBBBBVVVVVVIIIIII                 eeeeee",
"eeeeeeeeeeeeeeeee<     BBBBBBVVVVVVIIIIII                 eeeeee",
"eeeeeS                                        OVVVVVPIIIII      ",
"eeSeee                                        OVVVVVPIIIII      ",
"eeeeee                                        OVVVVVPIIIII      ",
"wwwwwwXXXXXXXXXXXXXXXXXXXXXXXXXXXXX      XXXXX$HHHHHULLLLL      ",
"      IIIIIIIIIIIm:::::============      VVVVVDBBBBBFVVVVV      ",
"      IIIIIIIIIIIm:::::============      VVVVVDBBBBBFVVVVV      ",
"      IIIIIIIIIIIm:::::============      VVVVVDBBBBBFVVVVV      ",
"      IIIIII     &<<<<<<<<<<<<<<<<<                       eeeeee",
"      IIIIII     &<<<<<<<<<<<<<<<<<                       eeeeee",
"      IIIIII     &<<<<<<<<<<<<<<<<<                       eeeeee",
"      IIIIII     &<<<<<<<<<<<<<<<<<                       SSeeee",
"      IIIIIIVVVVVy     ::::::<<<<<<      eeeeeGGeeeeeeeeeeSeeeee",
"      IIIIIIVVVVVy     ::::::<<<<<<      eeeeeGGeeeeeeeeeeeeeeee",
"      IIIIIIVVVVVy     ::::::<<<<<<      eeeeeGGeeeeeeeeeeeeeeee",
"      VVVVVVBBBBB9     ZZZZZZCCCCCC                 6e,eeeeeeeee",
"      VVVVVVBBBBB9     ZZZZZZCCCCCC                 6eeeeeeeeeee",
"      VVVVVVBBBBB9     ZZZZZZCCCCCC                 6eeeeSeeeeee",
"      VVVVVVBBBBB9     ZZZZZZCCCCCC                 6eeeeeeeeeee",
"eeeeee           0ZZZZZZZZZZZCCCCCCCCCCCCCCCCCuaaaaa.     eeeeee",
"eeeeee           0ZZZZZZZZZZZCCCCCCCCCCCCCCCCCuaaaaa.     eeeeeS",
"eeeeSe           0ZZZZZZZZZZZCCCCCCCCCCCCCCCCCuaaaaa.     eeeeee",
"      444444ZZZZZZZZZZZ      444444aaaaaaaaaaa3     6ee,eeeeee,e",
"      444444ZZZZZZZZZZZ      444444aaaaaaaaaaa3     6eeeeeee,,,e",
"      444444ZZZZZZZZZZZ      444444aaaaaaaaaaa3     6eeeeeeeeeee",
"      444444ZZZZZZZZZZZ      444444aaaaaaaaaaa3     6eeeeeeeeeee",
"      444444aaaaa2     eSeee,                 @Geeeeeeeeeeeeeeee",
"      444444aaaaa2     eeeee,                 @GeeeeeeeeSeeeeeeS",
"      444444aaaaa2     eeSeee                 @GeeSeeSSeeeeeeeeS",
"eeeSee           >eeeeeeeeeeeee,eeeSeeeeeeee,eGGeeeeeeeeeeeeeeeS",
"eeeSee           >eeeeeeeeeeeeeeeeeSeeee,eeeeeGGeeeeeeeeeeeeeeee",
"eeeeee           >eeeeeeeeeeeeeeeeeeeeeeeeeeeeGGeeeeeeeeeeeeeeee",
"GGGGGG           iGGGGGGGGGGGGGGGGGGGGGGGGGGGGGGGGGGGGGGGGGGGGGG"
};
