/* XPM */
static char *M19yZXNpemU_[] = {
/* columns rows colors chars-per-pixel */
"64 64 60 1 ",
"  c black",
". c #040303",
"X c gray2",
"o c #0C0909",
"O c #0D0B0A",
"+ c #0F0C0A",
"@ c #0F0C0B",
"# c #150F0E",
"$ c #14100F",
"% c #1B1B1B",
"& c #3E150D",
"* c #291F1B",
"= c #272727",
"- c #2C2C2C",
"; c #373737",
": c #3F3F3F",
"> c #42150C",
", c #551C00",
"< c #521F06",
"1 c #7A1400",
"2 c #543E28",
"3 c #662D21",
"4 c #673328",
"5 c #6D5033",
"6 c #00586F",
"7 c #7E6144",
"8 c #49646C",
"9 c #983200",
"0 c #8D311E",
"q c #98321D",
"w c #FE3131",
"e c #A8422D",
"r c #B6503B",
"t c #D83F41",
"y c #A05952",
"u c #856B52",
"i c #917458",
"p c #A8765C",
"a c #B47150",
"s c #FE4F4F",
"d c #D46E59",
"f c #A68A6D",
"g c #B48B62",
"h c #B09978",
"j c #C28F5C",
"k c #E0AD7A",
"l c #008FC2",
"z c #00CBFE",
"x c gray52",
"c c #BAA482",
"v c #B5A98E",
"b c #C0A885",
"n c #DCB78B",
"m c #E2B58C",
"M c #E6C69C",
"N c #E4C79E",
"B c #FECB98",
"V c #CFC1A0",
"C c #FEFEFE",
"Z c None",
/* pixels */
"ZZZZZZZZZZZZZZZZZZZZZZZZZZZZZ                 OZZZZZZZZZZZZZZZZZ",
"ZZZZZZZZZZZZZZZZZZZZZZZZZZZZZ                 OZZZZZZZZZZZZZZZZZ",
"ZZZZZZZZZZZZZZZZZZZZZZZZZZZZZ                 OZZZZZZZZZZZZZZZZZ",
"ZZZZZZZZZZZZZZZZZZZZZZZZZZZZZ                 OZZZZZZZZZZZZZZZZZ",
"ZZZZZZZZZZZZ                 ddddddddddddCCCCCx     *ZZZZZZZZZZZ",
"ZZZZZZZZZZZZ                 ddddddddddddCCCCCx     *ZZZZZZZZZZZ",
"ZZZZZZZZZZZZ                 ddddddddddddCCCCCx     *ZZZZZZZZZZZ",
"ZZZZZZ      dddddddddddCCCCCC      qqqqqqrrrrrysssss.     ZZZZZZ",
"ZZZZZZ      dddddddddddCCCCCC      qqqqqqrrrrrysssss.     ZZZZZZ",
"ZZZZZZ      dddddddddddCCCCCC      qqqqqqrrrrrysssss.     ZZZZZZ",
"ZZZZZZ      dddddddddddCCCCCC      qqqqqqrrrrrysssss.     ZZZZZZ",
"      ssssssgggggarrrrrggggggrrrrrrrrrrrrrrrrrrrrrrrtwwwww      ",
"      ssssssgggggarrrrrggggggrrrrrrrrrrrrrrrrrrrrrrrtwwwww      ",
"      ssssssgggggarrrrrggggggrrrrrrrrrrrrrrrrrrrrrrrtwwwww      ",
"ZZZZZZ      rrrrreqqqqqrrrrrrddddddrrrrrrjjjjjprrrrrrrrrrr      ",
"ZZZZZZ      rrrrreqqqqqrrrrrrddddddrrrrrrjjjjjprrrrrrrrrrr      ",
"ZZZZZZ      rrrrreqqqqqrrrrrrddddddrrrrrrjjjjjprrrrrrrrrrr      ",
"ZZZZZZ      rrrrreqqqqqrrrrrrddddddrrrrrrjjjjjprrrrrrrrrrr      ",
"      ssssssrrrrr3     wwwwww------ddddddBBBBBu     4rrrrr      ",
"      ssssssrrrrr3     wwwwww------ddddddBBBBBu     4rrrrr      ",
"      ssssssrrrrr3     wwwwww------ddddddBBBBBu     4rrrrr      ",
"      qqqqqq     &00000      mmmmmm      BBBBBu           ZZZZZZ",
"      qqqqqq     >qqqqq      BBBBBB      BBBBBu           ZZZZZZ",
"      qqqqqq     >qqqqq      BBBBBB      BBBBBu           ZZZZZZ",
"      qqqqqq     >qqqqq      BBBBBB      BBBBBu           ZZZZZZ",
"ZZZZZZ           2jjjjjkkkkkkBBBBBB      BBBBBu     *ZZZZZZZZZZZ",
"ZZZZZZ           2jjjjjkkkkkkBBBBBB      BBBBBu     *ZZZZZZZZZZZ",
"ZZZZZZ           2jjjjjkkkkkkBBBBBB      BBBBBu     *ZZZZZZZZZZZ",
"ZZZZZZZZZZZZZZZZZ+#####hhhhhhnnnnnniiiiii#####O     +#####ZZZZZZ",
"ZZZZZZZZZZZZZZZZZZ     jjjjjjkkkkkkBBBBBB                 ZZZZZZ",
"ZZZZZZZZZZZZZZZZZZ     jjjjjjkkkkkkBBBBBB                 ZZZZZZ",
"ZZZZZZZZZZZZZZZZZZ     jjjjjjkkkkkkBBBBBB                 ZZZZZZ",
"ZZZZZZ                                        OkkkkkNBBBBB      ",
"ZZZZZZ                                        OkkkkkNBBBBB      ",
"ZZZZZZ                                        OkkkkkMBBBBB      ",
"ZZZZZZXXXXXXXXXXXXXXXXXXXXXXXXXXXXX      XXXXX$bbbbbVMMMMM      ",
"      BBBBBBBBBBBf;;;;;============      kkkkkcjjjjjvkkkkk      ",
"      BBBBBBBBBBBf;;;;;============      kkkkkcjjjjjvkkkkk      ",
"      BBBBBBBBBBBf;;;;;============      kkkkkcjjjjjvkkkkk      ",
"      BBBBBB     %:::::::::::::::::                       ZZZZZZ",
"      BBBBBB     %:::::::::::::::::                       ZZZZZZ",
"      BBBBBB     %:::::::::::::::::                       ZZZZZZ",
"      BBBBBB     %:::::::::::::::::                       ZZZZZZ",
"      BBBBBBkkkkk7     ;;;;;;::::::      ZZZZZZZZZZZZZZZZZZZZZZZ",
"      BBBBBBkkkkk7     ;;;;;;::::::      ZZZZZZZZZZZZZZZZZZZZZZZ",
"      BBBBBBkkkkk7     ;;;;;;::::::      ZZZZZZZZZZZZZZZZZZZZZZZ",
"      kkkkkkjjjjj5     zzzzzzllllll                 *ZZZZZZZZZZZ",
"      kkkkkkjjjjj5     zzzzzzllllll                 *ZZZZZZZZZZZ",
"      kkkkkkjjjjj5     zzzzzzllllll                 *ZZZZZZZZZZZ",
"      kkkkkkjjjjj5     zzzzzzllllll                 *ZZZZZZZZZZZ",
"ZZZZZZ           6zzzzzzzzzzzlllllllllllllllll899999.     ZZZZZZ",
"ZZZZZZ           6zzzzzzzzzzzlllllllllllllllll899999.     ZZZZZZ",
"ZZZZZZ           6zzzzzzzzzzzlllllllllllllllll899999X     ZZZZZZ",
"      111111zzzzzzzzzzz      11111199999999999<     *ZZZZZZZZZZZ",
"      111111zzzzzzzzzzz      11111199999999999<     *ZZZZZZZZZZZ",
"      111111zzzzzzzzzzz      11111199999999999<     *ZZZZZZZZZZZ",
"      111111zzzzzzzzzzz      11111199999999999<     *ZZZZZZZZZZZ",
"      11111199999,     ZZZZZZ                 OZZZZZZZZZZZZZZZZZ",
"      11111199999,     ZZZZZZ                 OZZZZZZZZZZZZZZZZZ",
"      11111199999,     ZZZZZZ                 OZZZZZZZZZZZZZZZZZ",
"ZZZZZZ            ZZZZZZZZZZZZZZZZZZZZZZZZZZZZZZZZZZZZZZZZZZZZZZ",
"ZZZZZZ            ZZZZZZZZZZZZZZZZZZZZZZZZZZZZZZZZZZZZZZZZZZZZZZ",
"ZZZZZZ            ZZZZZZZZZZZZZZZZZZZZZZZZZZZZZZZZZZZZZZZZZZZZZZ",
"ZZZZZZ            ZZZZZZZZZZZZZZZZZZZZZZZZZZZZZZZZZZZZZZZZZZZZZZ"
};
