/* XPM */
static char *result[] = {
/* columns rows colors chars-per-pixel */
"64 64 57 1 ",
"  c black",
". c gray2",
"X c gray4",
"o c #0B0A0A",
"O c #150F0E",
"+ c #1F0C08",
"@ c #1E0C09",
"# c #271E14",
"$ c #281F1E",
"% c #331C16",
"& c #2D231A",
"* c #32291F",
"= c #031E27",
"- c #272727",
"; c #2D2221",
": c #2B2726",
"> c #282828",
", c #2C2C2C",
"< c #2F2F2F",
"1 c #3A2D2C",
"2 c #3A3A3A",
"3 c #3F3F3F",
"4 c #7A1400",
"5 c #42241D",
"6 c #612020",
"7 c gray25",
"8 c #444444",
"9 c #484545",
"0 c gray33",
"q c #595555",
"w c gray37",
"e c gray46",
"r c #983200",
"t c #8D311E",
"y c #98321D",
"u c #FE3131",
"i c #AD4732",
"p c #B6503B",
"a c #CB453F",
"s c #917458",
"d c #9C6E64",
"f c #FE4F4F",
"g c #D46E59",
"h c #B48B62",
"j c #B09978",
"k c #C28F5C",
"l c #E0AD7A",
"z c #008FC2",
"x c #00CBFE",
"c c gray53",
"v c #969494",
"b c gray63",
"n c gray67",
"m c #DCB78B",
"M c #E2B58C",
"N c #FECB98",
"B c #FEFEFE",
/* pixels */
"bbbbbbbbbbbbbbbbbbbbbbbbbbbbb                  bbbbbbbbbbbbbbbbb",
"b0000000000000000000000000000                  0000000000000000b",
"b0000000000000000000000000000                  0000000000000000b",
"b0000000000000000000000000000                  0002000200000000b",
"b0000000000c                 ggggggggggggBBBBBB     ;0000000000b",
"b0000c000000                 ggggggggggggBBBBBB     ;0000000000b",
"b00000000000                 ggggggggggggBBBBBB     ;00000n0000b",
"b00000      gggggggggggBBBBBB      yyyyyyppppppfffff6     00000b",
"b00000      gggggggggggBBBBBB      yyyyyyppppppfffff6     00000b",
"b00000      gggggggggggBBBBBB      yyyyyyppppppfffff6     00000b",
"b00000      gggggggggggBBBBBB      yyyyyyppppppfffff6     00000b",
"      ffffffhhhhhdppppphhhhhhpppppppppppppppppppppppauuuuu      ",
"      ffffffhhhhhdppppphhhhhhpppppppppppppppppppppppauuuuu      ",
"      ffffffhhhhhdppppphhhhhhpppppppppppppppppppppppauuuuu      ",
"b00000      pppppiyyyyyppppppggggggppppppkkkkkkppppppppppp      ",
"b00000      pppppiyyyyyppppppggggggppppppkkkkkkppppppppppp      ",
"b00000      pppppiyyyyyppppppggggggppppppkkkkkkppppppppppp      ",
"b00020      pppppiyyyyyppppppggggggppppppkkkkkkppppppppppp      ",
"      ffffffppppp5     uuuuuu,,,,,,ggggggNNNNNN     %ppppp      ",
"      ffffffppppp5     uuuuuu,,,,,,ggggggNNNNNN     %ppppp      ",
"      ffffffppppp5     uuuuuu,,,,,,ggggggNNNNNN     %ppppp      ",
"      yyyyyy     @ttttt      MMMMMM      NNNNNN           qqqqqv",
"      yyyyyy     +yyyyy      NNNNNN      NNNNNN           00000b",
"      yyyyyy     +yyyyy      NNNNNN      NNNNNN           00000b",
"      yyyyyy     +yyyyy      NNNNNN      NNNNNN           00000b",
"b00000           #kkkkkllllllNNNNNN      NNNNNN     ;0000000000b",
"b00000           #kkkkkllllllNNNNNN      NNNNNN     ;0000000020b",
"b00000           #kkkkkllllllNNNNNN      NNNNNN     ;0000000000b",
"b0000077777777777$OOOOOjjjjjjmmmmmmssssssOOOOOO7777790000000000b",
"b00000000020002001     kkkkkkllllllNNNNNN      0000220000000000b",
"b000000000>0000001     kkkkkkllllllNNNNNN      0000000000000000b",
"b000c0000000000001     kkkkkkllllllNNNNNN      0c00000000000c00b",
"b000c0000000     X-----                  0000000000000000000000b",
"b00000000000     X-----                  0000000000000000000000b",
"b00000000000     X-----                  0000000000000000c00000b",
"b00000000c00     o:::::..................88<8880000000000c00000b",
"b00000000000     *NNNNN------------333333      0000000000000000b",
"b00000000002     *NNNNN------------333333      00000000000000c0b",
"b0000000000e     *NNNNN------------333333      0000000000000000b",
"b00000000000     &lllllNNNNNN      333333      0000000000000000b",
"b0c000000000     &lllllNNNNNN      333333      0000c00000000000b",
"b00000000000     &lllllNNNNNN      333333      0000c00000000000b",
"b0000000200c     &lllllNNNNNN      333333      00000000000c0000b",
"b0000000000c           llllllNNNNNN333333      0000000000000000b",
"b00000000000           llllllNNNNNN333333      0000000000000000b",
"b00000000000           llllllNNNNNN333333      0200000000000000b",
"b000c0020000           kkkkkkllllll      0000000000000000000000b",
"b00000000000           kkkkkkllllll      0000000000000000000002b",
"b000000000c0           kkkkkkllllll      000000000c000002000000b",
"b00000000000           kkkkkkllllll      0000000000000c00000000b",
"b00000000000     =zzzzz            000000000c000002000c00000000b",
"b0c000000000     =zzzzz            0000c00000000000000000c00000b",
"b00000000000     =zzzzz            c000000000000000000000000000b",
"b00000002000     =zzzzzxxxxxxxxxxxx      0000000000000000000000b",
"b00000000000     =zzzzzxxxxxxxxxxxx      0000000c20000000000000b",
"b00000000000     =zzzzzxxxxxxxxxxxx      0000000c00000c00000000b",
"b00000000000     =zzzzzxxxxxxxxxxxx      0000200ccw000000000000b",
"b00000000000000001     444444rrrrrr      c000200000c000000c00c0b",
"b00000000c000000c1     444444rrrrrr      0000200000000000000000b",
"b00c00cc00000000c1     444444rrrrrr      0c00000000000000000000b",
"b000000000000000c000c00            00000000000002000c0000000020b",
"b0000000000000000000c00            00000000000000000c0000200000b",
"b0000000000000000000000            0000000000000000000000000000b",
"bbbbbbbbbbbbbbbbbbbbbbb            bbbbbbbbbbbbbbbbbbbbbbbbbbbbb"
};
