/* XPM */
static char *NF9yZXNpemU_[] = {
/* columns rows colors chars-per-pixel */
"64 64 44 1 ",
"  c black",
". c gray2",
"X c gray4",
"o c #0B0A0A",
"O c #150F0E",
"+ c #1F0C08",
"@ c #1E0C09",
"# c #271E14",
"$ c #271E1D",
"% c #331C16",
"& c #2D231A",
"* c #32291F",
"= c #031E27",
"- c #272727",
"; c #2C2120",
": c #2B2726",
"> c #2C2C2C",
", c #392C2B",
"< c #3F3F3F",
"1 c #7A1400",
"2 c #42241D",
"3 c #612020",
"4 c #983200",
"5 c #8D311E",
"6 c #98321D",
"7 c #FE3131",
"8 c #AD4732",
"9 c #B6503B",
"0 c #CB453F",
"q c #917458",
"w c #9C6E64",
"e c #FE4F4F",
"r c #D46E59",
"t c #B48B62",
"y c #B09978",
"u c #C28F5C",
"i c #E0AD7A",
"p c #008FC2",
"a c #00CBFE",
"s c #DCB78B",
"d c #E2B58C",
"f c #FECB98",
"g c #FEFEFE",
"h c None",
/* pixels */
"hhhhhhhhhhhhhhhhhhhhhhhhhhhhh                  hhhhhhhhhhhhhhhhh",
"hhhhhhhhhhhhhhhhhhhhhhhhhhhhh                  hhhhhhhhhhhhhhhhh",
"hhhhhhhhhhhhhhhhhhhhhhhhhhhhh                  hhhhhhhhhhhhhhhhh",
"hhhhhhhhhhhhhhhhhhhhhhhhhhhhh                  hhhhhhhhhhhhhhhhh",
"hhhhhhhhhhhh                 rrrrrrrrrrrrgggggg     ;hhhhhhhhhhh",
"hhhhhhhhhhhh                 rrrrrrrrrrrrgggggg     ;hhhhhhhhhhh",
"hhhhhhhhhhhh                 rrrrrrrrrrrrgggggg     ;hhhhhhhhhhh",
"hhhhhh      rrrrrrrrrrrgggggg      666666999999eeeee3     hhhhhh",
"hhhhhh      rrrrrrrrrrrgggggg      666666999999eeeee3     hhhhhh",
"hhhhhh      rrrrrrrrrrrgggggg      666666999999eeeee3     hhhhhh",
"hhhhhh      rrrrrrrrrrrgggggg      666666999999eeeee3     hhhhhh",
"      eeeeeetttttw99999tttttt99999999999999999999999077777      ",
"      eeeeeetttttw99999tttttt99999999999999999999999077777      ",
"      eeeeeetttttw99999tttttt99999999999999999999999077777      ",
"hhhhhh      99999866666999999rrrrrr999999uuuuuu99999999999      ",
"hhhhhh      99999866666999999rrrrrr999999uuuuuu99999999999      ",
"hhhhhh      99999866666999999rrrrrr999999uuuuuu99999999999      ",
"hhhhhh      99999866666999999rrrrrr999999uuuuuu99999999999      ",
"      eeeeee999992     777777>>>>>>rrrrrrffffff     %99999      ",
"      eeeeee999992     777777>>>>>>rrrrrrffffff     %99999      ",
"      eeeeee999992     777777>>>>>>rrrrrrffffff     %99999      ",
"      666666     @55555      dddddd      ffffff           hhhhhh",
"      666666     @66666      ffffff      ffffff           hhhhhh",
"      666666     +66666      ffffff      ffffff           hhhhhh",
"      666666     +66666      ffffff      ffffff           hhhhhh",
"hhhhhh           #uuuuuiiiiiiffffff      ffffff     ;hhhhhhhhhhh",
"hhhhhh           #uuuuuiiiiiiffffff      ffffff     ;hhhhhhhhhhh",
"hhhhhh           #uuuuuiiiiiiffffff      ffffff     ;hhhhhhhhhhh",
"hhhhhhhhhhhhhhhhh$OOOOOyyyyyyssssssqqqqqqOOOOOOhhhhhhhhhhhhhhhhh",
"hhhhhhhhhhhhhhhhh,     uuuuuuiiiiiiffffff      hhhhhhhhhhhhhhhhh",
"hhhhhhhhhhhhhhhhh,     uuuuuuiiiiiiffffff      hhhhhhhhhhhhhhhhh",
"hhhhhhhhhhhhhhhhh,     uuuuuuiiiiiiffffff      hhhhhhhhhhhhhhhhh",
"hhhhhhhhhhhh     X-----                  hhhhhhhhhhhhhhhhhhhhhhh",
"hhhhhhhhhhhh     X-----                  hhhhhhhhhhhhhhhhhhhhhhh",
"hhhhhhhhhhhh     X-----                  hhhhhhhhhhhhhhhhhhhhhhh",
"hhhhhhhhhhhh     X:::::..................hhhhhhhhhhhhhhhhhhhhhhh",
"hhhhhhhhhhhh     *fffff------------<<<<<<      hhhhhhhhhhhhhhhhh",
"hhhhhhhhhhhh     :fffff------------<<<<<<      hhhhhhhhhhhhhhhhh",
"hhhhhhhhhhhh     *fffff-----------:<<<<<<      hhhhhhhhhhhhhhhhh",
"hhhhhhhhhhhh     &iiiiiffffff      <<<<<<      hhhhhhhhhhhhhhhhh",
"hhhhhhhhhhhh     &iiiiiffffff      <<<<<<      hhhhhhhhhhhhhhhhh",
"hhhhhhhhhhhh     &iiiiiffffff      <<<<<<      hhhhhhhhhhhhhhhhh",
"hhhhhhhhhhhh     &iiiiiffffff      <<<<<<      hhhhhhhhhhhhhhhhh",
"hhhhhhhhhhhh           iiiiiiffffff<<<<<<      hhhhhhhhhhhhhhhhh",
"hhhhhhhhhhhh           iiiiiiffffff<<<<<<      hhhhhhhhhhhhhhhhh",
"hhhhhhhhhhhh           iiiiiiffffff<<<<<<      hhhhhhhhhhhhhhhhh",
"hhhhhhhhhhhh           uuuuuuiiiiii      hhhhhhhhhhhhhhhhhhhhhhh",
"hhhhhhhhhhhh           uuuuuuiiiiii      hhhhhhhhhhhhhhhhhhhhhhh",
"hhhhhhhhhhhh           uuuuuuiiiiii      hhhhhhhhhhhhhhhhhhhhhhh",
"hhhhhhhhhhhh           uuuuuuiiiiii      hhhhhhhhhhhhhhhhhhhhhhh",
"hhhhhhhhhhhh     =ppppp            hhhhhhhhhhhhhhhhhhhhhhhhhhhhh",
"hhhhhhhhhhhh     =ppppp            hhhhhhhhhhhhhhhhhhhhhhhhhhhhh",
"hhhhhhhhhhhh     =ppppp            hhhhhhhhhhhhhhhhhhhhhhhhhhhhh",
"hhhhhhhhhhhh     =pppppaaaaaaaaaaaa      hhhhhhhhhhhhhhhhhhhhhhh",
"hhhhhhhhhhhh     =pppppaaaaaaaaaaaa      hhhhhhhhhhhhhhhhhhhhhhh",
"hhhhhhhhhhhh     =pppppaaaaaaaaaaaa      hhhhhhhhhhhhhhhhhhhhhhh",
"hhhhhhhhhhhh     =pppppaaaaaaaaaaaa      hhhhhhhhhhhhhhhhhhhhhhh",
"hhhhhhhhhhhhhhhhh,     111111444444      hhhhhhhhhhhhhhhhhhhhhhh",
"hhhhhhhhhhhhhhhhh,     111111444444      hhhhhhhhhhhhhhhhhhhhhhh",
"hhhhhhhhhhhhhhhhh,     111111444444      hhhhhhhhhhhhhhhhhhhhhhh",
"hhhhhhhhhhhhhhhhhhhhhhh            hhhhhhhhhhhhhhhhhhhhhhhhhhhhh",
"hhhhhhhhhhhhhhhhhhhhhhh            hhhhhhhhhhhhhhhhhhhhhhhhhhhhh",
"hhhhhhhhhhhhhhhhhhhhhhh            hhhhhhhhhhhhhhhhhhhhhhhhhhhhh",
"hhhhhhhhhhhhhhhhhhhhhhh            hhhhhhhhhhhhhhhhhhhhhhhhhhhhh"
};
