/* XPM */
static char *_38743b395d940598a1287df17194befuB3rOgpufOgL0lhw[] = {
/* columns rows colors chars-per-pixel */
"64 64 55 1 ",
"  c None",
". c #3B5C53",
"X c #3B5D53",
"o c #3B5E52",
"O c #3B5F52",
"+ c #3B5E53",
"@ c #3B5955",
"# c #3B5A54",
"$ c #3B5B54",
"% c #3B5A55",
"& c #3C5956",
"* c #3B5C54",
"= c #3A644F",
"- c #3A654F",
"; c #3A664E",
": c #3A674E",
"> c #3A664F",
", c #3A6B4B",
"< c #3A6D4A",
"1 c #3A6C4B",
"2 c #3A6D4B",
"3 c #3A6E4A",
"4 c #3A6F4A",
"5 c #3A684D",
"6 c #3A694D",
"7 c #3A6A4C",
"8 c #3A6B4C",
"9 c #3A6A4D",
"0 c #397347",
"q c #397745",
"w c #397546",
"e c #397447",
"r c #397547",
"t c #397646",
"y c #387A43",
"u c #397A43",
"i c #387B43",
"p c #397B43",
"a c #397944",
"s c #397845",
"d c #397A44",
"f c #387B44",
"g c #397B44",
"h c #397148",
"j c #397049",
"k c #397149",
"l c #397248",
"z c #397348",
"x c #3B6051",
"c c #3B6151",
"v c #3B6250",
"b c #3B6350",
"n c #3B6251",
"m c #3B6052",
"M c #3B6450",
/* pixels */
"     ddgggdggddgggggggddgddgfdggggggggggfffgggffdfggdgggggii    ",
"    d992M2jM22M21-11-12M22Mj2Mj:Mj9Mj9Mj:Mj9Mz9MjM-z-Me--e-1i   ",
"   d9#j##j##k#&2#&1#&2##2##9#*9#*:#m9#vM#mM#vM#vM#Mv#Mv#-v#-dd  ",
"  i99#*9#*9#*9**9&+9&v9&*9&v9#*9#v:&v9#v9#v9#v9&M9#-9#M9#M9&M1g ",
" id&#0##t##t##t#&d#.e##e##z##z#&t##k&#k##j&#k##1##1#&2##2##9#+di",
"de+bM#v-#vM*vM&v-&+-&v9#v:#m:#v9#+9**2**2**2**2**2**1**2**2**99d",
"g9j+&j+&j*&k*&k*&0+&z+&j#&j*&j*&k*&k*&k#&2##1*&2*&2#&1##2##2##ei",
"g9&M-&-M&-M#Mv#:=&-v&-+#Mv#9m#9*#9*#9*#9*#2#*1#*2##2&+1&*1&*1&9g",
"de*vM*v:#m-#v-#m-&b-&b9#+9#+9#+9#*8**2**2**1**1**j**j**2**2**2-g",
"g9**9**M*mM*mM*v-+bb+bv+Mv*Mv*-**M**:**9**9**9#*9&*2&#2#&j##j&9g",
"gz9&v9&M:#M9&-:&--&-M&--#M-#-M&9M&::&9v#9M#9M&9v#2v&2v&2v&2v&9ji",
"g9#k&&z&&k&&k&&k&&j&&1&*2#*2#+2&*9#v9#*9&v-&vM#MM&Mv&Mv&-v&-b&9g",
"g99#m:*m9**9**8**2*+2**9**9v*:m#:v*9m#9v#-v#Mv&Mv&MM&Mv#MM#Mb&0d",
"g9#j*&j##k*&k##k#&1*&2##2*#9#*9#*:#*:#*9#v9#vM#vM#MM&M-#Mv#Mb&9g",
"ge*#2##9##9#*9#*2&*1&*2#*2&*2#*2**2&*j&*2&*1&v2&mj#mj&m2#v1&v1-d",
"g92#*2#*j#*k#*j#+j**j*#j**j**j*#j**2**2*#2*#2*#9*#9*&9*#9*#9++eg",
"gd**9**9**9#*9#*9##9#*9#*2##2#*2#*1#*j##j#.j#+j#*z##z*#j##j##j:g",
"d99v#9v&9v#2v&9v#1v#1v#1+#2v&2v#2v&1+&2+&1+&2+&9*#2*&9+#2*#9**zg",
"d2#v9&v-#vM&v-#MM&Mv#Mv#>v#9*#:+#9+#9+#,*#,.#9##2&#2&#1&#j&#j#9d",
"gj*Mv*-v*Mv#Mv#MM#MM&vM#vv#vM*v>#+-*v-&b-*+9++9*v9m*9+v9**9v*9Md",
"d9&+9#+-#+9#vM#vM#vM&MM#Mv&Mv&Mv&9+&-+&,+&,$&9*#9##2*&1*&j##j*9d",
"gj2&+1&v2&+2&v2&v1#v2#v2#v2&v9#M2&=9&-,&-9&-9&M-#MM&M-&-M#-M&Mjd",
"g1#j*#1+#2*#9+#9*#9*&9*#9*#9**9*+-++-++-++-+vv*vMvvvvvv*Mv*Mvm9d",
"g92**1#*j#*j##j#*j**j*#j*#k*#j*#1+&1+#1..,+&2*#9*&9*#9*#9*#9**eg",
"g9&1+&,+&2*&2*&2*&2*&2*#9*&9*#9#+9..9#*9#*9#+9#v9#m9&v:&v-&MM#:g",
"gd*#9+#,##9##1##2&*1&*2&#j&#k##k&.j&#0&#z&*z&#z##z&*z&*j#*z&*z:g",
"d99#+9.+9#v9++9*+1*+2**9**9m*:m#-v#9v#9v*:v#9v#Mv&MM&Mv#vM#MM*jg",
"ddv&9+&,*&2#&1.#1&&j&#j&#j&&k&&t&&e&&e&&z&&e&&e&&d&&g#&d#&t&#z9g",
"g9-9&-9&-9&-9&--&9M#MM&:M#9v&9M&9=&9v#9+&9v&9m&9m&:*&9*#9*#:*#jg",
"g9*+-*+-*+-#vv.vM+vv+Mv*Mm*:m*:*#-**M**9**9#*9##2&*2&#2#*j&#j&9g",
"gj&1+#2+#9+#9v#9+&9v#Mv#:v#Mv#Mv#-v*Mv*vv*vv*vvmvvvmMv*vv*vv*v9d",
"g1**9#*9#+9#+-&+-&v-#vM#vM&Mv&MM#-M#Mv&9M#Mv&9v&:v&9v&9v&2v#2vMd",
"g2j&*j#*j&*j&#e&*t&*z#*j#*j#*j&*j&*j&+j&*8**8#*8#v:#*2&v9#v-#vdd",
"gj*9v#9*#9v#9v#-v&:v&Mv#Mv*Mv*Mv#vM*MM+bM*M-*v-vvM*mvv*Mv*Mv*MMd",
"g9j##j#&z##e#&e#&f#&d##d##e##z##z##j##j&#k&#k##8#&j#&2#*2##9#*fg",
"g9&9v&9v&9+#9+&9*&:m&:*#2*#9**2**9**9&+9**:#*2&*:#*9&m9&+9#m9&:g",
"gd*#9##9*#9##1.#2##2&#2##j##j&#j#*j##z##t#&t##z#*t##t##z##z##j:g",
"g9M*MM*vM*vM++=++M*vMv*Mm*Mm+Mv*MM*Mv#vM*Mv#v9*v:&vM#*:#*9#m9#jg",
"ddM#Mv&-v&9v&,v&9*#9+#2*&2m&2+&j*&j*&j*#k*#k#&j*&z*&z*#j*#j*&j2d",
"d9*2&v2&v9#+1&+9#v9#v-#v9&v:&M-&MM#MM&MM&MM&Mv#MM&9v&:v&Mm#9m&2d",
"g9v*Mv*Mv+Mv+vv+vvv*Mv*vv*vv*Mv*vM*vM*v9#+M#vM#mM&m9#+9#v9#+9#2f",
"d2#j*#j#&j##1##2*&2*&2*#9##9**9#*:**M**-*vM*vM*vM*vv*vv*vv*Mv*-d",
"gj**9**9**-#+9#+9&*9&*9&v9&v9&v9&v9#v9&v9&M9&M9#M9&9-&M9&:M#9M9d",
"g9z&&z&#e&&d&&d&&d&&g&&d&&e#&e&&z&#z&&z&&j##j&&j&#j&&1&*2&*2#*gd",
"ft*Mv*MM*MM#MM#vM#MM&MM#v-#v-#+9*m9#m9*v9#*2**9**2**2**9**2**9Mf",
"f:k*&z*#z*&e*&z*#e*&e*#z..e#&0.&z*#j#&j#&j#&j#&2#&1#&2*#2##2#*dg",
"f9#MM&MM&-v#-v&-v&9+&9m#-+&9+.9+#9*#9&#9#*9#*9#*2#*2&*2#*2&*2#Mf",
"ge*vM*vM**9#+9#*9&+9&*9#+,&+1#+1#*2**j#*j#*j**j**j**j*#j**j**19g",
"g2*mMm*Mmv-++M+v-+vvvvv+=++-++-++-++-++9**9#+,#.9&*1#*9#*2##2&9f",
"gzM#MM#M-&-M#-M#-M&-M&-M&9=&9M&9>&,=&9=&9v&1v&9v&1v&2v#2v&2v&2jg",
"d9*j&#j&#k##k##1&#1&#9#*,&.,#+9&+5&+-&v-&=-&v=&=v&Mv&Mv#Mv#-m#9d",
"d99*v:*m-*m9*+9+v9+*9v*9+.9+*Mm*>x$-b+-v&-v#-v&=v#--&vv#vM#vM*jd",
"g9&z#&z#&j##k##1#&1#&1#.1.#2##2#+7$+9#+-#v-#v-#=-#vv#MM#Mv#Mv&Mf",
"gz*#9*#9#*9#*9#*,&+,&+9&+,&+2&*2&+7&+9&v1&v1&+,&v1&v2#v2#v2#v29g",
"g2j#*j#*j#*k##j*+0#.e##j.#j##j##j$$<+&1*#1*#,+&,*&1+&9+#9*#9**eg",
"ge*mM*m:*mM#v9#+-&+9&+,#+,#*2#*2&+<$+j**j**1#.0$*j**j*#j*#j**19g",
"d99v&2v#2m&jv&2m&<b&1b&1+&<+&<+&1+&1+&1+&<+&<+&1+&<$&7+&9*#9*#zg",
"g9#MM&vM&MM&vM&Mb&Mb&>v&5+$7+@7+&,+&,.#,$$7&&7$&,&&<&&<&#j&*j&9g",
"gz*MM*Mv#Mv&M-*M=&b>&bM&=>$+>$b>$b-++9#+>++7++,++1++<++7**2**9-g",
" gg*9#v-&v:&vM&v>&bb&>b&>x&>=&6+&9+&9+&1+&<$&1$&1&&j&&h&#j&&j*gg",
"  dd99&v2&v9&M8&b<&><&=7&>7&b6&>6&>6&-9&>>&>>&>M&>>&>>&>-&9M-gi ",
"   dg*j*#2##8*#8&&<&&7&&7$$>++6&+>++-++-&b>++>+b>+b=+>b$=++-di  ",
"    dgMMzMMdvMfvbgbbubbgbbu=brbbe>Mebbe-brbbe>M0bb0bMjb>j=-gg   ",
"     fdgggggggffgggggggggggugggggiggddiigggggugdddddggdgdddi    "
};
