/* XPM */
static char *result[] = {
/* columns rows colors chars-per-pixel */
"64 64 19 1 ",
"  c black",
". c gray19",
"X c #484848",
"o c #676767",
"O c gray47",
"+ c #687C9C",
"@ c #7F8999",
"# c #5885AF",
"$ c #7A9CBC",
"% c gray58",
"& c #9D9D9D",
"* c #95A3BA",
"= c #8AA9C7",
"- c #A2BAD0",
"; c gray83",
": c #C3E0E5",
"> c #D5E9ED",
", c white",
"< c None",
/* pixels */
"                                                                ",
"                                                                ",
"                                                                ",
"                                                                ",
"      o%;;;;;;;;;;;;;;;;;;;;;;;;;;;;;;;;;;;;;;;;;;;;;;;;;;;;;;%o",
"      %o%;;;;;;;;;;;;;;;;;;;;;;;;;;;;;;;;;;;;;;;;;;;;;;;;;;;;%o%",
"      ;%o%;;;;;;;;;;;;;;;;;;;;;;;;;;;;;;;;;;;;;;;;;;;;;;;;;;%o%;",
"      ;;&                                                   o%;;",
"      ;;; OOOOOOOOOOOOOOOOOOOOOOOOOOOOOOOOOOOOOOOOOOOOOOOOO %;;;",
"      ;;; OOOOOOOOOOOOOOOOOOOOOOOOOOOOOOOOOOOOOOOOOOOOOOOOO ;;;;",
"      ;;; OO                                             OO ;;;;",
"      ;;; OO ,,,:,,,,,,,,,,,,,@,,,,,,,,,,,,,,,,,,,,<,,,, OO ;;;;",
"      ;;; OO ,,=,,,,,,,,,,,,,=,,,,,,,,,,,,,:,,,,,,<,,,,: OO ;;;;",
"      ;;; OO ,$,,,,,,,,,,,,,=,,,,,,,,,,,,,:,,,,,,,,,,,=, OO ;;;;",
"      ;;; OO :,,,,,,,,,,,,,:,,,,,,,,,,,,,$,,,,,,,,,,,$,, OO ;;;;",
"      ;;; OO ,,,,,,<,,,,,,:,,,,,,,,,,,,,-,,,,,,,,,,,:,,, OO ;;;;",
"      ;;; OO ,,,,,<,,,,,,,,,,,,,,,,,,,,,,,,,,,,,,,,<,,,, OO ;;;;",
"      ;;; OO                                             OO ;;;;",
"      ;;; OOOOOOOOOOOOOOOOOOOOOOOOOOOOOOOOOOOOOOOOOOOOOOOOO ;;;;",
"      ;;; OOOOOOOOOOOOOOOOOOOOOOOOOOOOOOOOOOOOOOOOOOOOOOOOO ;;;;",
"      ;;;                                                   ;;;;",
"      ;;; OOOOOOOOOOOOOOOOOOOOOOOOOOOOOOOOOOOOOOOOOOOOOOOOO ;;;;",
"      ;;; O...............................................O ;;;;",
"      ;;; O...............................................O ;;;;",
"      ;;; OOOOOOOOOOOOOOOOOOOOOOOOOOOOOOOOOOOOOOOOOOOOOOOOO ;;;;",
"      ;;;                                                   ;;;;",
"      ;;; OOOOOOOOOOOOOOOOOOOOOOOOOOOOOOOOOOOOOOOOOOOOOOOOO ;;;;",
"      ;;; OOOOOOOOOOOOOOOOOOOOOOOOOOOOOOOOOOOOOOOOOOOOOOOOO ;;;;",
"      ;;; OO                                             OO ;;;;",
"      ;;; OO ,,,,,,,,,,,,:,,,,,,,,,,,,,,$,,,,,,,,,,,,,,, OO ;;;;",
"      ;;; OO ,,,,,,,,,,,:,,,,,,,,,,,,,,=,,,,,,,,,,,,,,,, OO ;;;;",
"      ;;; OO ,,,,,=,,,,+,,,,,,,,,,,,,,:,,,,,,,,,,:,,,,,, OO ;;;;",
"      ;;; OO ,,,,=,,,,,,,,,,,,,,:,,,,,,,,,,,:,,,:,,,,,,: OO ;;;;",
"      ;;; OO ,,,:,,,,,,,,,,,,,,+<,,,,,,,,,,=,,,:<,,,,,$, OO ;;;;",
"      ;;; OO ,,>,,,,,,,,,,,,,,=,,,,,,,,,,,=,,,,,,,,,,$,, OO ;;;;",
"      ;;; OO                                             OO ;;;;",
"      ;;; OOOOOOOOOOOOOOOOOOOOOOOOOOOOOOOOOOOOOOOOOOOOOOOOO ;;;;",
"      ;;; OOOOOOOOOOOOOOOOOOOOOOOOOOOOOOOOOOOOOOOOOOOOOOOOO ;;;;",
"      ;;;                                                   ;;;;",
"      ;;; OOOOOOOOOOOOOOOOOOOOOOOOOOOOOOOOOOOOOOOOOOOOOOOOO ;;;;",
"      ;;; O...............................................O ;;;;",
"      ;;; O...............................................O ;;;;",
"      ;;; OOOOOOOOOOOOOOOOOOOOOOOOOOOOOOOOOOOOOOOOOOOOOOOOO ;;;;",
"      ;;;                                                   ;;;;",
"      ;;; OOOOOOOOOOOOOOOOOOOOOOOOOOOOOOOOOOOOOOOOOOOOOOOOO ;;;;",
"      ;;; OOOOOOOOOOOOOOOOOOOOOOOOOOOOOOOOOOOOOOOOOOOOOOOOO ;;;;",
"      ;;; OO                                             OO ;;;;",
"      ;;; OO ,,,,,,,,,,,,+,,,,,,,,,+,,,,,,,,,,,,,,,,=,,, OO ;;;;",
"      ;;; OO ,,:,,,,,,,,=,,,,,,,,,#,,,,,,,,,,,,,,,,=,,,, OO ;;;;",
"      ;;; OO ,=,,,,,,,,:,,,,,,,,,:,,,,,,,,,,,,,,,,:,,,,, OO ;;;;",
"      ;;; OO =,,,,:,,,,,,,,:,,,,,,,,,,,,,:,,,,,,,,,,,,,, OO ;;;;",
"      ;;; OO ,,,,#,,,,,,,,:,,,,,,,,,,,,,=,,,,,,,,,,,,,:, OO ;;;;",
"      ;;; OO ,,,*,,,,,,,,,,,,,,,,,,,,,,=,,,,,,,,,,,,,=,, OO ;;;;",
"      ;;; OO                                             OO ;;;;",
"      ;;; OOOOOOOOOOOOOOOOOOOOOOOOOOOOOOOOOOOOOOOOOOOOOOOOO ;;;;",
"      ;;; OOOOOOOOOOOOOOOOOOOOOOOOOOOOOOOOOOOOOOOOOOOOOOOOO ;;;;",
"      ;;;                                                   %;;;",
"      ;;%o;;;;;;;;;;;;;;;;;;;;;;;;;;;;;;;;;;;;;;;;;;;;;;;;;%X%;;",
"      ;%o%;;;;;;;;;;;;;;;;;;;;;;;;;;;;;;;;;;;;;;;;;;;;;;;;;;%X%;",
"      %o%;;;;;;;;;;;;;;;;;;;;;;;;;;;;;;;;;;;;;;;;;;;;;;;;;;;;%X%",
"      o%;;;;;;;;;;;;;;;;;;;;;;;;;;;;;;;;;;;;;;;;;;;;;;;;;;;;;;%X",
"                                                                ",
"                                                                ",
"                                                                "
};
