/* XPM */
static char *e4f50750f114455380fe111dce59ab77sDHdpSD2zZrzs3KQ[] = {
/* columns rows colors chars-per-pixel */
"64 64 15 1 ",
"  c black",
". c #282828",
"X c #3A3A3A",
"o c #003952",
"O c #015276",
"+ c gray33",
"@ c gray37",
"# c gray46",
"$ c #0276AA",
"% c #03A9F4",
"& c #4E9FC3",
"* c gray53",
"= c gray63",
"- c gray67",
"; c #84D5F9",
/* pixels */
"================================================================",
"=++++++++++++++++++++++++++++++++++++++++++++++++++++++++++++++=",
"=++++++++++++++++++++++++++++++++++++++++++++++++++++++++++++++=",
"=+++++++++++++++++++++++++++++++++X+++++++++++X+++X+++X++++++++=",
"=++++++++++**+++++++++++++++X++++++++++++++++++++++++++++++++++=",
"=++++*++++++++++++++++*++++++++++++++++++++++++++++++++++++++++=",
"=+++++++++++++++++X+++++++++++++++++++++**+++++++++*++++++-++++=",
"=+++++++++++++++++++*+++++++XX+++++++++++++++++++++*+++++++++++=",
"=+++++++*+++++X+++++++++++++++++++**+++++++++++++++++++++++++++=",
"=++++++++++++++++++++++++++++++++++++++++++++++++++++++++++++++=",
"=++++++++++++++++++++++++++++++++++++++++++++++X+++++++++++++++=",
"=+++*++++++++                                   +++++X+++++++++=",
"=+++++++X+++* ;;%%%%%%%%%%%%%%%%%%%%%%%%%%%%$Oo +++++++++*+++++=",
"=++++++++++++ ;;%%%%%%%%%%%%%%%%%%%%%%%%%%%%$Oo ++++++++**+++++=",
"=++++++++++++ ;;%%%%%%%%%%%%%%%%%%%%%%%%%%%%$Oo +++++++++++++++=",
"=+++++++*++++ ;;%%%%%%%%%%%%%%%%%%%%%%%%%%%%$Oo ++++*++++++++++=",
"=++++++++++++ ;;%%%%%%%%%%%%%%%%%%%%%%%%%%%%$Oo +++++++++++++++=",
"=+++X++++++X+ ;;%%%%%%%%%%%%%%%%%%%%%%%%%%%%$Oo +X+++++++++++++=",
"=+++++++*++++ ;;%%%%%%%%%%%%%%%%%%%%%%%%%%%%$Oo +++++++++++++++=",
"=++++++++++++ ;;%%%%%%%%%%%%%%%%%%%%%%%%%%%%          +++++++++=",
"=++++++++++++ ;;%%%%%%%%%%%%%%%%%%%%%%%%%%% %%%%%%%%%% ++++X+++=",
"=++++++*+++++ ;;%%%%%%%%%%%%%%%%%%%%%%%%%% %%%%%%%%%%%% +++++++=",
"=++++++++++++ ;;%%%%%%%%%%%%%%%%%%%%%%%%%%%%%%%%%%%%%%%% ++++++=",
"=++++++++++++ ;;%%%%%%%%%%%%%%%%%%%%%%%%%%%%%%    %%%%%% ++++++=",
"=+++*+++++X++ ;;%%%%%%%%%%%%%%%%%%%%%%%%%%%%% o ++ %%%%% ++++++=",
"=++++++++++++ ;;%%%%%%%%%%%%%%%%%%%%%%%%%%%% Oo +++ %%%% ++++++=",
"=++++++++++++ ;;%%%%%%%%%%%%%%%%%%%%%%%%%%%%$Oo +++ %%%% ++++X+=",
"=++++++++++++ ;;%%%%%%%%%%%%%%%%%%%%%%%%%%%%$Oo X++ %%%% ++++++=",
"=++++++++++++ ;;%%%%%%%%%%%%%%%%%%%%%%%%%%%%$Oo +++ %%%% ++++++=",
"=+++++++++X++ ;;%%%%%%%%%%%%%%%%%%%%%%%%%%%%$Oo +++ %%%% ++++++=",
"=+++++++++.++ ;;%%%%%%%%%%%%%%%%%%%%%%%%%%%%$Oo +++ %%%% ++++++=",
"=+++*++++++++ ;;%%%%%%%%%%%%%%%%%%%%%%%%%%%%$Oo *++ %%%% +++*++=",
"=+++*++++++++ ;;%%%%%%%%%%%%%%%%%%%%%%%%%%%%$Oo +++ %%%% ++++++=",
"=++++++++++++ ;;%%%%%%%%%%%%%%%%%%%%%%%%%%%%$Oo +++ %%%% ++++++=",
"=++++++++++++ ;;%%%%%%%%%%%%%%%%%%%%%%%%%%%%$Oo +++ %%%% *+++++=",
"=++++++++*+++ ;;%%%%%%%%%%%%%%%%%%%%%%%%%%%%$Oo +++ %%%% *+++++=",
"=++++++++++++ ;;%%%%%%%%%%%%%%%%%%%%%%%%%%%%$Oo +++ %%%% ++++++=",
"=++++++++++X+ ;;%%%%%%%%%%%%%%%%%%%%%%%%%%%%$Oo +++ %%%% ++++*+=",
"=++++++++++#+ ;;%%%%%%%%%%%%%%%%%%%%%%%%%%%%$Oo +++ %%%% ++++++=",
"=++++++++++++ ;;%%%%%%%%%%%%%%%%%%%%%%%%%%%% Oo +++ %%%% ++++++=",
"=+*++++++++++ ;;%%%%%%%%%%%%%%%%%%%%%%%%%%%%% o ++ %%%%% ++++++=",
"=++++++++++++ ;;%%%%%%%%%%%%%%%%%%%%%%%%%%%%%%    %%%%%% ++++++=",
"=+++++++X++** ;;%%%%%%%%%%%%%%%%%%%%%%%%%%%%%%%%%%%%%%%% +*++++=",
"=++++++++++*+ ;;%%%%%%%%%%%%%%%%%%%%%%%%%% %%%%%%%%%%%% +++++++=",
"=++++++++++++ ;;%%%%%%%%%%%%%%%%%%%%%%%%%%% %%%%%%%%%% ++++++++=",
"=++++++++++++ ;;%%%%%%%%%%%%%%%%%%%%%%%%%%%%          +++++++++=",
"=+++*++X+++++ ;;%%%%%%%%%%%%%%%%%%%%%%%%%%%%$Oo +++++++++++++++=",
"=++++++++++++ ;;%%%%%%%%%%%%%%%%%%%%%%%%%%%%$Oo ++++++++++++++X=",
"=+++++++++*++ ;;%%%%%%%%%%%%%%%%%%%%%%%%%%%%$Oo ++*+++++X++++++=",
"=++++++++++++ ;;%%%%%%%%%%%%%%%%%%%%%%%%%%%%$Oo ++++++*++++++++=",
"=+++++++++++++ &$$$$$$$$$$$$$$$$$$$$$$$$$$$$Oo +++X+++*++++++++=",
"=+*++++++++++++ OOOOOOOOOOOOOOOOOOOOOOOOOOOOo +++++++++++*+++++=",
"=+++++++++++++++ ooooooooooooooooooooooooooo ++++++++++++++++++=",
"=+++++++X++++++X+                           +++++++++++++++++++=",
"=++++++++++++XXX++++++++++++++++++++++++++++++++*X+++++++++++++=",
"=+++++++++++++++++++++++++++++++++++++++*+++++++*+++++*++++++++=",
"=++++++++++++++++++++++*+++++++++*++++++*++++X++**@++++++++++++=",
"=++++++++++++++++++++++++++++++++*@++++++*+++X+++++*++++++*++*+=",
"=++++++++*++++++*@++++++++*++*+++++++++++++++X+++++++++++++++++=",
"=++*++**++++++++*+++++++++++++++++++++++++*++++++++++++++++++++=",
"=+++++++++++++++*+++*+++X+++++++++++++++++++++++X+++*++++++++X+=",
"=+++++++++++++++++++*+++X+++++*+++++++++++++++++++++*++++X+++++=",
"=++++++++++++++++++++++++++++++++++++++++++++++++++++++++++++++=",
"================================================================"
};
