/* XPM */
static char *result[] = {
/* columns rows colors chars-per-pixel */
"64 64 8 1 ",
"  c black",
". c #003952",
"X c #015276",
"o c gray33",
"O c #0276AA",
"+ c #03A9F4",
"@ c #4E9FC3",
"# c #84D5F9",
/* pixels */
"oooooooooooooooooooooooooooooooooooooooooooooooooooooooooooooooo",
"oooooooooooooooooooooooooooooooooooooooooooooooooooooooooooooooo",
"oooooooooooooooooooooooooooooooooooooooooooooooooooooooooooooooo",
"oooooooooooooooooooooooooooooooooooooooooooooooooooooooooooooooo",
"oooooooooooooooooooooooooooooooooooooooooooooooooooooooooooooooo",
"oooooooooooooooooooooooooooooooooooooooooooooooooooooooooooooooo",
"oooooooooooooooooooooooooooooooooooooooooooooooooooooooooooooooo",
"oooooooooooooooooooooooooooooooooooooooooooooooooooooooooooooooo",
"oooooooooooooooooooooooooooooooooooooooooooooooooooooooooooooooo",
"oooooooooooooooooooooooooooooooooooooooooooooooooooooooooooooooo",
"oooooooooooooooooooooooooooooooooooooooooooooooooooooooooooooooo",
"ooooooooooooo                                   oooooooooooooooo",
"ooooooooooooo ##++++++++++++++++++++++++++++OX. oooooooooooooooo",
"ooooooooooooo ##++++++++++++++++++++++++++++OX. oooooooooooooooo",
"ooooooooooooo ##++++++++++++++++++++++++++++OX. oooooooooooooooo",
"ooooooooooooo ##++++++++++++++++++++++++++++OX. oooooooooooooooo",
"ooooooooooooo ##++++++++++++++++++++++++++++OX. oooooooooooooooo",
"ooooooooooooo ##++++++++++++++++++++++++++++OX. oooooooooooooooo",
"ooooooooooooo ##++++++++++++++++++++++++++++OX. oooooooooooooooo",
"ooooooooooooo ##++++++++++++++++++++++++++++          oooooooooo",
"ooooooooooooo ##+++++++++++++++++++++++++++ ++++++++++ ooooooooo",
"ooooooooooooo ##++++++++++++++++++++++++++ ++++++++++++ oooooooo",
"ooooooooooooo ##++++++++++++++++++++++++++++++++++++++++ ooooooo",
"ooooooooooooo ##++++++++++++++++++++++++++++++    ++++++ ooooooo",
"ooooooooooooo ##+++++++++++++++++++++++++++++ . oo +++++ ooooooo",
"ooooooooooooo ##++++++++++++++++++++++++++++ X. ooo ++++ ooooooo",
"ooooooooooooo ##++++++++++++++++++++++++++++OX. ooo ++++ ooooooo",
"ooooooooooooo ##++++++++++++++++++++++++++++OX. ooo ++++ ooooooo",
"ooooooooooooo ##++++++++++++++++++++++++++++OX. ooo ++++ ooooooo",
"ooooooooooooo ##++++++++++++++++++++++++++++OX. ooo ++++ ooooooo",
"ooooooooooooo ##++++++++++++++++++++++++++++OX. ooo ++++ ooooooo",
"ooooooooooooo ##++++++++++++++++++++++++++++OX. ooo ++++ ooooooo",
"ooooooooooooo ##++++++++++++++++++++++++++++OX. ooo ++++ ooooooo",
"ooooooooooooo ##++++++++++++++++++++++++++++OX. ooo ++++ ooooooo",
"ooooooooooooo ##++++++++++++++++++++++++++++OX. ooo ++++ ooooooo",
"ooooooooooooo ##++++++++++++++++++++++++++++OX. ooo ++++ ooooooo",
"ooooooooooooo ##++++++++++++++++++++++++++++OX. ooo ++++ ooooooo",
"ooooooooooooo ##++++++++++++++++++++++++++++OX. ooo ++++ ooooooo",
"ooooooooooooo ##++++++++++++++++++++++++++++OX. ooo ++++ ooooooo",
"ooooooooooooo ##++++++++++++++++++++++++++++ X. ooo ++++ ooooooo",
"ooooooooooooo ##+++++++++++++++++++++++++++++ . oo +++++ ooooooo",
"ooooooooooooo ##++++++++++++++++++++++++++++++    ++++++ ooooooo",
"ooooooooooooo ##++++++++++++++++++++++++++++++++++++++++ ooooooo",
"ooooooooooooo ##++++++++++++++++++++++++++ ++++++++++++ oooooooo",
"ooooooooooooo ##+++++++++++++++++++++++++++ ++++++++++ ooooooooo",
"ooooooooooooo ##++++++++++++++++++++++++++++          oooooooooo",
"ooooooooooooo ##++++++++++++++++++++++++++++OX. oooooooooooooooo",
"ooooooooooooo ##++++++++++++++++++++++++++++OX. oooooooooooooooo",
"ooooooooooooo ##++++++++++++++++++++++++++++OX. oooooooooooooooo",
"ooooooooooooo ##++++++++++++++++++++++++++++OX. oooooooooooooooo",
"oooooooooooooo @OOOOOOOOOOOOOOOOOOOOOOOOOOOOX. ooooooooooooooooo",
"ooooooooooooooo XXXXXXXXXXXXXXXXXXXXXXXXXXXX. oooooooooooooooooo",
"oooooooooooooooo ........................... ooooooooooooooooooo",
"ooooooooooooooooo                           oooooooooooooooooooo",
"oooooooooooooooooooooooooooooooooooooooooooooooooooooooooooooooo",
"oooooooooooooooooooooooooooooooooooooooooooooooooooooooooooooooo",
"oooooooooooooooooooooooooooooooooooooooooooooooooooooooooooooooo",
"oooooooooooooooooooooooooooooooooooooooooooooooooooooooooooooooo",
"oooooooooooooooooooooooooooooooooooooooooooooooooooooooooooooooo",
"oooooooooooooooooooooooooooooooooooooooooooooooooooooooooooooooo",
"oooooooooooooooooooooooooooooooooooooooooooooooooooooooooooooooo",
"oooooooooooooooooooooooooooooooooooooooooooooooooooooooooooooooo",
"oooooooooooooooooooooooooooooooooooooooooooooooooooooooooooooooo",
"oooooooooooooooooooooooooooooooooooooooooooooooooooooooooooooooo"
};
