/* XPM */
static char *result[] = {
/* columns rows colors chars-per-pixel */
"64 64 8 1 ",
"  c #282828",
". c #3A3A3A",
"X c gray33",
"o c gray37",
"O c gray46",
"+ c gray53",
"@ c gray63",
"# c gray67",
/* pixels */
"@@@@@@@@@@@@@@@@@@@@@@@@@@@@@@@@@@@@@@@@@@@@@@@@@@@@@@@@@@@@@@@@",
"@XXXXXXXXXXXXXXXXXXXXXXXXXXXXXXXXXXXXXXXXXXXXXXXXXXXXXXXXXXXXXX@",
"@XXXXXXXXXXXXXXXXXXXXXXXXXXXXXXXXXXXXXXXXXXXXXXXXXXXXXXXXXXXXXX@",
"@XXXXXXXXXXXXXXXXXXXXXXXXXXXXXXXXX.XXXXXXXXXXX.XXX.XXX.XXXXXXXX@",
"@XXXXXXXXXX++XXXXXXXXXXXXXXX.XXXXXXXXXXXXXXXXXXXXXXXXXXXXXXXXXX@",
"@XXXX+XXXXXXXXXXXXXXXX+XXXXXXXXXXXXXXXXXXXXXXXXXXXXXXXXXXXXXXXX@",
"@XXXXXXXXXXXXXXXXX.XXXXXXXXXXXXXXXXXXXXX++XXXXXXXXX+XXXXXX#XXXX@",
"@XXXXXXXXXXXXXXXXXXX+XXXXXXX..XXXXXXXXXXXXXXXXXXXXX+XXXXXXXXXXX@",
"@XXXXXXX+XXXXX.XXXXXXXXXXXXXXXXXXX++XXXXXXXXXXXXXXXXXXXXXXXXXXX@",
"@XXXXXXXXXXXXXXXXXXXXXXXXXXXXXXXXXXXXXXXXXXXXXXXXXXXXXXXXXXXXXX@",
"@XXXXXXXXXXXXXXXXXXXXXXXXXXXXXXXXXXXXXXXXXXXXXX.XXXXXXXXXXXXXXX@",
"@XXX+XXXXXXXXXXXXXXXXXXXXXXXXXXXXXXXXXXXXX.XXXX.XXXXX.XXXXXXXXX@",
"@XXXXXXX.XXX++XXXX+XXXXX.XXXXXXX+XXXXXXXXXXXXXXXXXXXXXXXX+XXXXX@",
"@XXXXXXXXXXXXXXXXXXXXXXXXXXXXXXXXXXXXXXXXXXXXXXXXXXXXXXX++XXXXX@",
"@XXXXXXXXXXXXXXXXXXXXXXXXXXXXXXXXXXXXXXXXXXXXXXXXXXXXXXXXXXXXXX@",
"@XXXXXXX+XXXXXXXXXXXXOXXXXXXXXXXXX.XXXXXXXXXXXXXXXXX+XXXXXXXXXX@",
"@XXXXXXXXXXXXXXXXXXXXXXXXXXXXXXXXXXXXXXX+XXXXXXXXXXXXXXXXXXXXXX@",
"@XXX.XXXXXX.XXXX+XXXXXXX+XX+XXXXXXXXXXXXXXXXXXXXX.XXXXXXXXXXXXX@",
"@XXXXXXX+XXXXXXXXXXXXXXXXXXXXXXX.XXXXXXXXXXXXXXXXXXXXXXXXXXXXXX@",
"@XXXXXXXXXXXXXXXXXXXXXXXXXXXXXXXXXXXXXXX.XXXXXXXXXXXXXXXXXXXXXX@",
"@XXXXXXXXXXXXOXXXXXXXXXXXXXXXXXXXXXXXXXXXXXX+XXXXXXXXXXXXXX.XXX@",
"@XXXXXX+XXXXXXX+XXXXXXXXXXXXXXXXXXXXXXXXXXXXXXXXXXXXXXXXXXXXXXX@",
"@XXXXXXXXXXXXXXXXXXXXX.XXXXXXXXXX+XXXXXXXXXXXXXXXXXX.XXXXXXXXXX@",
"@XXXXXXXXXXXXXXXXXXXXXXXXX+XXXXXXXXXXXXXXXXXXXXXXXXXXXXXXXXXXXX@",
"@XXX+XXXXX.XXXXXXXXXXXXXXXXXXXXXXXXXXXX+XXXXXXXXXXXXXXXX+XXXXXX@",
"@XXXXXXXXXXXXXXXXXX+XXXXXXXX+XXXXXXXXXXXXXXXXXXXXXXXXXXXXXXXXXX@",
"@XXXXXXXXXXXXXXXXXXXXXXXXXXXXXXXXXXXXXXXXXXXX.XXXXXXXXXXXXXXX.X@",
"@XXXXXXXXXXXXXXXXXXXXXXXXXXXXXXXX++XXXXXXXXXXXXX.XXXXXXXXXXXXXX@",
"@XXXXXXXXXXXXXXXXXXXXXXXXXXXXXXXXXXXXXXXXXXXXXXXXXXXXXXXXXXXXXX@",
"@XXXXXXXXX.XXX.XXXXXXXXXXX+XXXXXXXXXXXXX.XXXXXXXXXX..XXXXXXXXXX@",
"@XXXXXXXXX XXXXXXXXXXXXXXXXXXXXXXXXXXXXX..XXXXXXXXXXXXXXXXXXXXX@",
"@XXX+XXXXXXXXXXXXXXXXXXXXXXXXXXXXXXXXXXXXXXXXXXX+XXXXXXXXXXX+XX@",
"@XXX+XXXXXXXX+XXXXXXXX+XXXXXXXXXXXXXXXXXXXXXXXXXXXXXXXXXXXXXXXX@",
"@XXXXXXXXXXXXXXXXXX+XXXXXXXXXXX+XXXXXXXXXXXXXXXXXXXXXXXXXXXXXXX@",
"@XXXXXXXXXXXXXXXXXXXXXXXXXXXXXXXXXXXXXXXXXXXXXXXXXXXXXXXX+XXXXX@",
"@XXXXXXXX+XXXXXXXXXXXXXXXXX+XXXXXXXXXXXXXXX.XXXXXXXXXXXXX+XXXXX@",
"@XXXXXXXXXXXXXXXXXXXXXXXXXXXXXXXXXXXXXXXXXXXXXXXXXXXXXXXXXXXXXX@",
"@XXXXXXXXXX.XXX.XXXXXXXXXXXXXXXXXXXXXXXX+XXXXXXXXXXXXXXXXXXXX+X@",
"@XXXXXXXXXXOXXXXXXXXXXXXXXXXXXXXXXXXXXXXXXXXXXXXXXXXXXXXXXXXXXX@",
"@XXXXXXXXXXXXXXXXXXXXX.XXXXXXXXXXX+XXXXXXXXXXXXXXXXXXXXXXXXXXXX@",
"@X+XXXXXXXXXXXXXXX.XXXXXXXXXXXXXXXXXXXXXXXXXXXXXXXX+XXXXXXXXXXX@",
"@XXXXXXXXXXXXXXXXXXXXXXXXXXXXXXXXXXXXXXXXXXXX+XXXXX+XXXXXXXXXXX@",
"@XXXXXXX.XX++XXXXXXXXXXXXXXXXXXXXXXXXXXXXXXXXXXXXXXXXXXXXX+XXXX@",
"@XXXXXXXXXX+XXXXX+XXX+XXXX.XXXXXXXXXXXXXXXXXXXXXXXXXXXXXXXXXXXX@",
"@XXXXXXXXXXXXXXXXXXXXXXXXXXXXXXXX.XXXXXXX.XXXXXXXXXXXXXXXXXXXXX@",
"@XXXXXXXXXXXXXXXXXXXXXXXXXXXXXXXX.XXXXXXXXX.XXXX.XXXXXXXXXXXXXX@",
"@XXX+XX.XXXXXXXXXXXXXXXXXXXXXXXXXXXXXXXXXXXXXXXXXXXXXXXXXXXXXXX@",
"@XXXXXXXXXXXXXXXXXXXXXXXXXXXXXXXXXXXXXXXXXXXXXXXXXXXXXXXXXXXXX.@",
"@XXXXXXXXX+XXXXXXXXXXXXXXXXXXXXXXXXXXXXXXXXXXXXXXX+XXXXX.XXXXXX@",
"@XXXXXXXXXXXXXXXXXX+XXXXXXXX+XXXXXXXXXXXXXXXXXXXXXXXXX+XXXXXXXX@",
"@XXXXXXXXXXXXXXXXXXXXXXX.XXXXXXXXXXXXXXXXXXX+XXXXX.XXX+XXXXXXXX@",
"@X+XXXXXXXXXXXXX+XXXXXXXXXXXXXXXXXXXXXX+XXXXXXXXXXXXXXXXX+XXXXX@",
"@XXXXXXXXXXXXXXXXXXXX+XXXXXXXXXXXXX+XXXXXXXXXXXXXXXXXXXXXXXXXXX@",
"@XXXXXXX.XXXXXX.XXXXXXXXXXXX+XXXXXXXXXXXXXXXXXXXXXXXXXXXXXXXXXX@",
"@XXXXXXXXXXXX...XXXXXXXXXXXXXXXXXXXXXXXXXXXXXXXX+.XXXXXXXXXXXXX@",
"@XXXXXXXXXXXXXXXXXXXXXXXXXXXXXXXXXXXXXXX+XXXXXXX+XXXXX+XXXXXXXX@",
"@XXXXXXXXXXXXXXXXXXXXXX+XXXXXXXXX+XXXXXX+XXXX.XX++oXXXXXXXXXXXX@",
"@XXXXXXXXXXXXXXXXXXXXXXXXXXXXXXXX+oXXXXXX+XXX.XXXXX+XXXXXX+XX+X@",
"@XXXXXXXX+XXXXXX+oXXXXXXXX+XX+XXXXXXXXXXXXXXX.XXXXXXXXXXXXXXXXX@",
"@XX+XX++XXXXXXXX+XXXXXXXXXXXXXXXXXXXXXXXXX+XXXXXXXXXXXXXXXXXXXX@",
"@XXXXXXXXXXXXXXX+XXX+XXX.XXXXXXXXXXXXXXXXXXXXXXX.XXX+XXXXXXXX.X@",
"@XXXXXXXXXXXXXXXXXXX+XXX.XXXXX+XXXXXXXXXXXXXXXXXXXXX+XXXX.XXXXX@",
"@XXXXXXXXXXXXXXXXXXXXXXXXXXXXXXXXXXXXXXXXXXXXXXXXXXXXXXXXXXXXXX@",
"@@@@@@@@@@@@@@@@@@@@@@@@@@@@@@@@@@@@@@@@@@@@@@@@@@@@@@@@@@@@@@@@"
};
