/* XPM */
static char *result[] = {
/* columns rows colors chars-per-pixel */
"64 64 3 1 ",
"  c gray47",
". c #D4D2D4",
"X c gray83",
/* pixels */
"....X...X...X...X...X...X...X...X...X...X...X...X...X...X...X...",
".   X   X   X   X   X   X   X   X   X   X   X   X   X   X   X  .",
".   X   X   X   X   X   X   X   X   X   X   X   X   X   X   X  .",
".   X   X   X   X   X   X   X   X   X   X   X   X   X   X   X  .",
"XXXXXXXXXXXXXXXXXXXXXXXXXXXXXXXXXXXXXXXXXXXXXXXXXXXXXXXXXXXXXXXX",
".   X   X   X   X   X   X   X   X   X   X   X   X   X   X   X  .",
".   X   X   X   X   X   X   X   X   X   X   X   X   X   X   X  .",
".   X   X   X   X   X   X   X   X   X   X   X   X   X   X   X  .",
"XXXXXXXXXXXXXXXXXXXXXXXXXXXXXXXXXXXXXXXXXXXXXXXXXXXXXXXXXXXXXXXX",
".   X   X   X   X   X   X   X   X   X   X   X   X   X   X   X  .",
".   X   X   X   X   X   X   X   X   X   X   X   X   X   X   X  .",
".   X   X   X   X   X   X   X   X   X   X   X   X   X   X   X  .",
"XXXXXXXXXXXXXXXXXXXXXXXXXXXXXXXXXXXXXXXXXXXXXXXXXXXXXXXXXXXXXXXX",
".   X   X   X   X   X   X   X   X   X   X   X   X   X   X   X  .",
".   X   X   X   X   X   X   X   X   X   X   X   X   X   X   X  .",
".   X   X   X   X   X   X   X   X   X   X   X   X   X   X   X  .",
"XXXXXXXXXXXXXXXXXXXXXXXXXXXXXXXXXXXXXXXXXXXXXXXXXXXXXXXXXXXXXXXX",
".   X   X   X   X   X   X   X   X   X   X   X   X   X   X   X  .",
".   X   X   X   X   X   X   X   X   X   X   X   X   X   X   X  .",
".   X   X   X   X   X   X   X   X   X   X   X   X   X   X   X  .",
"XXXXXXXXXXXXXXXXXXXXXXXXXXXXXXXXXXXXXXXXXXXXXXXXXXXXXXXXXXXXXXXX",
".   X   X   X   X   X   X   X   X   X   X   X   X   X   X   X  .",
".   X   X   X   X   X   X   X   X   X   X   X   X   X   X   X  .",
".   X   X   X   X   X   X   X   X   X   X   X   X   X   X   X  .",
"XXXXXXXXXXXXXXXXXXXXXXXXXXXXXXXXXXXXXXXXXXXXXXXXXXXXXXXXXXXXXXXX",
".   X   X   X   X   X   X   X   X   X   X   X   X   X   X   X  .",
".   X   X   X   X   X   X   X   X   X   X   X   X   X   X   X  .",
".   X   X   X   X   X   X   X   X   X   X   X   X   X   X   X  .",
"XXXXXXXXXXXXXXXXXXXXXXXXXXXXXXXXXXXXXXXXXXXXXXXXXXXXXXXXXXXXXXXX",
".   X   X   X   X   X   X   X   X   X   X   X   X   X   X   X  .",
".   X   X   X   X   X   X   X   X   X   X   X   X   X   X   X  .",
".   X   X   X   X   X   X   X   X   X   X   X   X   X   X   X  .",
"XXXXXXXXXXXXXXXXXXXXXXXXXXXXXXXXXXXXXXXXXXXXXXXXXXXXXXXXXXXXXXXX",
".   X   X   X   X   X   X   X   X   X   X   X   X   X   X   X  .",
".   X   X   X   X   X   X   X   X   X   X   X   X   X   X   X  .",
".   X   X   X   X   X   X   X   X   X   X   X   X   X   X   X  .",
"XXXXXXXXXXXXXXXXXXXXXXXXXXXXXXXXXXXXXXXXXXXXXXXXXXXXXXXXXXXXXXXX",
".   X   X   X   X   X   X   X   X   X   X   X   X   X   X   X  .",
".   X   X   X   X   X   X   X   X   X   X   X   X   X   X   X  .",
".   X   X   X   X   X   X   X   X   X   X   X   X   X   X   X  .",
"XXXXXXXXXXXXXXXXXXXXXXXXXXXXXXXXXXXXXXXXXXXXXXXXXXXXXXXXXXXXXXXX",
".   X   X   X   X   X   X   X   X   X   X   X   X   X   X   X  .",
".   X   X   X   X   X   X   X   X   X   X   X   X   X   X   X  .",
".   X   X   X   X   X   X   X   X   X   X   X   X   X   X   X  .",
"XXXXXXXXXXXXXXXXXXXXXXXXXXXXXXXXXXXXXXXXXXXXXXXXXXXXXXXXXXXXXXXX",
".   X   X   X   X   X   X   X   X   X   X   X   X   X   X   X  .",
".   X   X   X   X   X   X   X   X   X   X   X   X   X   X   X  .",
".   X   X   X   X   X   X   X   X   X   X   X   X   X   X   X  .",
"XXXXXXXXXXXXXXXXXXXXXXXXXXXXXXXXXXXXXXXXXXXXXXXXXXXXXXXXXXXXXXXX",
".   X   X   X   X   X   X   X   X   X   X   X   X   X   X   X  .",
".   X   X   X   X   X   X   X   X   X   X   X   X   X   X   X  .",
".   X   X   X   X   X   X   X   X   X   X   X   X   X   X   X  .",
"XXXXXXXXXXXXXXXXXXXXXXXXXXXXXXXXXXXXXXXXXXXXXXXXXXXXXXXXXXXXXXXX",
".   X   X   X   X   X   X   X   X   X   X   X   X   X   X   X  .",
".   X   X   X   X   X   X   X   X   X   X   X   X   X   X   X  .",
".   X   X   X   X   X   X   X   X   X   X   X   X   X   X   X  .",
"XXXXXXXXXXXXXXXXXXXXXXXXXXXXXXXXXXXXXXXXXXXXXXXXXXXXXXXXXXXXXXXX",
".   X   X   X   X   X   X   X   X   X   X   X   X   X   X   X  .",
".   X   X   X   X   X   X   X   X   X   X   X   X   X   X   X  .",
".   X   X   X   X   X   X   X   X   X   X   X   X   X   X   X  .",
"XXXXXXXXXXXXXXXXXXXXXXXXXXXXXXXXXXXXXXXXXXXXXXXXXXXXXXXXXXXXXXXX",
".   X   X   X   X   X   X   X   X   X   X   X   X   X   X   X  .",
".   X   X   X   X   X   X   X   X   X   X   X   X   X   X   X  .",
"....X.......X...X...X...X...X...X.......X...X...X...X.......X..."
};
