/* XPM */
static char *result[] = {
/* columns rows colors chars-per-pixel */
"64 64 4 1 ",
"  c black",
". c gray33",
"X c #D4D2D4",
"o c gray83",
/* pixels */
"                                                                ",
" oooooooooooooooooooooooooooooooooooooooooooooooooooooooooooooo ",
" oo.....o.......o.......o.......o.......o.......o.......o....oo ",
" oo.....o.......o.......o.......o.......o.......o.......o....oo ",
" oo.....o.......o.......o.......o.......o.......o.......o....oo ",
" oo.....o.......o.......o.......o.......o.......o.......o....oo ",
" oo.....o.......o.......o.......o.......o.......o.......o....oo ",
" oo.....o.......o.......o.......o.......o.......o.......o....oo ",
" oooooooooooooooooooooooooooooooooooooooooooooooooooooooooooooo ",
" oo.....o.......o.......o.......o.......o.......o.......o....oo ",
" oo.....o.......o.......o.......o.......o.......o.......o....oo ",
" oo.....o.......o.......o.......o.......o.......o.......o....oo ",
" oo.....o.......o.......o.......o.......o.......o.......o....oo ",
" oo.....o.......o.......o.......o.......o.......o.......o....oo ",
" oo.....o.......o.......o.......o.......o.......o.......o....oo ",
" oo.....o.......o.......o.......o.......o.......o.......o....oo ",
" oooooooooooooooooooooooooooooooooooooooooooooooooooooooooooooo ",
" oo.....o.......o.......o.......o.......o.......o.......o....oo ",
" oo.....o.......o.......o.......o.......o.......o.......o....oo ",
" oo.....o.......o.......o.......o.......o.......o.......o....oo ",
" oo.....o.......o.......o.......o.......o.......o.......o....oo ",
" oo.....o.......o.......o.......o.......o.......o.......o....oo ",
" oo.....o.......o.......o.......o.......o.......o.......o....oo ",
" oo.....o.......o.......o.......o.......o.......o.......o....oo ",
" oooooooooooooooooooooooooooooooooooooooooooooooooooooooooooooo ",
" oo.....o.......o.......o.......o.......o.......o.......o....oo ",
" oo.....o.......o.......o.......o.......o.......o.......o....oo ",
" oo.....o.......o.......o.......o.......o.......o.......o....oo ",
" oo.....o.......o.......o.......o.......o.......o.......o....oo ",
" oo.....o.......o.......o.......o.......o.......o.......o....oo ",
" oo.....o.......o.......o.......o.......o.......o.......o....oo ",
" oo.....o.......o.......o.......o.......o.......o.......o....oo ",
" ooXoXXXoXXXoXXXoXXXoXXXoXXXoXXXoXXXoXXXoXXXoXXXoXXXoXXXoXXXooo ",
" oo.....o.......o.......o.......o.......o.......o.......o....oo ",
" oo.....o.......o.......o.......o.......o.......o.......o....oo ",
" oo.....o.......o.......o.......o.......o.......o.......o....oo ",
" oo.....o.......o.......o.......o.......o.......o.......o....oo ",
" oo.....o.......o.......o.......o.......o.......o.......o....oo ",
" oo.....o.......o.......o.......o.......o.......o.......o....oo ",
" oo.....o.......o.......o.......o.......o.......o.......o....oo ",
" oooooooooooooooooooooooooooooooooooooooooooooooooooooooooooooo ",
" oo.....o.......o.......o.......o.......o.......o.......o....oo ",
" oo.....o.......o.......o.......o.......o.......o.......o....oo ",
" oo.....o.......o.......o.......o.......o.......o.......o....oo ",
" oo.....o.......o.......o.......o.......o.......o.......o....oo ",
" oo.....o.......o.......o.......o.......o.......o.......o....oo ",
" oo.....o.......o.......o.......o.......o.......o.......o....oo ",
" oo.....o.......o.......o.......o.......o.......o.......o....oo ",
" oooooooooooooooooooooooooooooooooooooooooooooooooooooooooooooo ",
" oo.....o.......o.......o.......o.......o.......o.......o....oo ",
" oo.....o.......o.......o.......o.......o.......o.......o....oo ",
" oo.....o.......o.......o.......o.......o.......o.......o....oo ",
" oo.....o.......o.......o.......o.......o.......o.......o....oo ",
" oo.....o.......o.......o.......o.......o.......o.......o....oo ",
" oo.....o.......o.......o.......o.......o.......o.......o....oo ",
" oo.....o.......o.......o.......o.......o.......o.......o....oo ",
" oooooooooooooooooooooooooooooooooooooooooooooooooooooooooooooo ",
" oo.....o.......o.......o.......o.......o.......o.......o....oo ",
" oo.....o.......o.......o.......o.......o.......o.......o....oo ",
" oo.....o.......o.......o.......o.......o.......o.......o....oo ",
" oo.....o.......o.......o.......o.......o.......o.......o....oo ",
" oo.....o.......o.......o.......o.......o.......o.......o....oo ",
" oooooooooooooooooooooooooooooooooooooooooooooooooooooooooooooo ",
"                                                                "
};
