/* XPM */
static char *_a75bd03534847398f1309152cc6a725Zr9PVkV0Z76LujyD[] = {
/* columns rows colors chars-per-pixel */
"64 64 27 1 ",
"  c black",
". c #131313",
"X c #282828",
"o c #312922",
"O c #353330",
"+ c #3A3A3A",
"@ c #573223",
"# c #473C31",
"$ c #2E354C",
"% c #484848",
"& c gray30",
"* c gray33",
"= c #5D5D5D",
"- c #424C6E",
"; c #6F6F6F",
": c gray46",
"> c gray50",
", c #9C5A3C",
"< c #896F65",
"1 c #BA8B76",
"2 c gray53",
"3 c #8B8B8B",
"4 c #8E8E8E",
"5 c gray63",
"6 c #F6CA9F",
"7 c #B7E4F0",
"8 c #C7CFDD",
/* pixels */
"5555555555555555555555                                    .....5",
"5********************* 44444444444444444444444444=============.5",
"5********************* 44444444444444444444444================.5",
"5********************* 44444444444444444444444================.5",
"5**********22********* 44444444444444444444444444=============.5",
"5****2**************** 44444444444444444444444444=============.5",
"5*****************+*** 44444444444444444444444444=============.5",
"5*******************2*                                  ======.5",
"5*******2*****+*********** $ &%%%% %%%%%%%%%%%%%%%%%% ========.5",
"5************************ $$$ %%%% %%%%%%%%%%;%%%%%%% =444====.5",
"5************************ --$ %%%% %>>>>>>>>>>%%%%%% ==444====.5",
"5***2******************** --$                       ==4444====.5",
"5*******+***22****2*****+ --$ 66666666666666666666 ==44444====.5",
"5************************ --$ 66666666666666666666 =444444====.5",
"5************************ --$ 66666666666666666666 =444444====.5",
"5*******2************:****   66666666666666666666 ==444444====.5",
"5************************** 66666666666666666666 ==4444444====.5",
"5***+******+****2*******2**2 666666666666666666 ==44444444====.5",
"5*******2*******************. 6666666666666666 ==444444444====.5",
"5***************************.= 66666666666666 ==4444444444====.5",
"5************:**************.4= 666666666666 ==44444444444====.5",
"5******2*******2************.44=            ==444444444444====.5",
"5*********************+*****.44444444444444444444444444444====.5",
"5*************************2*.44444444444444444444444444444====.5",
"5***2*****+****************                      444444444====.5",
"5******************2****** 7777777778888888888888 44444444====.5",
"5******************    **** 88888888888888888888 444444444====.5",
"5****************  ####      888888888888888888 4444444444====.5",
"5**************  ##########o                    4444444444====.5",
"5*********+*** ######Ooooooo ooooo######ooooooo 4444444444====.5",
"5*********X*** ######o  oooo                    4444444444====.5",
"5***2********* ###ooo **    888888888888888888 44444444444====.5",
"5***2******** ###o   *2***   888888888888888888 4444444444====.5",
"5************ ###o 2*****  888888888888888888888  44444444====.5",
"5************ ###o ***** 8888888888888888888888888 4444444====.5",
"5********2** ####o ***** 7788888888888888888888888 4444444====.5",
"5*********** ####o **** 777778888888888888888888888 444444====.5",
"5**********+ ###o **** 77777788888888888888888888888 44444====.5",
"5**********: ###o **** 77777788888888888888888888888 44444====.5",
"5*********** ###o **** 77777888888888888888888888888 44444====.5",
"5*2********* ###o +** 7777778888888888888888888888888 4444====.5",
"5*********** ###o *** 7777778888888888888888888888888 4444====.5",
"5*******+**2 ###o *** 7777778888888888888888888888888 4444====.5",
"5**********2 ###o *** 7777778888888888888888888888888 4444====.5",
"5*********** ###o *** &&&&                            4444====.5",
"5*********** oooo *** 1111,,,,,,,,,,,,,,,,,,,,,,,,,,, 4444====.5",
"5***2**+*****    **** <<<<@@@@@@@@@@@@@@@@@@@@@@@@@@@ 4444====.5",
"5********************* <<<@@@@@@@@@@@@@@@@@@@@@@@@@@ 44444====.5",
"5*********2*********** <<<@@@@@@@@@@@@@@@@@@@@@@@@@@ 44444====.5",
"5******************2** <<<<@@@@@@@@@@@@@@@@@@@@@@@@@ 44444====.5",
"5********************** <<<@@@@@@@@@@@@@@@@@@@@@@@@ 444444====.5",
"5*2*************2******* <<@@@@@@@@@@@@@@@@@@@@@@@ 4444444====.5",
"5********************2** <<<@@@@@@@@@@@@@@@@@@@@@@ 4444444====.5",
"5*******+******+*********  <@@@@@@@@@@@@@@@@@@@@  44444444====.5",
"5************+++***********  @@@@@@@@@@@@@@@@@@ 4444444444====.5",
"5***************************.  @@@@@@@@@@@@@   44444444444====.5",
"5**********************2****.44   @@@@@@@   44444444444434====.5",
"5***************************.44444       =====================.5",
"5*******                                             =========.5",
"5**2**22 444444444444444444444444444444444444444==============.5",
"5******* 444444444444444444444444444444444444444==============.5",
"5******* 444444444444444444444444444444444444443==============.5",
"5******* 444444444444444444444444444444444444444==============.5",
"55555555                                                  .....5"
};
