/* XPM */
static char *e5616c71e25249289cede806c0ff7e01gZojmCr7WF1wzvWb[] = {
/* columns rows colors chars-per-pixel */
"64 64 212 2 ",
"   c #181718",
".  c #201915",
"X  c #21221F",
"o  c #282525",
"O  c #2C2B2D",
"+  c #322A23",
"@  c #342C29",
"#  c #3C3122",
"$  c #3E322C",
"%  c #333333",
"&  c #3B3735",
"*  c #3D3A39",
"=  c #4C2A21",
"-  c #532E23",
";  c #403422",
":  c #45352C",
">  c #4A392E",
",  c #52322A",
"<  c #443632",
"1  c #463A33",
"2  c #4C3D35",
"3  c #443E3C",
"4  c #4A3C3B",
"5  c #513E36",
"6  c #523F39",
"7  c #4C4037",
"8  c #46423E",
"9  c #4E413B",
"0  c #534235",
"q  c #54443C",
"w  c #5A463B",
"e  c #56483A",
"r  c #5B493E",
"t  c #493D41",
"y  c #444141",
"u  c #4C4643",
"i  c #4E4A45",
"p  c #4E484B",
"a  c #534742",
"s  c #5A4742",
"d  c #544A44",
"f  c #5C4C42",
"g  c #544D4B",
"h  c #5A4D49",
"j  c #5D5145",
"k  c #55554B",
"l  c #54524D",
"z  c #5D514C",
"x  c #5A5351",
"c  c #5B5952",
"v  c #614F44",
"b  c #664E4A",
"n  c #635246",
"m  c #6B5A44",
"M  c #64544A",
"N  c #6A564B",
"B  c #675B4D",
"V  c #6C5A4E",
"C  c #715C46",
"Z  c #70574C",
"A  c #745C4C",
"S  c #7B5B49",
"D  c #615555",
"F  c #6E5652",
"G  c #645A53",
"H  c #6B5B52",
"J  c #645D5B",
"K  c #6D5E5A",
"L  c #725E53",
"P  c #725D5C",
"I  c #6C614F",
"U  c #74644D",
"Y  c #7A634F",
"T  c #616156",
"R  c #6E6353",
"E  c #65625A",
"W  c #6C625B",
"Q  c #746254",
"!  c #7A6555",
"~  c #756956",
"^  c #7B6953",
"/  c #73645B",
"(  c #796458",
")  c #766B5D",
"_  c #7B6B5C",
"`  c #7D715F",
"'  c #6B6463",
"]  c #6D6B63",
"[  c #736561",
"{  c #756962",
"}  c #7B6D62",
"|  c #766C6A",
" . c #7C6E69",
".. c #7D7264",
"X. c #77726C",
"o. c #7C716A",
"O. c #7B786B",
"+. c #776D71",
"@. c #7D7373",
"#. c #7F7873",
"$. c #7D7479",
"%. c #87634B",
"&. c #866756",
"*. c #826D5C",
"=. c #86715C",
"-. c #8D755F",
";. c #94715A",
":. c #816E62",
">. c #8A6F61",
",. c #847363",
"<. c #8A7465",
"1. c #867967",
"2. c #8B7A65",
"3. c #83746B",
"4. c #89776C",
"5. c #85796B",
"6. c #8B7B6C",
"7. c #9A7B67",
"8. c #917D6E",
"9. c #827672",
"0. c #847A74",
"q. c #8B7D74",
"w. c #847B7B",
"e. c #887E79",
"r. c #917D71",
"t. c #8B806F",
"y. c #93846B",
"u. c #8D8275",
"i. c #8D837B",
"p. c #8A877A",
"a. c #938474",
"s. c #93857B",
"d. c #988679",
"f. c #948A7C",
"g. c #9B8C7D",
"h. c #9B927F",
"j. c #A18574",
"k. c #A38977",
"l. c #A18F7D",
"z. c #887F84",
"x. c #8B8383",
"c. c #8E8984",
"v. c #908681",
"b. c #948A83",
"n. c #9B8C82",
"m. c #958D8B",
"M. c #9A8E8B",
"N. c #979486",
"B. c #9C9283",
"V. c #979088",
"C. c #9C948B",
"Z. c #9E9A8E",
"A. c #978E93",
"S. c #9C9594",
"D. c #9F9995",
"F. c #9C9699",
"G. c #9E9899",
"H. c #A28F84",
"J. c #A29585",
"K. c #A59884",
"L. c #A3968A",
"P. c #A49A8C",
"I. c #AA9C8D",
"U. c #A29691",
"Y. c #A49B94",
"T. c #A99D94",
"R. c #A09799",
"E. c #A59D9A",
"W. c #A99F9A",
"Q. c #A7A08C",
"!. c #ABA18E",
"~. c #A6A094",
"^. c #AAA195",
"/. c #A6A19E",
"(. c #ABA39C",
"). c #ACA99C",
"_. c #B1A395",
"`. c #B0A39B",
"'. c #B3A99B",
"]. c #B9AE9E",
"[. c #ACA5A3",
"{. c #AFA8A8",
"}. c #B0A6A3",
"|. c #B4ABA4",
" X c #B9ADA4",
".X c #B5ADAB",
"XX c #B6B1A3",
"oX c #BAB2A6",
"OX c #B7B0AE",
"+X c #BBB3AB",
"@X c #BEBAAC",
"#X c #BBB4B2",
"$X c #BCB8B8",
"%X c #C1B5AC",
"&X c #C2BAAE",
"*X c #C0B7B4",
"=X c #C3BAB2",
"-X c #C0BABA",
";X c #C6C1B4",
":X c #CAC3B6",
">X c #C5C0BE",
",X c #CAC4B9",
"<X c #CEC6B8",
"1X c #CFC9BC",
"2X c #D1CBBE",
"3X c #D2CCBE",
"4X c #D4CDBF",
"5X c #C7C2C0",
"6X c #C9C4C2",
"7X c #D3CCC0",
"8X c #D4CEC0",
"9X c #D9D2C5",
/* pixels */
"<X<X<X<X8X8X4X4X4X4X4X4X4X4X8X4X3X4X4X4X4X4X4X4X4X4X4X4X4X4X8X8X8X8X8X8X8X7X7X,X7X,X,X;X;X@X@XXXXX).).Z.~.Z.Z.~.~.K.K.r.d.8.r.L.",
"2X<X<X:X8X7X4X4X4X4X4X4X4X4X8X8X3X4X4X4X4X4X3X3X4X4X4X4X4X3X8X8X8X8X8X8X8X7X7X1X1X,X,X;X;X@X@XOXXX).).~.~.Z.Z.~.~.P.L.r.r.8.8.L.",
"'.'.I.T.+X+X7X7X9X4X4X4X8X4X4X4X4X4X3X1X1X<X<X:X,X;X;X;X@X@X+X'.).~.~.N.N.c.c.#.#.O.X.' ] T c l k k i k l { _ :.=.*.*.&.&.S S q.",
"_._.L.J.'.'.:X:X3X3X3X1X1X1X:X:X;X;X;X;X;XXX@XXXXX|.).~.).Z.D.V.N.c.p.0.p.O.O.] ] E E c c l l p p i p c c _ ) :.=.*.=.&.S S S r.",
"J.J.r.r.n.g.`.].:X:X;X@X@X@XXX).).Z.N.p.p.O.#.] ] T T c l l g u y y y * * * * % % O O O O O O O O y 3 ~ W _ &.>.>.>.>.&.*.%.%.r.",
"K.I.<.<.4.4.d.g.I.~.~.t.O.O.T c c k k g l 8 8 * * * * y y g g u i t t 3 y y i y u 8 8 3 * & & h l W Q ^ ! <.>.4.4.r.7.7.7.;.;.r.",
"I.K.>.4.<.4.r.d.P.P.P.O.` ] k i i i i u u & * & & % % t y l l p i 3 t 8 t i i i i 8 y 3 * * 3 l l _ _ &.&.<.<.r.r.r.r.7.7.;.;.r.",
"I.I.4.<.>.>.q.r.g.n.N.p.p.t.W T T E E ] ] W W W ] ] ] X.X.#.9.9.9.@.o.| | X.] ] ' K K G J D c V G ^ ^ =.=.y.r.d.H.r.d.j.j.7.7.r.",
"!._.2.2._ *.4.4.6.d.n.C.L.C.w.9.o.0.e.L.P.Y.T.(.`.}.|.|. X XoX=X&X%X%X'.|._.T.H.H.d.b.s.d.6.u.! ! ! &.7.7.H.H.I.L.U.T.I.H.k.7.H.",
"_._.H.l.:.:.:.:.4.a.d.L.L.U.T.L.H.n.b.q.q.i.i.n.n.d.b.q.q.3.3.3.3.q.q.a.u.u.a.P.Y.I.I.a.y.C C C C <.<.z.r.k.z.z.H.H.H.H.7.7.7.P ",
"'.'.l.l.:.:.:.3.6.a.d.L.T.L.I.L.L.m.b.q.5.i.i.b.n.d.d.q.q. .o.3.o.q.q.q.i.i.i.P.P.I.I.a.y.S C C C >.7.r.z.H.H.H.H.H.H.7.z.7.7.[ ",
"].].K.I.r.r.:.:.q.q.a.b.n.n.d.s.q.0.4.v.v.i.q.3.o.[ [ K K H H G H M M s w q q M n N N 0 0 r r *.*.a.r.H.I.I.U.W.W.`.`.T._.H.U.t ",
"].].I.K.a.r.:.,.q.q.r.n.n.n.d.a.6.q.9.i.s.e.e.3.o./ / W R H G H G M M w s q q b n B n 0 0 r r *.*.a.d.J.I.T.I.`.W.`.`._._.z.I.6 ",
"].].K.K.a.a.3.3.3.4.0.r.a.e.e.e.q.m.C.U.U.3.9.K K D D h h q q 4 2 4 4 < 1 1 1 > > : : > > m n _ } 6.6.d.r.I.H.`.T. X X X XI.z.b ",
"].].K.K.a.a.3.3.3.3.4.e.i.a.r.e.e.m.M.U.U.9.9.K K D D h h q q 2 4 2 4 < 1 1 1 1 > : : > > m n *.*.6.6.g.z.H.U.}.`. X X X%Xz.`.b ",
"].'.I.K.6.6.{ _ / {  .9.4.4.q.d.H.[.|.U.U. .:.G G M h 4 7 & $ $ $ : $ $ $ $ $ : : : : > > r r N b G M P P >.>.7.7.z.H. X%X}.W.9.",
"_.'.K.L.6.q.{ { / { :.4.9.4.q.s.C.[..XU.U.:.:.F H h h 9 4 $ & $ $ $ $ $ @ : ; : : : : 5 5 s v b M b D P P *.:.7.r.L.L. X X`.}.+.",
"_._.n.n.4.5.H Q / {  .:.,.3.a.M.|.%X=XU.L.[ [ z h g h 4 3 1 < $ $ $ $ $ : 1 1 q q q w r s v v s v s s b b F F P P *.*.n.n.m.m.' ",
"_._.k.n.4.5.H W / / } 3.3.>.i.C.|.%X-XU.L.{ [ h z h h 1 1 < < $ $ $ $ : $ 1 1 q 0 w q r s b v v h s s b b F A P &.&.&.n.n.m.m.' ",
"K.K.3.<.o.o.Q W W )  .o.:.3.v.S.+X*X,XW.W. .o.h h z M a a q 9 7 6 4 5 < < < : q q b b G N Q L / L F V N Z Z Z ( P S S e.e.x.x.D ",
"K.K.3.3. .o.R W W { 3. ...3.s.P.+X=X-XW.T.:. .h h M M q a 0 0 7 6 2 0 < 1 < : q q n n M N L / / ( F V b N Z Z S S S S e.a.x.x.D ",
"a.a....._ _ Q / {  .3.3.0.0.Y._.%X&X=X+X%X3.3.K T V H M M v v v f 0 9 w q 0 4 q 0 v M H H ) ( _ _ ( ( Z N Z Z ! ! ,.4.M.M.S.F.c.",
"a.s.,..._ _ / / {  .3.9.9.q.P.(.%X&X=X%X%X3.3.F G V V M M v v v f 0 0 q w 4 6 0 4 M b V H ) _ / _ ( ( D N b Z S ! <.<.M.M.S.A.c.",
",..._ _ } :./ ) #.i.v.T.T.(. XXX+X%X%X+X+X9.9.3.<.Q Q V V L L Q Q V N w r 2 6 5 2 0 9 r w M M Q L H H s s v w N N s.v.F.F.R.F.F.",
",.} _ _ ` ../ { #.p.v.Y.^.^.XXXX%X%X%X+X+X5.4.<.<.Q Q V V Q U Q Q N N w w 0 5 2 2 0 0 a r M M Q Q F H s v r r N N v.s.G.G.F.D.S.",
"6.6.Q Q R R ~ ..f.v.n.f.d.f.P.^.'.'.'.T.^.a.a.4.2.! Q M B R H Q Q N N 0 0 5 0 2 2 2 2 1 1 1 1 f f v f 0 6 r r _ _ L.L.R.E.F.G.G.",
"~ _ q 9 9 q G E u.u.u.4.4.u.b.L.(.^.(.Y.P.6.6.L Q h r 2 7 9 9 d f w r 2 2 2 1 2 7 0 0 4 4 0 9 s s f v f f N N ,.,.L.L.R.G.F.F.G.",
"V B $ $ $ # k T #.5.5.3...3.a.b.Y.Y.Y.L.L.<.,.b j 1 $ @ @ @ @ 1 1 0 0 2 > > 2 2 2 q q s f s d s r f f v M A U 2.2.L.L.R.E.F.F.F.",
"f r : : + + X % G ) 3._ ` } 9.s.S.(.`.n.n.1 1 .           8 1 r r w w r r q q 9 7 r f j f z z M z V M Q ! 1.,.a.d.I.K.Y.R.S.F.F.",
"r n : : + + X % T ) 5...} } 9.x.S.(.[.n.n.1 1 . .         8 8 j r w w e r e r 7 7 d r j n M n M n M B ^ ~ ,.<.a.a.K.L.Y.Y.S.A.F.",
"Q ~ 0 0 # # X O k R .._ _ } 4.i.S.[.}.[ P @ @ + + @ @ 8 8 z j r r e 0 v r n f r r a r v h n n B V H V Q Q =.*.y.7.H.J.L.P.S.S.S.",
"^ ^ e e # # X + r I ` _ _ } 4.i.S.[.|.F b @ o $ # < $ d e V I d r e 0 v n n n e r r f f h M z H H H H Q Q _ *.6.8.g.g.P.L.S.D.S.",
" .......~ ^ R I B L L _ :. .>.w.A.W.[.P P 9.0.f.s.u.q.W W d d 7 7 7 0 r r n n n f n n n n M n G N H H z z Q ! ,.,.8.r.l.H.Y.I.b.",
"....} ..^ ^ I I B H ( ) [ :.:.w.M.E.[.P P 0.9.d.f.e.u.W / d d 7 7 0 7 r r j n n n n n n M n M H H H H n M ( Q 1.<.8.8.l.g.I.Y.b.",
"q.0.).^.XXXXK.s.n n M H P P :.w.A.W..X|.}. X+XoXoX`._.3.o.h z w e r q n n B M M n V N L Q Q L 7 4 u 9 h h M M ( ( 2.4.l.l.T.I.L.",
"0.0.~.).].XXL.a.B M j F K P +.w.m.[..X|.|.OXXXoXoX`.(.3.3.h j a r e r n N M B M n B N Q Q A L 7 9 9 9 f f N G Q ( 4.<.l.g.I.T.L.",
"P.Z.+XoX%XoX} / e q q g h h P 9.R.|.*X*X=X&X&X@X&X X XB.B.:.,.Q ~ =.*.Q Q V N f h A U ,.=.C Z L L L H H H H V Q Q *.*.a.8.I.I.I.",
"Z.Z.oXoXoX%X} Q r 9 q h h h ' w.F.|.%X=X=X&X&X%X@X X|.B.n.,.} ^ ! _ =.Q ! V V f f A A ,.,.Z Z Y L L L H H H H L Q *.*.r.y.I.I.T.",
").).oXXX].}.6 6 5 5 2 1 4 t ' w.[.+X-X=X=X@X*X+X+XoXXX`.`.L.L.a.s.6.6.*.:.H H U U *.*.&.*.-.-.<.<.b n 9 6 a s B H ( _ 8.7.J.H._.",
").[.XXXX}. Xw 6 6 5 2 4 4 t ' w.{.*X*X=X=X=X=X+X+XoXoX`.).L.L.d.a.2.6.:.*.H V L U *.*.=.=.-.-.>.<.n v 0 6 a q H H _ _ r.r.J.H._.",
"(.(.).^.Z.C.v w - - = < 4 t w.m.OX*X*X*X*X#X#X+X+X|.|.(.(.D.R.n.b.q.q.} { H A _ *.=.<.-.>.7.8.L L 4 9 r q v v M M Q Q 6.4.H.l._.",
"(.^._.^.Z.C.r w - - = < 5 t w.A.OX#X*X*X#X*X*XOXOX|.|.(.(.R.Y.b.b.q.q.{ _ H H *.*.=.=.-.>.<.2.L L 0 6 q w v f M N Q Q 6.2.J.J._.",
"Z.P.Z.C.b.f.d.,., , , [  .9.R.[.|..X.XOX#X#X+X#X#X.X.XE.(.R.Y.V.A.b.b.i.i.4.4.*.-.<.<.8.8.*.} b M v f r r w w q q v r Q ! a.a.^.",
"P.Z.C.B.f.b.b.:., , , P  .9.W.[.|..X.XOX+X*X#X#X#X.X.X[./.R.S.m.m.b.b.s.s.,.4.,.>.<.<.2.<._ _ b b f f w r w w w q f f ( L a.a._.",
"L.Z.B.g.g.g.C.s.b s t 3.e.e.S.S.U.T.W.{.}.OXOXOXOX.X.X[.[.R.S.S.S.V.C.C.C.v.b.r.q.q.q.q.q.9.0.3.:.H L F V N N H N H A ( ! a.r.!.",
"Z.Z.B.B.n.g.C.s.F s t 3.e.e.S.U.R.W.W.}.}.OXOXOXOX.X.X[.[.E.R.S.S.V.V.C.C.b.f.u.r.q.q.q.q.9.4. . .L H H H N N M N A V ( ( a.r.!.",
"B.B.g.B.f.f.b.i.[ h t J ' [ w.e.z.H.A.E.R.{.[./.[./.[.G.G.V.V.b.v.i.i.v.f.f.f.b.b.B.M.C.H.Y.Y.W.T.M.M.4.4.:.,.4.4.4.4.2.4.d.j.I.",
"N.B.n.b.f.f.c.0.K h t D K ' @.9.e.v.A.R.R.R./././.E.G.S.F.m.m.v.v.i.i.f.v.b.v.V.n.C.C.L.U.E.Y.W.E.S.L.r.a.4.4.q.r.q.a.r.r.g.g.I.",
"K.B.N.N.b.b.#.{ g d d g x x W ' +.$.w.A.A.F.F.F.F.A.A.A.c.x.i.i.i.p.f.f.f.B.B.C.C.Y.P.^.^.(.(.(.E.R.E.U.U.M.M.n.M.H.n.B.H.J.J.W.",
"Q.Q.B.h.p.b.O...[ | 5.{ { / K G z z x $.$.x.x.z.z.z.z.$.$.u.w.u.p.a.a.h.B.P.P.Y.P.L.L.C.B.S.Y.Y.W.(.(.T.E.Y.T.T.W.Y.T.T.W.`.W. X",
"!.!.h.h.f.b.O.O.| o.0. .{ / K G x x x $.$.z.x.z.z.w.$.+.$.w.i.u.a.u.t.B.B.P.P.Q.Y.P.L.C.C.Y.Y./.E.(./.E.E.W.W.W.W.Y.W.(.`.`.`. X",
"I.!.h.h.a.u.u.t.p.i.p.q.e.e.0.0.0.@.9.@.$.$.$.$.$.$.+.9.0.6.5.,.2.2.2.y.y.h.h.L.P.Y.Y.P.Y.C.C.Y.R.(.[.[.[.}.}.{.}.|.}..X|.OX+X*X",
"K.!.h.h.f.a.t.p.p.p.i.u.e.q.9.0.9.9.@.@.@.$.$.$.$.+.X.0.0.0.6.1.,.2.y.y.y.h.h.P.P.Y.Y.P.Y.C.Z.Y.U.[.[.[.[.}.[.[.[.|.[..X{.OXOX*X",
"Q.Q.B.K.f.h.t.t.u.t.u.0.q.0.0.9.w.0.w.w.w.@.#.0.0.9.0.6.4.1.<.^ ^ Y U 2.-.f.f.N.C.E.Y.(.(.(.E.E.E.W.(.[.[.|..X.X.XOX.X+X#X*X*X,X",
"Q.Q.K.K.f.y.t.t.t.u.t.0.0.0.0.9.9.0.0.w.w.9.#.0.0.3.3.4.5.1.<.^ Y U Y 2.-.f.d.Z.C.Y.Y.(./.Y.~./.E.W.(.[.[..X.X|..X.XOX#X#X*X-X-X",
"!.Q.Q.Y.h.Q.f.t.1.O.1.1.3.3...O.#.o.o./ / } { .. .,.....,.Q ! V C U C 1.t.f.f.C.N.Z.C.E.E.(.(./.(.[./.[.[.|..X.X.XOXOX#X#X-X-X6X",
"^.!.P.Q.K.B.y.t.5.O.O.O.1.O...O.#.O.../ / ..} ........=.=.Y ~ m C C m y.t.h.h.N.C.Z.C.E.E././.(.[.W./.[.{.{.{.OXOXOX.X#X#X-X-X5X",
"^.^.^.Y.Q.P.f.f.6.2.t.5.1.1.......{ ) ) ) ) ) ` ` ` ` I I n n m m U U =.^ y.p.Z.C.Y.Y.C.C.Y.E././.E.[.[.[.{.{.{..X#X#X#X#X$X-X5X",
"~.^.Q.!.Z.K.f.f.t.1.t.1.1.1.....} { ) ~ _ ) ^ ` ` ` ` V I m m m m U U t.=.a.f.Z.C.R.Y.S.D.E.R././.W.[././.{.{..X.XOX#X$X$X-X-X6X",
"^.~.~.Q.Z.Q.B.B.f.N.B.f.f.f.u.t.1.1.1.1.5.) ) ~ ~ ~ ^ I U U Q ^ ^ =.-.t.t.f.f.V.V.D.U.S.S.C.C.D.F.[.R.[.[.{.{.{.{..X.X#X#X-X-X5X",
"~.(.~.~.P.P.N.B.f.h.B.f.f.f.t.t.O.1.1.O.1.) ) ~ ~ ~ ~ U U U U ^ ^ 1.=.t.t.f.f.N.V.D.D.S.D.C.S.G.S.E.E.[.{.{.{.{.{..X{.$XOX-X-X5X",
"~.~.Y.~.L.C.Q.Y.^.^.^.P.Q.Z.h.h.f.a.a.1.,.~ ~ ` ` 1.1.1.1.1.1.2.2.t.t.5.5.p.p.p.i.c.c.b.m.A.V.V.A.S.S././.{.{.{.OXOX$X$X$X5X5X6X",
"/.~.~.Y.Z.K.Q.P.^.^.^.P.P.L.h.g.f.a.y.1...~ ~ ` ` 1.1.,.1.1.1.t.t.t.u.5.5.i.p.s.c.x.x.b.b.V.A.V.N.S.S.E.[.{.{.OXOXOXOX$X$X5X>X6X",
"~.Y.K.B.L.C.).).(.).).).(.~.K.Z.L.K.Z.f.f.t.t.h.h.K.P.K.K.B.B.f.f.C.C.s.s.i.p.b.b.x.x.e.p.x.p.b.c.S.F.E.F./.[.{.{.OX$X-X-X6X6X9X"
};
