/* XPM */
static char *result[] = {
/* columns rows colors chars-per-pixel */
"64 64 80 1 ",
"  c black",
". c #020101",
"X c #030202",
"o c #040303",
"O c #050404",
"+ c #070606",
"@ c #090908",
"# c #090909",
"$ c #0A0909",
"% c #0C0B0B",
"& c #0D0C0C",
"* c #0E0D0D",
"= c #1C0900",
"- c #220F0B",
"; c #2B1713",
": c #321212",
"> c #202020",
", c #222020",
"< c #242222",
"1 c #272523",
"2 c #272727",
"3 c #292625",
"4 c #2D2928",
"5 c #322922",
"6 c #3B2E2B",
"7 c #3A2D2C",
"8 c #373737",
"9 c #393737",
"0 c #3A3837",
"q c #3A3A3A",
"w c gray23",
"e c #3F3F3F",
"r c #7A1400",
"t c #791D05",
"y c #42241D",
"u c #7B2817",
"i c #5C3A35",
"p c #4C4C4C",
"a c gray32",
"s c gray33",
"d c gray37",
"f c #8E2F00",
"g c #983200",
"h c #8F2F1B",
"j c #98321D",
"k c #99331E",
"l c #FE3131",
"z c #B6503B",
"x c #B3513E",
"c c #B4513E",
"v c #D24240",
"b c #FE4F4F",
"n c #F65450",
"m c #C76753",
"M c #D46E59",
"N c #D2715D",
"B c #FE6F6F",
"V c #B68656",
"C c #B48B62",
"Z c #C28F5C",
"A c #DAA774",
"S c #DCAB79",
"D c #E0AD7A",
"F c #0989B6",
"G c #008FC2",
"H c #00BEEE",
"J c #00CBFE",
"K c #838383",
"L c gray53",
"P c #969C8A",
"I c #9D9D9D",
"U c #AFA48D",
"Y c gray63",
"T c #C0BB9C",
"R c #EEBE8E",
"E c #E3C398",
"W c #F8C592",
"Q c #FECB98",
"! c #FBF4F3",
"~ c #FEFEFE",
/* pixels */
"YYYYYY                       YYYYYY           +YYYYYYYYYYYYYYYYY",
"ssssss                       ssssss           Xsssssssssssssssss",
"ssssss                       ssssss           Xsssssssssssssssss",
"ssqsss                       ssssss           Xsssqsssssssssssqs",
"      bbbbbB~~~~~NMMMMMMMMMMM      MMMMMMMMMMMm     7sssssssssss",
"      bbbbbB~~~~~NMMMMMMMMMMM      MMMMMMMMMMMm     7sssssssssss",
"      bbbbbB~~~~~NMMMMMMMMMMM      MMMMMMMMMMMm     7sssLLssssss",
"sssLss     -zzzzzzzzzzzjjjjjjzzzzzzzzzzzz~~~~~!MMMMM;     ssssss",
"ssssss     -zzzzzzzzzzzjjjjjjzzzzzzzzzzzz~~~~~!MMMMM;     ssssss",
"ssssss     -zzzzzzzzzzzjjjjjjzzzzzzzzzzzz~~~~~!MMMMM;     ssssss",
"ssssss     -zzzzzzzzzzzjjjjjjzzzzzzzzzzzz~~~~~!MMMMM;     sssssq",
"      bbbbbnMMMMMczzzzzzzzzzzzzzzzzCCCCCCzzzzzxbbbbb:     qssssq",
"      bbbbbnMMMMMczzzzzzzzzzzzzzzzzCCCCCCzzzzzxbbbbb:     ssssss",
"      bbbbbnMMMMMczzzzzzzzzzzzzzzzzCCCCCCzzzzzxbbbbb:     ssssss",
"      jjjjju     VZZZZZzzzzzzMMMMMMzzzzzzjjjjjkzzzzzvlllll      ",
"      jjjjju     VZZZZZzzzzzzMMMMMMzzzzzzjjjjjkzzzzzvlllll      ",
"      jjjjju     VZZZZZzzzzzzMMMMMMzzzzzzjjjjjkzzzzzvlllll      ",
"      jjjjju     VZZZZZzzzzzzMMMMMMzzzzzzjjjjjkzzzzzvlllll      ",
"ssssss           RQQQQQMMMMMMzzzzzzllllll>>>>>,zzzzzzzzzzz      ",
"ssssss           RQQQQQMMMMMMzzzzzzllllll>>>>>,zzzzzzzzzzz      ",
"ssssss           RQQQQQMMMMMMzzzzzzllllll>>>>>,zzzzzzzzzzz      ",
"sssssssssssp     RQQQQQ      QQQQQQzzzzzzjjjjjh     yzzzzz      ",
"ssssqssssssp     RQQQQQ      QQQQQQzzzzzzjjjjjh     yzzzzz      ",
"sssssssssssp     RQQQQQ      QQQQQQzzzzzzjjjjjh     yzzzzz      ",
"ssssssssLssp     RQQQQQ      QQQQQQzzzzzzjjjjjh     yzzzzz      ",
"sssssssssssp     RQQQQQ      QQQQQQDDDDDDZZZZZV           ssssss",
"sssssssssssp     RQQQQQ      QQQQQQDDDDDDZZZZZV           sssqss",
"qssssssssssp     RQQQQQ      QQQQQQDDDDDDZZZZZV           ssssss",
"ssssss&&&&&$     %&&&&&555555TTTTTTPPPPPP&&&&&*<<<<<<<<<<<ssssss",
"sssqqs                 QQQQQQDDDDDDZZZZZZ     Xsssssssssqsssssss",
"ssssss                 QQQQQQDDDDDDZZZZZZ     Xsssssssssqqssssss",
"Lsssss                 QQQQQQDDDDDDZZZZZZ     Xsssssssssssssssss",
"      QQQQQWDDDDDo                                        ssssss",
"      QQQQQWDDDDDo                                        ssssss",
"      QQQQQWDDDDDo                                        ssssss",
"      QQQQQWDDDDDo                                        sqssss",
"      DDDDDAZZZZZSDDDDD      222222222222888889QQQQQQQQQQQ      ",
"      DDDDDAZZZZZSDDDDD      222222222222888889QQQQQQQQQQQ      ",
"      DDDDDAZZZZZSDDDDD      222222222222888889QQQQQQQQQQQ      ",
"ssssss                       eeeeeeeeeeeeeeeeew     6QQQQQ      ",
"sssLss                       eeeeeeeeeeeeeeeeew     6QQQQQ      ",
"sssLss                       eeeeeeeeeeeeeeeeew     6QQQQQ      ",
"ssssss                       eeeeeeeeeeeeeeeeew     6QQQQQ      ",
"sssssssssssssssYYssssss      eeeeee888888     .DDDDDEQQQQQ      ",
"sssssssssssssssYYssssss      eeeeee888888     .DDDDDEQQQQQ      ",
"qssssssssssssssYYssssss      eeeeee888888     .DDDDDEQQQQQ      ",
"sssssssssssp                 GGGGGGJJJJJJ     .ZZZZZUDDDDD      ",
"sssssssssssp                 GGGGGGJJJJJJ     .ZZZZZUDDDDD      ",
"ssLsssssqssp                 GGGGGGJJJJJJ     .ZZZZZUDDDDD      ",
"ssssssLssssp                 GGGGGGJJJJJJ     .ZZZZZUDDDDD      ",
"ssqsss     =gggggFGGGGGGGGGGGGGGGGGJJJJJJJJJJJH           ssLsss",
"ssssss     =gggggFGGGGGGGGGGGGGGGGGJJJJJJJJJJJH           ssssss",
"ssssss     =gggggFGGGGGGGGGGGGGGGGGJJJJJJJJJJJH           ssssss",
"sssssssssssp     fgggggggggggrrrrrr      JJJJJJJJJJJirrrrr      ",
"Lqsssssssssp     fgggggggggggrrrrrr      JJJJJJJJJJJirrrrr      ",
"LsssssLssssp     fgggggggggggrrrrrr      JJJJJJJJJJJirrrrr      ",
"LLdssssssssp     fgggggggggggrrrrrr      JJJJJJJJJJJirrrrr      ",
"sssLssssssLssLsYYO                 ssssss     .gggggtrrrrr      ",
"sssssssssssssssYYO                 ssssss     .gggggtrrrrr      ",
"sssssssssssssssYYO                 ssssss     .gggggtrrrrr      ",
"qsssLssssssssqsYY433333333333333033sLsssq333331#####@@@@@@333333",
"ssssLssssqsssssYYsssssssssssssssssssLsssqsssssK           ssssss",
"sssssssssssssssYYsssssssssssssssssssssssssssssa           ssssss",
"YYYYYYYYYYYYYYYYYYYYYYYYYYYYYYYYYYYYYYYYYYYYYYI           YYYYYY"
};
