/* XPM */
static char *MV9yZXNpemU_[] = {
/* columns rows colors chars-per-pixel */
"64 64 67 1 ",
"  c black",
". c #020101",
"X c #040303",
"o c #090908",
"O c #090909",
"+ c #0A0909",
"@ c #0C0B0B",
"# c #0D0C0C",
"$ c #1C0900",
"% c #151111",
"& c #1B1714",
"* c #1D1816",
"= c #220F0B",
"- c #2B1713",
"; c #211B19",
": c #321212",
"> c #202020",
", c #222020",
"< c #272727",
"1 c #322922",
"2 c #392C2B",
"3 c #3B2E2B",
"4 c #373737",
"5 c #393737",
"6 c gray23",
"7 c #3F3F3F",
"8 c #7A1400",
"9 c #791D05",
"0 c #42241D",
"q c #7B2817",
"w c #5C3A35",
"e c #8E2F00",
"r c #983200",
"t c #8F2F1B",
"y c #98321D",
"u c #99331E",
"i c #FE3131",
"p c #B6503B",
"a c #B3513E",
"s c #B4513E",
"d c #D24240",
"f c #FE4F4F",
"g c #F65450",
"h c #C76753",
"j c #D46E59",
"k c #D2715D",
"l c #FE6F6F",
"z c #B68656",
"x c #B48B62",
"c c #C28F5C",
"v c #DAA774",
"b c #DCAB79",
"n c #E0AD7A",
"m c #0989B6",
"M c #008FC2",
"N c #00BEEE",
"B c #00CBFE",
"V c #969C8A",
"C c #AFA48D",
"Z c #C0BB9C",
"A c #EEBE8E",
"S c #E3C398",
"D c #F8C592",
"F c #FECB98",
"G c #FBF4F3",
"H c #FEFEFE",
"J c None",
/* pixels */
"JJJJJJ                       JJJJJJ            JJJJJJJJJJJJJJJJJ",
"JJJJJJ                       JJJJJJ           XJJJJJJJJJJJJJJJJJ",
"JJJJJJ                       JJJJJJ            JJJJJJJJJJJJJJJJJ",
"JJJJJJ                       JJJJJJ            JJJJJJJJJJJJJJJJJ",
"      ffffflHHHHHkjjjjjjjjjjj      jjjjjjjjjjjh     3JJJJJJJJJJJ",
"      ffffflHHHHHkjjjjjjjjjjj      jjjjjjjjjjjh     3JJJJJJJJJJJ",
"      ffffflHHHHHkjjjjjjjjjjj      jjjjjjjjjjjh     2JJJJJJJJJJJ",
"JJJJJJ     =pppppppppppyyyyyyppppppppppppHHHHHGjjjjj-     JJJJJJ",
"JJJJJJ     =pppppppppppyyyyyyppppppppppppHHHHHGjjjjj-     JJJJJJ",
"JJJJJJ     =pppppppppppyyyyyyppppppppppppHHHHHGjjjjj-     JJJJJJ",
"JJJJJJ     =pppppppppppyyyyyyppppppppppppHHHHHGjjjjj-     JJJJJJ",
"      fffffgjjjjjspppppppppppppppppxxxxxxpppppafffff:     JJJJJJ",
"      fffffgjjjjjspppppppppppppppppxxxxxxpppppsfffff:     JJJJJJ",
"      fffffgjjjjjspppppppppppppppppxxxxxxpppppsfffff:     JJJJJJ",
"      yyyyyq     zcccccppppppjjjjjjppppppyyyyyypppspdiiiii      ",
"      yyyyyq     zcccccppppppjjjjjjppppppyyyyyusppppdiiiii      ",
"      yyyyyq     zcccccppppppjjjjjjpppppsyyyyyypppppdiiiii      ",
"      yyyyyq     zcccccppppppjjjjjjppppppyyyyyupppppdiiiii      ",
"JJJJJJ           AFFFFFjjjjjjppppppiiiiii>>>,>,ppppppppppp      ",
"JJJJJJ           AFFFFFjjjjjjppppppiiiiii>>>>>,ppppppppppp      ",
"JJJJJJ           AFFFFFjjjjjjppppppiiiiii>>>,,,ppppppppppp      ",
"JJJJJJJJJJJJ     AFFFFF      FFFFFFppppppyyyyyt     0ppppp      ",
"JJJJJJJJJJJJ     AFFFFF      FFFFFFppppppyyyyyt     0ppppp      ",
"JJJJJJJJJJJJ     AFFFFF      FFFFFFppppppyyyyyt     0ppppp      ",
"JJJJJJJJJJJJ     AFFFFF      FFFFFFppppppyyyyyt     0ppppp      ",
"JJJJJJJJJJJJ     AFFFFF      FFFFFFnnnnnncccccz           JJJJJJ",
"JJJJJJJJJJJJ     AFFFFF      FFFFFFnnnnnncccccz           JJJJJJ",
"JJJJJJJJJJJJ     AFFFFF      FFFFFFnnnnnncccccz           JJJJJJ",
"JJJJJJ#####+     @#####111111ZZZZZZVVVVVV######%%%%%%%%%%%JJJJJJ",
"JJJJJJ                 FFFFFFnnnnnncccccc      JJJJJJJJJJJJJJJJJ",
"JJJJJJ                 FFFFFFnnnnnncccccc     XJJJJJJJJJJJJJJJJJ",
"JJJJJJ                 FFFFFFnnnnnncccccc      JJJJJJJJJJJJJJJJJ",
"      FFFFFDnnnnnX                                        JJJJJJ",
"      FFFFFDnnnnnX                                        JJJJJJ",
"      FFFFFDnnnnnX                                        JJJJJJ",
"      FFFFFDnnnnnX                                        JJJJJJ",
"      nnnnnvcccccbnnnnn      <<<<<<<<<<<<444445FFFFFFFFFFF      ",
"      nnnnnvcccccbnnnnn      <<<<<<<<<<<<444455FFFFFFFFFFF      ",
"      nnnnnvcccccbnnnnn      <<<<<<<<<<<<444445FFFFFFFFFFF      ",
"JJJJJJ                       7777777776w7777776     3FFFFF      ",
"JJJJJJ                       777777777777777776     3FFFFF      ",
"JJJJJJ                       777777777777777776     3FFFFF      ",
"JJJJJJ                       777777777777777776     3FFFFF      ",
"JJJJJJJJJJJJJJJJJJJJJJJ      777777444444      nnnnnSFFFFF      ",
"JJJJJJJJJJJJJJJJJJJJJJJ     X776777444444     XnnnnnSFFFFF      ",
"JJJJJJJJJJJJJJJJJJJJJJJ     X77w777644444      nnnnnSFFFFF      ",
"JJJJJJJJJJJJ                XMMMMMMBBBBBB     XcccccCnnnnn      ",
"JJJJJJJJJJJJ                 MMMMMMBBBBBB      cccccCnnnnn      ",
"JJJJJJJJJJJJ                 MMMMMMBBBBBB      cccccCnnnnn      ",
"JJJJJJJJJJJJ                 MMMMMMBBBBBB     XcccccCnnnnn      ",
"JJJJJJ     $rrrrrmMMMMMMMMMMMMMMMMMBBBBBBBBBBBN           JJJJJJ",
"JJJJJJ     $rrrrrmMMMMMMMMMMMMMMMMMBBBBBBBBBBBN           JJJJJJ",
"JJJJJJ     $rrrrrmMMMMMMMMMMMMMMMMMBBBBBBBBBBBB           JJJJJJ",
"JJJJJJJJJJJJ     errrrrrrrrrr888888      BBBBBBBBBBBw88888      ",
"JJJJJJJJJJJJ     errrrrrrrrrr888888      BBBBBBBBBBBw88888      ",
"JJJJJJJJJJJJ     errrrrrrrrrr888888      BBBBBBBBBBBw88888      ",
"JJJJJJJJJJJJ     errrrrrrrrrr888888      BBBBBBBBBBBw88888      ",
"JJJJJJJJJJJJJJJJJX                 JJJJJJ      rrrrr988888      ",
"JJJJJJJJJJJJJJJJJX                 JJJJJJ      rrrrr988888      ",
"JJJJJJJJJJJJJJJJJX                 JJJJJJ     Xrrrrr988888      ",
"JJJJJJJJJJJJJJJJJ;*****************JJJJJJ*****&++++++oo+++******",
"JJJJJJJJJJJJJJJJJJJJJJJJJJJJJJJJJJJJJJJJJJJJJJJ           JJJJJJ",
"JJJJJJJJJJJJJJJJJJJJJJJJJJJJJJJJJJJJJJJJJJJJJJJ           JJJJJJ",
"JJJJJJJJJJJJJJJJJJJJJJJJJJJJJJJJJJJJJJJJJJJJJJJ           JJJJJJ"
};
