/* XPM */
static char *result[] = {
/* columns rows colors chars-per-pixel */
"64 64 66 1 ",
"  c black",
". c #020202",
"X c #060606",
"o c #070707",
"O c gray4",
"+ c #0F0C0C",
"@ c #0F0D0D",
"# c #17110F",
"$ c #202020",
"% c #232323",
"& c #272524",
"* c #272727",
"= c #2F2725",
"- c #2D2D2D",
"; c #362C2A",
": c #333232",
"> c gray22",
", c #3A3A3A",
"< c #3F3F3F",
"1 c #7A1400",
"2 c #54261D",
"3 c #712C1D",
"4 c #47392E",
"5 c #414141",
"6 c #434343",
"7 c #4E4E4E",
"8 c gray33",
"9 c gray36",
"0 c gray37",
"q c #705946",
"w c #686868",
"e c #983200",
"r c #98321D",
"t c #9A341E",
"y c #9E3823",
"u c #FE3131",
"i c #B6503B",
"p c #905144",
"a c #9D5850",
"s c #AD5342",
"d c #876246",
"f c #876951",
"g c #947257",
"h c #987A5D",
"j c #B3685D",
"k c #C54844",
"l c #FE4F4F",
"z c #D66C59",
"x c #D46E59",
"c c #A38266",
"v c #B48B62",
"b c #AC9573",
"n c #C28F5C",
"m c #C99C72",
"M c #E0AD7A",
"N c #166481",
"B c #008FC2",
"V c #00CBFE",
"C c gray53",
"Z c gray63",
"A c #D0B48B",
"S c #EABFB8",
"D c #FBCA98",
"F c #FECB98",
"G c #DDD2CF",
"H c #FEFEFE",
/* pixels */
"ZZZZZZ                       ZZZZZZ           .ZZZZZZZZZZZZZZZZZ",
"888888                       888ZZ8           .88888888888888888",
"888888                       888ZZ8           .88888888888888888",
"888,88                       888ZZ8           .88888888888888888",
"      llllllHHHHHSxxxxxxxxxxx      xxxxxxxxxxxp     >88888888,88",
"      llllllHHHHHSxxxxxxxxxxx      xxxxxxxxxxxp     >88C88888888",
"      llllllHHHHHSxxxxxxxxxxx      xxxxxxxxxxxp     >88888888888",
"888888      iiiiiiiiiiiyrrrrriiiiiiiiiiiiHHHHHGxxxxx#     888,,8",
"888CC8      iiiiiiiiiiiyrrrrriiiiiiiiiiiiHHHHHGxxxxx#     888888",
"888888      iiiiiiiiiiiyrrrrriiiiiiiiiiiiHHHHHGxxxxx#     888888",
"888888      iiiiiiiiiiiyrrrrriiiiiiiiiiiiHHHHHGxxxxx#     888888",
"      llllllxxxxxjiiiiiiiiiiiiiiiiivvvvvviiiiislllll#     888888",
"      llllllxxxxxjiiiiiiiiiiiiiiiiivvvvvviiiiislllll#     888888",
"      llllllxxxxxjiiiiiiiiiiiiiiiiivvvvvviiiiislllll#     888888",
"      rrrrrr     onnnnnaiiiiixxxxxxiiiiiirrrrrtiiiiikuuuuu      ",
"      rrrrrr     onnnnnaiiiiixxxxxxiiiiiirrrrrtiiiiikuuuuu      ",
"      rrrrrr     onnnnnaiiiiixxxxxxiiiiiirrrrrtiiiiikuuuuu      ",
"      rrrrrr     onnnnnaiiiiixxxxxxiiiiiirrrrrtiiiiikuuuuu      ",
"8,8888           oFFFFFzxxxxxiiiiiiuuuuuu$$$$$$iiiiiiiiiii      ",
"888888           oFFFFFzxxxxxiiiiiiuuuuuu$$$$$$iiiiiiiiiii      ",
"888888           oFFFFFzxxxxxiiiiiiuuuuuu$$$$$$iiiiiiiiiii      ",
"888888888888     oFFFFFo     FFFFFFiiiiiirrrrr3     2iiiii      ",
"88C888888888     oFFFFFo     FFFFFFiiiiiirrrrr3     2iiiii      ",
"888888888888     oFFFFFo     FFFFFFiiiiiirrrrr3     2iiiii      ",
"88888888C888     oFFFFFo     FFFFFFiiiiiirrrrr3     2iiiii      ",
"888888888888     oFFFFFo     FFFFFFMMMMMMnnnnnd           888C88",
"888888888888     oFFFFFo     FFFFFFMMMMMMnnnnnd           888888",
"88CC88888888     oFFFFFo     FFFFFFMMMMMMnnnnnd           888888",
"88888888888855555:XXXXX4hhhhhAAAAAAbbbbbbXXXXXo55555555555888888",
"888888888,88888885     qFFFFFMMMMMMnnnnnn     .,88888888888C8888",
"888888888,,8888885     qFFFFFMMMMMMnnnnnn     .88888888888888888",
"88888888888888888w     qFFFFFMMMMMMnnnnnn     .88888888888888888",
"88888888888888888888888o                 *****%     >88C88888888",
"C8888888888888888888888o                 *****%     988888888888",
"88888888888888888888888o                 *****%     >88888888888",
"888888888888,8888766666@+++++OOOOOOOOOOOO;;;;;=     >8888888C888",
"888888888888888885     &<<<<<************FFFFFc     >88888888888",
"888888888C88888885     &<<<<<************FFFFFc     >88888888888",
"888888888888888885     &<<<<<************FFFFFc     >88888888888",
"888C88888888888885     &<<<<<      FFFFFFMMMMMg     >88,88888888",
"888888888888888885     &<<<<<      FFFFFFMMMMMg     >88888888888",
"88888888888888C885     &<<<<<      FFFFFFMMMMMg     >88888888888",
"888888888888888885     &<<<<<      DDDDDDmmmmmf     >88888888888",
"888888888888888885     &<<<<<FFFFFFMMMMMM           >8C8888,8888",
"88,8888888,8888885     &<<<<<FFFFFFMMMMMM           >88888888888",
"88,888888888,8888-     &<<<<<FFFFFFMMMMMM           >88888888888",
"88888888888888888888888o     MMMMMMnnnnnn           >88888888888",
"88888888888888888888888o     MMMMMMnnnnnn           >88888888888",
"8888888888888888888C888o     MMMMMMnnnnnn           >88888888888",
"88888888888888888888888o     MMMMMMnnnnnn           988888888C88",
"8888888888888C88888,888C88888            BBBBBN     >8888,888888",
"88888888C88888888888888888C88            BBBBBN     >88888888888",
"8888C888888888888888888888888            BBBBBN     >8C888888888",
"88888888888888888888888o     VVVVVVVVVVVVBBBBBN     >88888888C88",
"88888888888888888C,8888o     VVVVVVVVVVVVBBBBBN     >88888888888",
"888888888C8888888C88888o     VVVVVVVVVVVVBBBBBN     >88888888888",
"88C888888C8888,88CC0888o     VVVVVVVVVVVVBBBBBN     >888C8888888",
"88C0888888C888,88888C88o     eeeeee111111     .88888888888888888",
"88888888888888,88888888o     eeeeee111111     .88C088888888C88C8",
"88888888888C88888888888o     eeeeee111111     .88C88888888888888",
"88888888888888888,888C8888888            88888888C888C888,888888",
"888888888888888888888C8888,88            888888888888C888,88888C",
"88888888888888888888888888888            88888888888888888888888",
"ZZZZZZZZZZZZZZZZZZZZZZZZZZZZZ            ZZZZZZZZZZZZZZZZZZZZZZZ"
};
