/* XPM */
static char *result[] = {
/* columns rows colors chars-per-pixel */
"64 64 64 1 ",
"  c black",
". c #040303",
"X c #050404",
"o c #090908",
"O c #090909",
"+ c #0B0909",
"@ c #0B0B0B",
"# c #0F0C0B",
"$ c #0D0C0C",
"% c #121010",
"& c #151111",
"* c #1D1816",
"= c #201B18",
"- c #202020",
"; c #212120",
": c #272727",
"> c #282828",
", c #2C2929",
"< c #322922",
"1 c #373737",
"2 c #3A3A3A",
"3 c #7A1400",
"4 c #6B200F",
"5 c #692314",
"6 c #61271B",
"7 c #562920",
"8 c #7F463A",
"9 c #68523C",
"0 c #75573C",
"q c #125770",
"w c #2E6370",
"e c gray33",
"r c gray37",
"t c #785F4A",
"y c #983200",
"u c #953A15",
"i c #98321D",
"p c #9B3621",
"a c #9C3722",
"s c #FE3131",
"d c #B6503B",
"f c #A65547",
"g c #A2564A",
"h c #B5675A",
"j c #C24847",
"k c #FE4F4F",
"l c #D76B58",
"z c #D46E59",
"x c #B48B62",
"c c #C28F5C",
"v c #E0AD7A",
"b c #008FC2",
"n c #00CBFE",
"m c #37D6FE",
"M c gray53",
"N c #969C8A",
"B c #B1A891",
"V c gray63",
"C c #C0BB9C",
"Z c #EDBEB6",
"A c #E1C49A",
"S c #FECB98",
"D c #DCC3BD",
"F c #FEFEFE",
/* pixels */
"VVVVVV                       VVVVVV           .VVVVVVVVVVVVVVVVV",
"eeeeee                       eeeeee           .eeeeeeeeeeeeeeeee",
"eeeeee                       eeeeee           .eeeeeeeeeeeeeeeee",
"eeeeee                       eee2ee           .eeeeeeeeeeeeeeeee",
"      kkkkkkFFFFFZzzzzzzzzzzz      zzzzzzzzzzz8     +eeeeMMeeeee",
"      kkkkkkFFFFFZzzzzzzzzzzz      zzzzzzzzzzz8     @eeeeeeeeeee",
"      kkkkkkFFFFFZzzzzzzzzzzz      zzzzzzzzzzz8     @eeeeeeeeeee",
"eeMeee      dddddddddddaiiiiiddddddddddddFFFFFDzzzzz$     eeeeee",
"eeeeee      dddddddddddaiiiiiddddddddddddFFFFFDzzzzz#     ee2eee",
"eeeeee      dddddddddddaiiiiiddddddddddddFFFFFDzzzzz#     eeeeee",
"eeeeee      dddddddddddaiiiiiddddddddddddFFFFFDzzzzz#     eeeeee",
"      kkkkkkzzzzzhdddddddddddddddddxxxxxxdddddfkkkkk#     eeeeee",
"      kkkkkkzzzzzhdddddddddddddddddxxxxxxdddddfkkkkk#     MMeeee",
"      kkkkkkzzzzzhdddddddddddddddddxxxxxxdddddfkkkkk#     eeeeee",
"      iiiiii     +cccccgdddddzzzzzzddddddiiiiipdddddjsssss      ",
"      iiiiii     +cccccgdddddzzzzzzddddddiiiiipdddddjsssss      ",
"      iiiiii     +cccccgdddddzzzzzzddddddiiiiipdddddjsssss      ",
"      iiiiii     +cccccgdddddzzzzzzddddddiiiiipdddddjsssss      ",
"eeeeee           +SSSSSlzzzzzddddddssssss---;-;ddddddddddd      ",
"eeeeee           +SSSSSlzzzzzddddddssssss-----;ddddddddddd      ",
"eeeeee           +SSSSSlzzzzzddddddssssss---;;;ddddddddddd      ",
"eeeeeeeeeeee     +SSSSSX     SSSSSSddddddiiiii6     7ddddd      ",
"eeee2eeeeeee     +SSSSSX     SSSSSSddddddiiiii6     7ddddd      ",
"eeeeeeeeMeee     +SSSSSX     SSSSSSddddddiiiii6     7ddddd      ",
"eeeeeeeeeeee     +SSSSSX     SSSSSSddddddiiiii6     7ddddd      ",
"eMeeeeeeeeMe     +SSSSSX     SSSSSSvvvvvvccccc0           eeeeee",
"eeeeeeeeeeee     +SSSSSX     SSSSSSvvvvvvccccc0           eeeeee",
"eeeeeeeeeeee     +SSSSSX     SSSSSSvvvvvvccccc0           eeeeee",
"eeeeeeeeeeee&&&&&%$$$$$=<<<<<CCCCCBNNNNNN$$$$$$&&&&&&&&&&&eeeeee",
"eeeeeeeeMeeeeeeeee     tSSSSSvvvvvAcccccc     Xeeeeeeeee2eee2eee",
"eeeeeeeeeeeeeeeeee     tSSSSSvvvvvvcccccc     .eeeeeeeee>eeeeeee",
"eeeeeeeeeeeeeeeeee     tSSSSSvvvvvvcccccc     XeeeMeeeeeeeeeeeee",
"eeeeMeeeeeee                    ..       :::::-     @eeeeeeMeeee",
"eMeeeeeeeeee                             :::::;     @eeeeeeeeeee",
"eeeeeeeeeeee                             :::::;     @eeeeeeeeeee",
"eeeeeeeeeMee                             :::::-     +eeMeeeeeeee",
"eeeeee      SSSSSAvvvvvX     SSSSSS:::::::::::;           eeeeee",
"eeeeee      SSSSSAvvvvvX     SSSSSS:::::::::::-           eee2ee",
"eeeeee      SSSSSAvvvvvX     SSSSSS:::::::::::;           eeeeee",
"eeee2e      vvvvvCcccccBvvvvvvvvvvv::::::11111,     9vvvvv      ",
"2eeeee      vvvvvxcccccBvvvvvvvvvvv::::::11111,     9vvvvv      ",
"eeeeee      vvvvvCcccccBvvvvvvvvvvv::::::11111,     9vvvvv      ",
"eeeeee      vvvvvvxccccBvvvvvvvvvvv::::::11111,     9vvvvv      ",
"eeeMeeee2eee    .                  11111111111,     9vvvvv      ",
"eeeeeeeeeeee                       11111111111,     9vvvvv      ",
"eeeeeeeeeeee                       11111111111,     9vvvvv      ",
"eeeeeeeeeeeeeeeeeeeeeeeX     mmmmmmnnnnnnbbbbbq           eeeeee",
"eeeeeeeeeeeeeeeeeeeeeeeX     mmmmmmnnnnnnbbbbbq           eeeeee",
"eeeeeeeeeeeeeeeeeeeeeeeX     mmmmmmnnnnnnbbbbbq           eeeeee",
"eMeeeeeeeeMeeeeeeeeeeeeX     mmmmmmnnnnnnbbbbbq           eeeeee",
"eeeeee2eeeee           wmmmmmmmmmmmnnnnnnbbbbbbbbbbb533333      ",
"eeeeeeeeeeee           wmmmmmmmmmmmnnnnnnbbbbbbbbbbb533333      ",
"eeeMeeeeeeee           wmmmmmmmmmmmnnnnnnbbbbbbbbbbb533333      ",
"eeeeee      yyyyyummmmmmmmmmmmmmmmm           .yyyyy533333      ",
"eeeeee      yyyyyummmmmmmmmmmmmmmmm           .yyyyy433333      ",
"eeeeee      yyyyyummmmmmmmmmmmmmmmm           .yyyyy433333      ",
"eeeeeM      yyyyyummmmmmmmmmmmmmmmm           .yyyyy433333      ",
"eeeeeeeeeeee     oyyyyyyyyyyy333333      eeMeVV           eeeeee",
"eeeeeeeeMeeM     +yyyyyyyyyyy333333      eeeeVV           eeeeMr",
"eeeeeeeeeeee     +yyyyyyyyyyy333333      eeeeVV           eeeeMe",
"eeMeee2eeeee*****&++O+++O++O++o+o++******ee2eVV***********eeeeMe",
"eeMeee2eeeeeMeeeee                 eeee2eeeeeVVeeeeeeeeeeeeeeeee",
"eeeeeeeeeeeeeeeeee                 eeeeeeeeeeVVeeeeeeeeeeeeeeeee",
"VVVVVVVVVVVVVVVVVV                 VVVVVVVVVVVVVVVVVVVVVVVVVVVVV"
};
