/* XPM */
static char *M19yZXNpemU_[] = {
/* columns rows colors chars-per-pixel */
"64 64 63 1 ",
"  c black",
". c #040303",
"X c #050404",
"o c #090908",
"O c #090909",
"+ c #0B0908",
"@ c #0B0909",
"# c #0B0B0B",
"$ c #0F0C0B",
"% c #0D0C0C",
"& c #0E0D0D",
"* c #121010",
"= c #151111",
"- c #171312",
"; c #1D1816",
": c #201B18",
"> c #202020",
", c #212120",
"< c #272727",
"1 c #2C2929",
"2 c #322922",
"3 c #373737",
"4 c #7A1400",
"5 c #6B200F",
"6 c #692314",
"7 c #61271B",
"8 c #562920",
"9 c #7F463A",
"0 c #68523C",
"q c #75573C",
"w c #125770",
"e c #2E6370",
"r c #785F4A",
"t c #983200",
"y c #953A15",
"u c #98321D",
"i c #9B3621",
"p c #9C3722",
"a c #FE3131",
"s c #B6503B",
"d c #A65547",
"f c #A2564A",
"g c #B5675A",
"h c #C24847",
"j c #FE4F4F",
"k c #D76B58",
"l c #D46E59",
"z c #B48B62",
"x c #C28F5C",
"c c #E0AD7A",
"v c #008FC2",
"b c #00CBFE",
"n c #37D6FE",
"m c #969C8A",
"M c #BFA581",
"N c #B1A891",
"B c #C0BB9C",
"V c #EDBEB6",
"C c #E1C49A",
"Z c #FECB98",
"A c #DCC3BD",
"S c #FEFEFE",
"D c None",
/* pixels */
"DDDDDD                       DDDDDD           .DDDDDDDDDDDDDDDDD",
"DDDDDD                       DDDDDD           .DDDDDDDDDDDDDDDDD",
"DDDDDD                       DDDDDD           .DDDDDDDDDDDDDDDDD",
"DDDDDD                       DDDDDD           .DDDDDDDDDDDDDDDDD",
"      jjjjjjSSSSSVlllllllllll      lllllllllll9     @DDDDDDDDDDD",
"      jjjjjjSSSSSVlllllllllll      lllllllllll9     #DDDDDDDDDDD",
"      jjjjjjSSSSSVlllllllllll      lllllllllll9     #DDDDDDDDDDD",
"DDDDDD      ssssssssssspuuuuussssssssssssSSSSSAlllll%     DDDDDD",
"DDDDDD      ssssssssssspuuuuussssssssssssSSSSSAlllll$     DDDDDD",
"DDDDDD      ssssssssssspuuuuussssssssssssSSSSSAlllll$     DDDDDD",
"DDDDDD      ssssssssssspuuuuussssssssssssSSSSSAlllll$     DDDDDD",
"      jjjjjjlllllgssssssssssssssssszzzzzzsssssdjjjjj$     DDDDDD",
"      jjjjjjlllllgssssssssssssssssszzzzzzsssssdjjjjj$     DDDDDD",
"      jjjjjjlllllgssssssssssssssssszzzzzzsssssdjjjjj$     DDDDDD",
"      uuuuuu     @xxxxxfsssssllllllssssssuuuuuissssshaaaaa      ",
"      uuuuuu     @xxxxxfsssssllllllssssssuuuuuissssshaaaaa      ",
"      uuuuuu     @xxxxxfsssssllllllssssssuuuuuissssshaaaaa      ",
"      uuuuuu     @xxxxxfsssssllllllssssssuuuuuissssshaaaaa      ",
"DDDDDD           @ZZZZZklllllssssssaaaaaa>>>,>,sssssssssss      ",
"DDDDDD           @ZZZZZklllllssssssaaaaaa>>>>>,sssssssssss      ",
"DDDDDD           @ZZZZZklllllssssssaaaaaa>>>,,,sssssssssss      ",
"DDDDDDDDDDDD     @ZZZZZX     ZZZZZZssssssuuuuu7     8sssss      ",
"DDDDDDDDDDDD     @ZZZZZX     ZZZZZZssssssuuuuu7     8sssss      ",
"DDDDDDDDDDDD     @ZZZZZX     ZZZZZZssssssuuuuu7     8sssss      ",
"DDDDDDDDDDDD     @ZZZZZX     ZZZZZZssssssuuuuu7     8sssss      ",
"DDDDDDDDDDDD     @ZZZZZX     ZZZZZZccccccxxxxxq           DDDDDD",
"DDDDDDDDDDDD     @ZZZZZX     ZZZZZZccccccxxxxxq           DDDDDD",
"DDDDDDDDDDDD     @ZZZZZX     ZZZZZZccccccxxxxxq           DDDDDD",
"DDDDDDDDDDDD=====*%%%%%:22222BBBBBNmmmmmm%%%%%%===========DDDDDD",
"DDDDDDDDDDDDDDDDDD     rZZZZZcccccCxxxxxx     XDDDDDDDDDDDDDDDDD",
"DDDDDDDDDDDDDDDDDD     rZZZZZccccccxxxxxx     .DDDDDDDDDDDDDDDDD",
"DDDDDDDDDDDDDDDDDD     rZZZZZccccccxxxxxx     XDDDDDDDDDDDDDDDDD",
"DDDDDDDDDDDD                    ..       <<<<<>     #DDDDDDDDDDD",
"DDDDDDDDDDDD                             <<<<<,     #DDDDDDDDDDD",
"DDDDDDDDDDDD                             <<<<<,     #DDDDDDDDDDD",
"DDDDDDDDDDDD                             <<<<<>     @DDDDDDDDDDD",
"DDDDDD      ZZZZZCcccccX     ZZZZZZ<<<<<<<<<<<,           DDDDDD",
"DDDDDD      ZZZZZCcccccX     ZZZZZZ<<<<<<<<<<<>           DDDDDD",
"DDDDDD      ZZZZZCcccccX     ZZZZZZ<<<<<<<<<<<,           DDDDDD",
"DDDDDD      cccccBxxxxxNccccccccccc<<<<<<333331     0ccccc      ",
"DDDDDD      ccccczxxxxxNccccccccccc<<<<<<333331     0ccccc      ",
"DDDDDD      cccccBxxxxxNccccccccccc<<<<<<333331     0ccccc      ",
"DDDDDD      cccccczxxxxNccccccccccc<<<<<<333331     0ccccc      ",
"DDDDDDDDDDDD    .                  333333333331     0ccccc      ",
"DDDDDDDDDDDD                       333333333331     0ccccc      ",
"DDDDDDDDDDDD                       333333333331     0ccccc      ",
"DDDDDDDDDDDDDDDDDDDDDDDX     nnnnnnbbbbbbvvvvvw           DDDDDD",
"DDDDDDDDDDDDDDDDDDDDDDDX     nnnnnnbbbbbbvvvvvw           DDDDDD",
"DDDDDDDDDDDDDDDDDDDDDDDX     nnnnnnbbbbbbvvvvvw           DDDDDD",
"DDDDDDDDDDDDDDDDDDDDDDDX     nnnnnnbbbbbbvvvvvw           DDDDDD",
"DDDDDDDDDDDD           ennnnnnnnnnnbbbbbbvvvvvvvvvvv644444      ",
"DDDDDDDDDDDD           ennnnnnnnnnnbbbbbbvvvvvvvvvvv644444      ",
"DDDDDDDDDDDD           ennnnnnnnnnnbbbbbbvvvvvvvvvvv644444      ",
"DDDDDD      tttttynnnnnnnnnnnnnnnnn           .ttttt644444      ",
"DDDDDD      tttttynnnnnnnnnnnnnnnnn           .ttttt544444      ",
"DDDDDD      tttttynnnnnnnnnnnnnnnnn           .ttttt544444      ",
"DDDDDD      tttttynnnnnnnnnnnnnnnnn           .ttttt544444      ",
"DDDDDDDDDDDD     ottttttttttt444444      DDDDDD           DDDDDD",
"DDDDDDDDDDDD     @ttttttttttt444444      DDDDDD           DDDDDD",
"DDDDDDDDDDDD     @ttttttttttt444444      DDDDDD           DDDDDD",
"DDDDDDDDDDDD;;;;;=@@O@@@O@@O@@o@o@@;;;;;;DDDDDD;;;;;;;;;;;DDDDDD",
"DDDDDDDDDDDDDDDDDD                 DDDDDDDDDDDDDDDDDDDDDDDDDDDDD",
"DDDDDDDDDDDDDDDDDD                 DDDDDDDDDDDDDDDDDDDDDDDDDDDDD",
"DDDDDDDDDDDDDDDDDD                 DDDDDDDDDDDDDDDDDDDDDDDDDDDDD"
};
