/* XPM */
static char *result[] = {
/* columns rows colors chars-per-pixel */
"64 64 67 1 ",
"  c black",
". c #020202",
"X c #060606",
"o c #070707",
"O c gray4",
"+ c #0F0C0C",
"@ c #0F0D0D",
"# c #17110F",
"$ c #202020",
"% c #232323",
"& c #272524",
"* c #272727",
"= c #2F2725",
"- c #282828",
"; c #362C2A",
": c #333232",
"> c gray22",
", c #3A3A3A",
"< c #3F3F3F",
"1 c #7A1400",
"2 c #54261D",
"3 c #712C1D",
"4 c #47392E",
"5 c #414141",
"6 c #434343",
"7 c #4E4E4E",
"8 c gray33",
"9 c gray37",
"0 c #705946",
"q c #686868",
"w c gray46",
"e c #983200",
"r c #98321D",
"t c #9A341E",
"y c #9E3823",
"u c #FE3131",
"i c #B6503B",
"p c #905144",
"a c #9D5850",
"s c #AD5342",
"d c #876246",
"f c #876951",
"g c #947257",
"h c #987A5D",
"j c #B3685D",
"k c #C54844",
"l c #FE4F4F",
"z c #D66C59",
"x c #D46E59",
"c c #A38266",
"v c #B48B62",
"b c #AC9573",
"n c #C28F5C",
"m c #C99C72",
"M c #E0AD7A",
"N c #166481",
"B c #008FC2",
"V c #00CBFE",
"C c gray53",
"Z c gray63",
"A c gray67",
"S c #D0B48B",
"D c #EABFB8",
"F c #FBCA98",
"G c #FECB98",
"H c #DDD2CF",
"J c #FEFEFE",
/* pixels */
"ZZZZZZ                       ZZZZZZ           .ZZZZZZZZZZZZZZZZZ",
"Z88888                       888888           .8888888888888888Z",
"Z88888                       888888           .8888888888888888Z",
"Z88888                       88888,           .888,888,88888888Z",
"      llllllJJJJJDxxxxxxxxxxx      xxxxxxxxxxxp     >8888888888Z",
"      llllllJJJJJDxxxxxxxxxxx      xxxxxxxxxxxp     >8888888888Z",
"      llllllJJJJJDxxxxxxxxxxx      xxxxxxxxxxxp     >88888A8888Z",
"Z88888      iiiiiiiiiiiyrrrrriiiiiiiiiiiiJJJJJHxxxxx#     88888Z",
"Z88888      iiiiiiiiiiiyrrrrriiiiiiiiiiiiJJJJJHxxxxx#     88888Z",
"Z88888      iiiiiiiiiiiyrrrrriiiiiiiiiiiiJJJJJHxxxxx#     88888Z",
"Z88888      iiiiiiiiiiiyrrrrriiiiiiiiiiiiJJJJJHxxxxx#     88888Z",
"      llllllxxxxxjiiiiiiiiiiiiiiiiivvvvvviiiiislllll#     88888Z",
"      llllllxxxxxjiiiiiiiiiiiiiiiiivvvvvviiiiislllll#     88888Z",
"      llllllxxxxxjiiiiiiiiiiiiiiiiivvvvvviiiiislllll#     88888Z",
"      rrrrrr     onnnnnaiiiiixxxxxxiiiiiirrrrrtiiiiikuuuuu      ",
"      rrrrrr     onnnnnaiiiiixxxxxxiiiiiirrrrrtiiiiikuuuuu      ",
"      rrrrrr     onnnnnaiiiiixxxxxxiiiiiirrrrrtiiiiikuuuuu      ",
"      rrrrrr     onnnnnaiiiiixxxxxxiiiiiirrrrrtiiiiikuuuuu      ",
"Z88888           oGGGGGzxxxxxiiiiiiuuuuuu$$$$$$iiiiiiiiiii      ",
"Z88888           oGGGGGzxxxxxiiiiiiuuuuuu$$$$$$iiiiiiiiiii      ",
"Z88888           oGGGGGzxxxxxiiiiiiuuuuuu$$$$$$iiiiiiiiiii      ",
"Z888888C8888     oGGGGGo     GGGGGGiiiiiirrrrr3     2iiiii      ",
"Z88888888888     oGGGGGo     GGGGGGiiiiiirrrrr3     2iiiii      ",
"Z88888888888     oGGGGGo     GGGGGGiiiiiirrrrr3     2iiiii      ",
"Z888C88888,8     oGGGGGo     GGGGGGiiiiiirrrrr3     2iiiii      ",
"Z88888888888     oGGGGGo     GGGGGGMMMMMMnnnnnd           88888Z",
"Z88888888888     oGGGGGo     GGGGGGMMMMMMnnnnnd           888,8Z",
"Z88888888888     oGGGGGo     GGGGGGMMMMMMnnnnnd           88888Z",
"Z8888888888855555:XXXXX4hhhhhSSSSSSbbbbbbXXXXXo5555555555588888Z",
"Z888888888,888,885     0GGGGGMMMMMMnnnnnn     .8888,,8888888888Z",
"Z888888888-8888885     0GGGGGMMMMMMnnnnnn     .8888888888888888Z",
"Z888C8888888888885     0GGGGGMMMMMMnnnnnn     .8C88888888888C88Z",
"Z888C88888888C88888888Co                 *****%     >8888888888Z",
"Z888888888888888888C888o                 *****%     >8888888888Z",
"Z8888888888888888888888o                 *****%     >8888C88888Z",
"Z88888888C8888888766666@+++++OOOOOOOOOOOO;;;;;=     >8888C88888Z",
"Z88888888888888885     &<<<<<************GGGGGc     >8888888888Z",
"Z8888888888,888,85     &<<<<<************GGGGGc     >88888888C8Z",
"Z8888888888w888885     &<<<<<************GGGGGc     >8888888888Z",
"Z88888888888888885     &<<<<<      GGGGGGMMMMMg     >8888888888Z",
"Z8C888888888888885     &<<<<<      GGGGGGMMMMMg     >8888888888Z",
"Z88888888888888885     &<<<<<      GGGGGGMMMMMg     >8888888888Z",
"Z8888888,88CC88885     &<<<<<      FFFFFFmmmmmf     >88888C8888Z",
"Z8888888888C88888q     &<<<<<GGGGGGMMMMMM           >8888888888Z",
"Z88888888888888885     &<<<<<GGGGGGMMMMMM           >8888888888Z",
"Z88888888888888885     &<<<<<GGGGGGMMMMMM           >8888888888Z",
"Z888C88,888888888888888o     MMMMMMnnnnnn           >8888888888Z",
"Z8888888888888888888888o     MMMMMMnnnnnn           >888888888,Z",
"Z888888888C888888888888o     MMMMMMnnnnnn           >888,888888Z",
"Z888888888888888888C888o     MMMMMMnnnnnn           >8C88888888Z",
"Z88888888888888888888888,8888            BBBBBN     >8C88888888Z",
"Z8C8888888888888C888888888888            BBBBBN     >8888C88888Z",
"Z88888888888888888888C8888888            BBBBBN     >8888888888Z",
"Z8888888,888888,8888888o     VVVVVVVVVVVVBBBBBN     >8888888888Z",
"Z888888888888,,,8888888o     VVVVVVVVVVVVBBBBBN     >8888888888Z",
"Z8888888888888888888888o     VVVVVVVVVVVVBBBBBN     >8C88888888Z",
"Z8888888888888888888888o     VVVVVVVVVVVVBBBBBN     >8888888888Z",
"Z8888888888888888888888o     eeeeee111111     .8888C888888C88C8Z",
"Z88888888C888888C988888o     eeeeee111111     .8888888888888888Z",
"Z88C88CC88888888C888888o     eeeeee111111     .8888888888888888Z",
"Z888888888888888C888C888,8888            8888888,888C88888888,8Z",
"Z8888888888888888888C888,8888            88888888888C8888,88888Z",
"Z8888888888888888888888888888            8888888888888888888888Z",
"ZZZZZZZZZZZZZZZZZZZZZZZZZZZZZ            ZZZZZZZZZZZZZZZZZZZZZZZ"
};
