/* XPM */
static char *NF9yZXNpemU_[] = {
/* columns rows colors chars-per-pixel */
"64 64 56 1 ",
"  c black",
". c #020202",
"X c #070505",
"o c #060606",
"O c #070707",
"+ c gray4",
"@ c #0F0C0C",
"# c #0F0D0D",
"$ c #17110F",
"% c #131010",
"& c #202020",
"* c #232323",
"= c #272524",
"- c #272727",
"; c #2F2725",
": c #362C2A",
"> c #3F3F3F",
", c #7A1400",
"< c #54261D",
"1 c #712C1D",
"2 c #47392E",
"3 c #705946",
"4 c #983200",
"5 c #98321D",
"6 c #9A341E",
"7 c #9E3823",
"8 c #FE3131",
"9 c #B6503B",
"0 c #905144",
"q c #9D5850",
"w c #AD5342",
"e c #876246",
"r c #876951",
"t c #947257",
"y c #987A5D",
"u c #B3685D",
"i c #C54844",
"p c #FE4F4F",
"a c #D66C59",
"s c #D46E59",
"d c #A38266",
"f c #B48B62",
"g c #AC9573",
"h c #C28F5C",
"j c #C99C72",
"k c #E0AD7A",
"l c #166481",
"z c #008FC2",
"x c #00CBFE",
"c c #D0B48B",
"v c #EABFB8",
"b c #FBCA98",
"n c #FECB98",
"m c #DDD2CF",
"M c #FEFEFE",
"N c None",
/* pixels */
"NNNNNN                       NNNNNN            NNNNNNNNNNNNNNNNN",
"NNNNNN                       NNNNNN           ONNNNNNNNNNNNNNNNN",
"NNNNNN                       NNNNNN            NNNNNNNNNNNNNNNNN",
"NNNNNN                       NNNNNN            NNNNNNNNNNNNNNNNN",
"      ppppppMMMMMvsssssssssss      sssssssssss0     ONNNNNNNNNNN",
"      ppppppMMMMMvsssssssssss      sssssssssss0     ONNNNNNNNNNN",
"      ppppppMMMMMvsssssssssss      sssssssssss0     ONNNNNNNNNNN",
"NNNNNN      99999999999755555999999999999MMMMMmsssss$     NNNNNN",
"NNNNNN      99999999999755555999999999999MMMMMmsssss$     NNNNNN",
"NNNNNN      99999999999755555999999999999MMMMMmsssss$     NNNNNN",
"NNNNNN      99999999999755555999999999999MMMMMmsssss$     NNNNNN",
"      ppppppsssssu99999999999999999ffffff99999wppppp$     NNNNNN",
"      ppppppsssssu99999999999999999ffffff99999wppppp$     NNNNNN",
"      ppppppsssssu99999999999999999ffffff99999wppppp$     NNNNNN",
"      555555     Ohhhhhq99999ssssss99999955555699999i88888      ",
"      555555     Ohhhhhq99999ssssss99999955555699999i88888      ",
"      555555     Ohhhhhq99999ssssss99999955555699999i88888      ",
"      555555     Ohhhhhq99999ssssss99999955555699999i88888      ",
"NNNNNN           Onnnnnssssss999999888888&&&&&&99999999999      ",
"NNNNNN           Onnnnnasssss999999888888&&&&&&99999999999      ",
"NNNNNN           Onnnnnasssss999999888888&&&&&&99999999999      ",
"NNNNNNNNNNNN     OnnnnnO     nnnnnn999999555551     <99999      ",
"NNNNNNNNNNNN     OnnnnnO     nnnnnn999999555551     <99999      ",
"NNNNNNNNNNNN     OnnnnnO     nnnnnn999999555551     <99999      ",
"NNNNNNNNNNNN     OnnnnnO     nnnnnn999999555551     <99999      ",
"NNNNNNNNNNNN     OnnnnnO     nnnnnnkkkkkkhhhhhe           NNNNNN",
"NNNNNNNNNNNN     OnnnnnO     nnnnnnkkkkkkhhhhhe           NNNNNN",
"NNNNNNNNNNNN     OnnnnnO     nnnnnnkkkkkkhhhhhe           NNNNNN",
"NNNNNNNNNNNNNNNNN%OOOOO2yyyyyccccccggggggOOOOO+NNNNNNNNNNNNNNNNN",
"NNNNNNNNNNNNNNNNNN     3nnnnnkkkkkkhhhhhh      NNNNNNNNNNNNNNNNN",
"NNNNNNNNNNNNNNNNNN     3nnnnnkkkkkkhhhhhh     .NNNNNNNNNNNNNNNNN",
"NNNNNNNNNNNNNNNNNN     3nnnnnkkkkkkhhhhhh      NNNNNNNNNNNNNNNNN",
"NNNNNNNNNNNNNNNNNNNNNNNO                 -----&     XNNNNNNNNNNN",
"NNNNNNNNNNNNNNNNNNNNNNNO                 ------     ONNNNNNNNNNN",
"NNNNNNNNNNNNNNNNNNNNNNNO                 -----&     ONNNNNNNNNNN",
"NNNNNNNNNNNNNNNNNNNNNNN@#####++++++++++++:::::;     ONNNNNNNNNNN",
"NNNNNNNNNNNNNNNNNN     =>>>>>------------nnnnnd     ONNNNNNNNNNN",
"NNNNNNNNNNNNNNNNNN     ->>>>>------------nnnnnd     ONNNNNNNNNNN",
"NNNNNNNNNNNNNNNNNN     =>>>>>------------nnnnnd     ONNNNNNNNNNN",
"NNNNNNNNNNNNNNNNNN     ->>>>>      nnnnnnkkkkkt     XNNNNNNNNNNN",
"NNNNNNNNNNNNNNNNNN     ->>>>>o     nnnnnnkkkkkt     ONNNNNNNNNNN",
"NNNNNNNNNNNNNNNNNN     =>>>>>.     nnnnnnkkkkkt     ONNNNNNNNNNN",
"NNNNNNNNNNNNNNNNNN     ->>>>>..    bbbbbbjjjjjr     XNNNNNNNNNNN",
"NNNNNNNNNNNNNNNNNN     =>>>>>bnnnnnkkkkkk           ONNNNNNNNNNN",
"NNNNNNNNNNNNNNNNNN     ->>>>2nnnnnnkkkkkk           XNNNNNNNNNNN",
"NNNNNNNNNNNNNNNNNN     =>2>>>nnnnnnkkkkkk           ONNNNNNNNNNN",
"NNNNNNNNNNNNNNNNNNNNNNNO    ockkkkkhhhhhh           ONNNNNNNNNNN",
"NNNNNNNNNNNNNNNNNNNNNNNO     kkkkkkhhhhhh           ONNNNNNNNNNN",
"NNNNNNNNNNNNNNNNNNNNNNNO     kkkkkkhhhhhh           XNNNNNNNNNNN",
"NNNNNNNNNNNNNNNNNNNNNNNO     kkkkkkhhhhhh           ONNNNNNNNNNN",
"NNNNNNNNNNNNNNNNNNNNNNNNNNNNN            zzzzzl     ONNNNNNNNNNN",
"NNNNNNNNNNNNNNNNNNNNNNNNNNNNN            zzzzzl     ONNNNNNNNNNN",
"NNNNNNNNNNNNNNNNNNNNNNNNNNNNN            zzzzzl     ONNNNNNNNNNN",
"NNNNNNNNNNNNNNNNNNNNNNNO     xxxxxxxxxxxxzzzzzl     ONNNNNNNNNNN",
"NNNNNNNNNNNNNNNNNNNNNNNO     xxxxxxxxxxxxzzzzzl     ONNNNNNNNNNN",
"NNNNNNNNNNNNNNNNNNNNNNNO     xxxxxxxxxxxxzzzzzl     XNNNNNNNNNNN",
"NNNNNNNNNNNNNNNNNNNNNNNO     xxxxxxxxxxxxzzzzzl     ONNNNNNNNNNN",
"NNNNNNNNNNNNNNNNNNNNNNNO     444444,,,,,,     .NNNNNNNNNNNNNNNNN",
"NNNNNNNNNNNNNNNNNNNNNNNO     444444,,,,,,      NNNNNNNNNNNNNNNNN",
"NNNNNNNNNNNNNNNNNNNNNNN+     444444,,,,,,     .NNNNNNNNNNNNNNNNN",
"NNNNNNNNNNNNNNNNNNNNNNNNNNNNN            NNNNNNNNNNNNNNNNNNNNNNN",
"NNNNNNNNNNNNNNNNNNNNNNNNNNNNN            NNNNNNNNNNNNNNNNNNNNNNN",
"NNNNNNNNNNNNNNNNNNNNNNNNNNNNN            NNNNNNNNNNNNNNNNNNNNNNN",
"NNNNNNNNNNNNNNNNNNNNNNNNNNNNN            NNNNNNNNNNNNNNNNNNNNNNN"
};
