/* XPM */
static char *result[] = {
/* columns rows colors chars-per-pixel */
"64 64 38 1 ",
"  c black",
". c #30201E",
"X c #272727",
"o c #2D2827",
"O c #343434",
"+ c #373737",
"@ c gray22",
"# c #3A3A3A",
"$ c #3F3F3F",
"% c #6B2416",
"& c #4B2020",
"* c #024356",
"= c gray33",
"- c gray46",
"; c #983200",
": c #98321D",
"> c #FE3131",
", c #AE4934",
"< c #B6503B",
"1 c #A7594C",
"2 c #C24F4F",
"3 c #DD5557",
"4 c #FE4F4F",
"5 c #C06757",
"6 c #D46E59",
"7 c #FE6D6D",
"8 c #DB8364",
"9 c #F28C77",
"0 c #E0AD7A",
"q c #008FC2",
"w c #00ADC2",
"e c #00ADE0",
"r c #10B3E1",
"t c #10BCEA",
"y c #00CBFE",
"u c gray53",
"i c gray63",
"p c #FECB98",
/* pixels */
"i==================u=====              =====               ====i",
"i=======================#              =====               ====i",
"i=u=============u========              u====               ====i",
"i====================u===              =====               ====i",
"i=======#======          66665<<<<<<<<<     :::::6666677777     ",
"i============##          66665<<<<<<<<<     :::::6666677777     ",
"i==============          66665<<<<<<<<<     :::::6666677777     ",
"i==============          66665<<<<<<<<<     :::::6666677777     ",
"i=========     <<<<<66666444432222&    <<<<<6666677777     ==u=i",
"i========u     <<<<<66666444432222&    <<<<<6666677777     ====i",
"i==u==uu==     <<<<<66666444432222&    <<<<<6666677777     ====i",
"i=========     <<<<<66666444432222&    <<<<<6666677777     ==#=i",
"i====     >>>>>:::::6666666665<<<<<<<<<444447777766666:::::     ",
"i====     >>>>>:::::6666666665<<<<<<<<<444447777766666:::::     ",
"iiiii     >>>>>:::::6666666665<<<<<<<<<444447777766666:::::     ",
"iiiii     >>>>>:::::6666666665<<<<<<<<<444447777766666:::::     ",
"i====     :::::<<<<<99999<<<<1000086666<<<<<6666677777:::::     ",
"i====     :::::<<<<<99999<<<<1000086666<<<<<6666677777:::::     ",
"i====     :::::<<<<<99999<<<<1000086666<<<<<6666677777:::::     ",
"i====     :::::<<<<<99999<<<<1000086666<<<<<6666677777:::::     ",
"i====u====     <<<<<<<<<<<<<<<<<<<<<<<<:::::<<<<<<<<<<     ====i",
"i=========     <<<<<<<<<<<<<<<<<<<<<<<<:::::<<<<<<<<<<     ====i",
"i=========     <<<<<<<<<<<<<<<<<<<<<<<<:::::<<<<<<<<<<     ====i",
"i=======u=     <<<<<<<<<<<<<<<<<<<<<<<<:::::<<<<<<<<<<     ====i",
"i==============     :::::<<<<,:::::::::<<<<<:::::66666     ====i",
"i==============     :::::<<<<,:::::::::<<<<<:::::66666     ====i",
"i===u==========     :::::<<<<,:::::::::<<<<<:::::66666     ====i",
"i=======#===uu=     :::::<<<<,:::::::::<<<<<:::::66666     ====i",
"i==============          ::::%    .6666:::::          00000     ",
"i==============          ::::%    .6666:::::          00000     ",
"i=======u======          ::::%    .6666:::::          00000     ",
"i==============          ::::%    .6666:::::          00000     ",
"i===#          00000+++++                   ++++++++++00000     ",
"i====          00000+++++                   ++++++++++00000     ",
"i====          00000+++++                   ++++++++++00000     ",
"i====          00000+++++                   ++++++++++00000     ",
"     ppppp00000     XXXXX++++@$$$$$$$$$++++++++++XXXXX     ====i",
"     ppppp00000     XXXXX++++@$$$$$$$$$++++++++++XXXXX     ====i",
"     ppppp00000     XXXXX++++@$$$$$$$$$++++++++++XXXXX     ====i",
"     ppppp00000     XXXXX++++@$$$$$$$$$++++++++++XXXXX     ====i",
"     0000000000     eeeeeXXXXo++++++++++++++XXXXXXXXXX=========i",
"     0000000000     eeeeeXXXXo++++++++++++++XXXXXXXXXX=======#=i",
"     0000000000     eeeeeXXXXo++++++++++++++XXXXXXXXXX=========i",
"     0000000000     eeeeeXXXXo++++++++++++++XXXXXXXXXX=========i",
"i====               eeeeeyyyyyyyyyreeeeeeeeeeeeeewwwww     ====i",
"i====               eeeeeyyyyyyyyyreeeeeeeeeeeeeewwwww     ====i",
"i===u               eeeeeyyyyyyyyyreeeeeeeeeeeeeewwwww     =u==i",
"i===u               eeeeeyyyyyyyyyreeeeeeeeeeeeeewwwww     ====i",
"i==============     eeeeeyyyyteeee*    eeeeeeeeeeqqqqq     ====i",
"i==============     eeeeeyyyyteeee*    eeeeeeeeeeqqqqq     ====i",
"i========u=====     eeeeeyyyyteeee*    eeeeeeeeeeqqqqq     ====i",
"i==============     eeeeeyyyyteeee*    eeeeeeeeeeqqqqq     ====i",
"i==========#===#====                   eeeeeeeeeeqqqqq     ==u=i",
"i==========-========                   eeeeeeeeeeqqqqq     ====i",
"i===================                   eeeeeeeeeeqqqqq     ====i",
"i=u===============#=                   eeeeeeeeeeqqqqq     ====i",
"i=================================O    ;;;;;;;;;;;;;;;     ====i",
"i=======#==uu=====================O    ;;;;;;;;;;;;;;;     ====i",
"i==========u=====u===u====#=======O    ;;;;;;;;;;;;;;;     ====i",
"i================================#O    ;;;;;;;;;;;;;;;     ====i",
"i================================#=====               =========i",
"i===u==#===============================               =========i",
"i======================================               ========#i",
"i=========u============================               ==#======i"
};
