/* XPM */
static char *MV9yZXNpemU_[] = {
/* columns rows colors chars-per-pixel */
"64 64 34 1 ",
"  c black",
". c gray1",
"X c #30201E",
"o c #272727",
"O c #2D2827",
"+ c #373737",
"@ c gray22",
"# c #3F3F3F",
"$ c #6B2416",
"% c #4B2020",
"& c #024356",
"* c #983200",
"= c #98321D",
"- c #FE3131",
"; c #AE4934",
": c #B6503B",
"> c #A7594C",
", c #C24F4F",
"< c #DD5557",
"1 c #FE4F4F",
"2 c #C06757",
"3 c #D46E59",
"4 c #FE6D6D",
"5 c #DB8364",
"6 c #F28C77",
"7 c #E0AD7A",
"8 c #008FC2",
"9 c #00ADC2",
"0 c #00ADE0",
"q c #10B3E1",
"w c #10BCEA",
"e c #00CBFE",
"r c #FECB98",
"t c None",
/* pixels */
"ttttttttttttttttttttttttt              ttttt               ttttt",
"ttttttttttttttttttttttttt              ttttt               ttttt",
"ttttttttttttttttttttttttt              ttttt               ttttt",
"ttttttttttttttttttttttttt              ttttt               ttttt",
"ttttttttttttttt          33332:::::::::     =====3333344444     ",
"ttttttttttttttt          33332:::::::::     =====3333344444     ",
"ttttttttttttttt          33332:::::::::     =====3333344444     ",
"ttttttttttttttt          33332:::::::::     =====3333344444     ",
"tttttttttt     :::::333331111<,,,,%    :::::3333344444     ttttt",
"tttttttttt     :::::333331111<,,,,%    :::::3333344444     ttttt",
"tttttttttt     :::::333331111<,,,,%    :::::3333344444     ttttt",
"tttttttttt     :::::333331111<,,,,%    :::::3333344444     ttttt",
"ttttt     -----=====3333333332:::::::::111114444433333=====     ",
"ttttt     -----=====3333333332:::::::::111114444433333=====     ",
"ttttt     -----=====3333333332:::::::::111114444433333=====     ",
"ttttt     -----=====3333333332:::::::::111114444433333=====     ",
"ttttt     =====:::::66666::::>777753333:::::3333344444=====     ",
"ttttt     =====:::::66666::::>777753333:::::3333344444=====     ",
"ttttt     =====:::::66666::::>777753333:::::3333344444=====     ",
"ttttt     =====:::::66666::::>777753333:::::3333344444=====     ",
"tttttttttt     ::::::::::::::::::::::::=====::::::::::     ttttt",
"tttttttttt     ::::::::::::::::::::::::=====::::::::::     ttttt",
"tttttttttt     ::::::::::::::::::::::::=====::::::::::     ttttt",
"tttttttttt     ::::::::::::::::::::::::=====::::::::::     ttttt",
"ttttttttttttttt     =====::::;=========:::::=====33333     ttttt",
"ttttttttttttttt     =====::::;=========:::::=====33333     ttttt",
"ttttttttttttttt     =====::::;=========:::::=====33333     ttttt",
"ttttttttttttttt     =====::::;=========:::::=====33333     ttttt",
"ttttttttttttttt          ====$    X3333=====          77777     ",
"ttttttttttttttt          ====$    X3333=====          77777     ",
"ttttttttttttttt          ====$    X3333=====          77777     ",
"ttttttttttttttt          ====$    X3333=====          77777     ",
"ttttt          77777+++++                   ++++++++++77777     ",
"ttttt          77777+++++                   ++++++++++77777     ",
"ttttt          77777+++++                   ++++++++++77777     ",
"ttttt          77777+++++                   ++++++++++77777     ",
"     rrrrr77777     ooooo++++@#########++++++++++ooooo     ttttt",
"     rrrrr77777     ooooo++++@#########++++++++++ooooo     ttttt",
"     rrrrr77777     ooooo++++@#########++++++++++ooooo     ttttt",
"     rrrrr77777     ooooo++++@#########++++++++++ooooo     ttttt",
"     7777777777     00000ooooO++++++++++++++ooooooooootttttttttt",
"     7777777777     00000ooooO++++++++++++++ooooooooootttttttttt",
"     7777777777     00000ooooO@+++++++++++++ooooooooootttttttttt",
"     7777777777     00000ooooO@@++++++++++++ooooooooootttttttttt",
"ttttt               00000eeeeeeeeeq0000000000000099999     ttttt",
"ttttt               00000eeeeeeeeeq0000000000000099999     ttttt",
"ttttt               00000eeeeeeeeeq0000000000000099999     ttttt",
"ttttt               00000eeeeeeeeeq0000000000000099999     ttttt",
"ttttttttttttttt     00000eeeew0000&    000000000088888     ttttt",
"ttttttttttttttt     00000eeeew0000&    000000000088888     ttttt",
"ttttttttttttttt     00000eeeew0000&    000000000088888     ttttt",
"ttttttttttttttt     00000eeeew0000&    000000000088888     ttttt",
"tttttttttttttttttttt                   000000000088888     ttttt",
"tttttttttttttttttttt                   000000000088888     ttttt",
"tttttttttttttttttttt                   000000000088888     ttttt",
"tttttttttttttttttttt                   000000000088888     ttttt",
"tttttttttttttttttttttttttttttttttt.    ***************     ttttt",
"tttttttttttttttttttttttttttttttttt.    ***************     ttttt",
"tttttttttttttttttttttttttttttttttt     ***************     ttttt",
"tttttttttttttttttttttttttttttttttt.    ***************     ttttt",
"ttttttttttttttttttttttttttttttttttttttt               tttttttttt",
"ttttttttttttttttttttttttttttttttttttttt               tttttttttt",
"ttttttttttttttttttttttttttttttttttttttt               tttttttttt",
"ttttttttttttttttttttttttttttttttttttttt               tttttttttt"
};
