/* XPM */
static char *result[] = {
/* columns rows colors chars-per-pixel */
"64 64 69 1 ",
"  c black",
". c #010101",
"X c #030202",
"o c #040404",
"O c #070606",
"+ c #070707",
"@ c #080707",
"# c #100A09",
"$ c #100C0B",
"% c #2E1C18",
"& c #272727",
"* c #282828",
"= c #3F302D",
"- c #373737",
"; c #3A3A3A",
": c gray23",
"> c #3C3C3C",
", c #3F3F3F",
"< c #6E1B0A",
"1 c #7A1400",
"2 c #731D09",
"3 c #632419",
"4 c #62291E",
"5 c #662A1C",
"6 c #452821",
"7 c #412E2A",
"8 c #743427",
"9 c gray32",
"0 c gray33",
"q c gray46",
"w c #983200",
"e c #8E3C17",
"r c #8E3E19",
"t c #98321D",
"y c #9E3823",
"u c #993824",
"i c #A03A25",
"p c #FE3131",
"a c #AD4732",
"s c #B6503B",
"d c #965C57",
"f c #A1574C",
"g c #A2574C",
"h c #A8584E",
"j c #BD5B47",
"k c #BA5A48",
"l c #BD6657",
"z c #A45F64",
"x c #C24F4F",
"c c #FE4F4F",
"v c #CF6D59",
"b c #D46E59",
"n c #D86B58",
"m c #DA6A58",
"M c #FE6D6D",
"N c #BA8B70",
"B c #F28C77",
"V c #DEAE7C",
"C c #E0AD7A",
"Z c #1C89B5",
"A c #2683AC",
"S c #008FC2",
"D c #03A5D5",
"F c #00ADE0",
"G c #00CBFE",
"H c gray53",
"J c gray63",
"K c #EEBE8F",
"L c #FECB98",
/* pixels */
"J000H00000000H00000000H             $0000              00000000J",
"J000000000000000000H000             $0000              00000000J",
"J0000000000000000000000             $0000              00H00000J",
"J00000000H0000000000000             $0000              00H00000J",
"J0000000000000         bbbbgssssssss8    tttttbbbbMMMMM    0000J",
"J0000000000;00         bbbbgssssssss8    tttttbbbbMMMMM    00H0J",
"J0000000000q00         bbbbgssssssss8    tttttbbbbMMMMM    0000J",
"J00000000=====ooooooooommmmdffff6666%oooouuuuunnnn77777oooo0000J",
"J0H000000     ssssbbbbbcccczxxxx    #ssssbbbbbMMMM     00000000J",
"J00000000     ssssbbbbbcccczxxxx    #ssssbbbbbMMMM     00000000J",
"J0000000;     ssssbbbbbcccczxxxx    #ssssbbbbbMMMM     000H0000J",
"J0000    pppppttttbbbbbbbbbgsssssssshccccMMMMMbbbbttttt    0000J",
"J0000    pppppttttbbbbbbbbbgsssssssshccccMMMMMbbbbttttt    0000J",
"J0000    pppppttttbbbbbbbbbgsssssssshccccMMMMMbbbbttttt    0000J",
"J000H    pppppttttbbbbbbbbbgsssssssshccccMMMMMbbbbttttt    0000J",
"J0000    tttttssssBBBBBssssNCCCCbbbblssssbbbbbMMMMttttt    000;J",
"J0000    tttttssssBBBBBssssNCCCCbbbblssssbbbbbMMMMttttt    0000J",
"J0000    tttttssssBBBBBssssNCCCCbbbblssssbbbbbMMMMttttt    0000J",
"J0000    tttttssssBBBBBssssNCCCCbbbblssssbbbbbMMMMttttt    0000J",
"J0H000000     ssssssssssssssssssssssattttsssssssss     00H00000J",
"J00000000     ssssssssssssssssssssssattttsssssssss     00000000J",
"J0000000;     ssssssssssssssssssssssattttsssssssss     00000000J",
"J00000000     ssssssssssssssssssssssattttsssssssss     00000000J",
"J0000000000000    tttttssssyttttttttisssstttttbbbb     00000000J",
"J0000000000000    tttttssssyttttttttisssstttttbbbb     00000000J",
"J0000000000000    tttttssssyttttttttisssstttttbbbb     000H00H0J",
"J00000000H0000         tttt@    vvvvktttt         9999900000000J",
"J00H00HH000000         tttt+    bbbbjtttt         0000000000000J",
"J0000000000000         tttt+    bbbbjtttt         00H00000000;0J",
"J0000000000000         tttt+    bbbbjtttt         00H0000;00000J",
"J00000000     ---------                  ---------     00000000J",
"JJJJJJJJJ     ---------                  ---------     JJJJJJJJJ",
"JJJJJJJJJ     ---------                  ---------     JJJJJJJJJ",
"J00000000     ---------                  ---------     00000000J",
"J0000    LLLLL&&&&-----,,,,,,,,,,,,,,,,,,-----&&&&LLLLL    0000J",
"J0000    LLLLL&&&&-----,,,,,,,,,,,,,,,,,,-----&&&&LLLLL    0000J",
"J0000    LLLLL&&&&-----,,,,,,,,,,,,,,,,,,-----&&&&LLLLL    0000J",
"J0000    LLLLL&&&&-----,,,,,,,,,,,,,,,,,,-----&&&&LLLLL    0000J",
"J0000    LLLLL&&&&--------->,,,,,,,,>---------&&&&LLLLL    0000J",
"J0000    LLLLL&&&&--------->,,,,,,,,>---------&&&&LLLLL    0000J",
"J0000    LLLLL&&&&--------->,,,,,,,,>---------&&&&LLLLL    0000J",
"OXXXXKKKKVVVVV....DDDDD;;;;::::::::::;;;;DDDDD....VVVVVKKKKXXXXO",
"     LLLLCCCCC    FFFFF::::::::::::::::::FFFFF    CCCCCLLLL     ",
"     LLLLCCCCC    FFFFF::::::::::::::::::FFFFF    CCCCCLLLL     ",
"     LLLLCCCCC    FFFFF::::::::::::::::::FFFFF    CCCCCLLLL     ",
"     CCCCCCCCC    FFFFFFFFFFFFFFFFFFFFFFFFFFFF    CCCCCCCCC     ",
"     CCCCCCCCC    FFFFFFFFFFFFFFFFFFFFFFFFFFFF    CCCCCCCCC     ",
"     CCCCCCCCC    FFFFFFFFFFFFFFFFFFFFFFFFFFFF    CCCCCCCCC     ",
"     CCCCCCCCC    FFFFFFFFFFFFFFFFFFFFFFFFFFFF    CCCCCCCCC     ",
"J000;             GGGGGFFFFFFFFFFFFFFFFFFGGGGG             0000J",
"J0000             GGGGGFFFFFFFFFFFFFFFFFFGGGGG             0000J",
"J0000             GGGGGFFFFFFFFFFFFFFFFFFGGGGG             0000J",
"J0000             GGGGGFFFFFFFFFFFFFFFFFFGGGGG             ;000J",
"J000000H000000    GGGGGFFFFASSSSSSSSZFFFFGGGGG    0000000000000J",
"J0000000000000    GGGGGFFFFASSSSSSSSZFFFFGGGGG    00;0000000000J",
"J0000000000000    GGGGGFFFFASSSSSSSSZFFFFGGGGG    0000000000000J",
"J000H00000;000    rrrrreeee4333333335eeeerrrrr    000000H000000J",
"J0000000000000    wwwwwwwww<111111112wwwwwwwww    0000000000000J",
"J0000000000000    wwwwwwwww<111111112wwwwwwwww    00000000000;0J",
"J0000000000000    wwwwwwwww<111111112wwwwwwwww    0000000000000J",
"J00000000000000000                            00000000000000000J",
"J000000000;000;000                            00000;;0000000000J",
"J000000000*0000000                            00000000000000000J",
"J000H0000000000000                            00H00000000000H00J"
};
