/* XPM */
static char *Ml9yZXNpemU_[] = {
/* columns rows colors chars-per-pixel */
"64 64 63 1 ",
"  c black",
". c #010101",
"X c #020101",
"o c #040404",
"O c #070707",
"+ c #080707",
"@ c #0F0B0A",
"# c #100A09",
"$ c #2E1C18",
"% c #272727",
"& c #3F2F2C",
"* c #373737",
"= c #3A3A3A",
"- c gray23",
"; c #3C3C3C",
": c #3F3F3F",
"> c #6E1B0A",
", c #7A1400",
"< c #731D09",
"1 c #632419",
"2 c #62291E",
"3 c #662A1C",
"4 c #452821",
"5 c #412E2A",
"6 c #743427",
"7 c #983200",
"8 c #8E3C17",
"9 c #8E3E19",
"0 c #98321D",
"q c #9E3823",
"w c #993824",
"e c #A03A25",
"r c #FE3131",
"t c #AD4732",
"y c #B6503B",
"u c #965C57",
"i c #A1574C",
"p c #A2574C",
"a c #A8584E",
"s c #BD5B47",
"d c #BA5A48",
"f c #BD6657",
"g c #A45F64",
"h c #C24F4F",
"j c #FE4F4F",
"k c #CF6D59",
"l c #D46E59",
"z c #D86B58",
"x c #DA6A58",
"c c #FE6D6D",
"v c #BA8B70",
"b c #F28C77",
"n c #DEAE7C",
"m c #E0AD7A",
"M c #1C89B5",
"N c #2683AC",
"B c #008FC2",
"V c #03A5D5",
"C c #00ADE0",
"Z c #00CBFE",
"A c #EEBE8F",
"S c #FECB98",
"D c None",
/* pixels */
"DDDDDDDDDDDDDDDDDDDDDDD             @DDDD              DDDDDDDDD",
"DDDDDDDDDDDDDDDDDDDDDDD             @DDDD              DDDDDDDDD",
"DDDDDDDDDDDDDDDDDDDDDDD             @DDDD              DDDDDDDDD",
"DDDDDDDDDDDDDDDDDDDDDDD             @DDDD              DDDDDDDDD",
"DDDDDDDDDDDDDD         llllpyyyyyyyy6    00000llllccccc    DDDDD",
"DDDDDDDDDDDDDD         llllpyyyyyyyy6    00000llllccccc    DDDDD",
"DDDDDDDDDDDDDD         llllpyyyyyyyy6    00000llllccccc    DDDDD",
"DDDDDDDDD&&&&&oooooooooxxxxupppp4444$oooowwwwwlxxx55555ooooDDDDD",
"DDDDDDDDD     yyyyllllljjjjghhhh    #yyyylllllcccc     DDDDDDDDD",
"DDDDDDDDD     yyyyllllljjjjghhhh    #yyyylllllcccc     DDDDDDDDD",
"DDDDDDDDD     yyyyllllljjjjghhhh    #yyyylllllcccc     DDDDDDDDD",
"DDDDD    rrrrr0000lllllllllpyyyyyyyyajjjjcccccllll00000    DDDDD",
"DDDDD    rrrrr0000lllllllllpyyyyyyyyajjjjcccccllll00000    DDDDD",
"DDDDD    rrrrr0000lllllllllpyyyyyyyyajjjjcccccllll00000    DDDDD",
"DDDDD    rrrrr0000lllllllllpyyyyyyyyajjjjcccccllll00000    DDDDD",
"DDDDD    00000yyyybbbbbyyyyvmmmmllllfyyyylllllcccc00000    DDDDD",
"DDDDD    00000yyyybbbbbyyyyvmmmmllllfyyyylllllcccc00000    DDDDD",
"DDDDD    00000yyyybbbbbyyyyvmmmmllllfyyyylllllcccc00000    DDDDD",
"DDDDD    00000yyyybbbbbyyyyvmmmmllllfyyyylllllcccc00000    DDDDD",
"DDDDDDDDD     yyyyyyyyyyyyyyyyyyyyyyt0000yyyyyyyyy     DDDDDDDDD",
"DDDDDDDDD     yyyyyyyyyyyyyyyyyyyyyyt0000yyyyyyyyy     DDDDDDDDD",
"DDDDDDDDD     yyyyyyyyyyyyyyyyyyyyyyt0000yyyyyyyyy     DDDDDDDDD",
"DDDDDDDDD     yyyyyyyyyyyyyyyyyyyyyyt0000yyyyyyyyy     DDDDDDDDD",
"DDDDDDDDDDDDDD    00000yyyyq00000000eyyyy00000llll     DDDDDDDDD",
"DDDDDDDDDDDDDD    00000yyyyq00000000eyyyy00000llll     DDDDDDDDD",
"DDDDDDDDDDDDDD    00000yyyyq00000000eyyyy00000llll     DDDDDDDDD",
"DDDDDDDDDDDDDD         0000+    kkkkd0000         DDDDDDDDDDDDDD",
"DDDDDDDDDDDDDD         0000o    lllls0000         DDDDDDDDDDDDDD",
"DDDDDDDDDDDDDD         0000+    lllls0000         DDDDDDDDDDDDDD",
"DDDDDDDDDDDDDD         0000+    lllls0000         DDDDDDDDDDDDDD",
"DDDDDDDDD     *********                  *********     DDDDDDDDD",
"DDDDDDDDD     *********                  *********     DDDDDDDDD",
"DDDDDDDDD     *********                  *********     DDDDDDDDD",
"DDDDDDDDD     *=*******                  *********     DDDDDDDDD",
"DDDDD    SSSSS%%%%*****::::::::::::::::::=****%%%%SSSSS    DDDDD",
"DDDDD    SSSSS%%%%*****:::::::::::::::::;*****%%%%SSSSS    DDDDD",
"DDDDD    SSSSS%%%%*****::::::::::::::::::=****%%%%SSSSS    DDDDD",
"DDDDD    SSSSS%%%%*****:::::::::::::::::;****=%%%%SSSSS    DDDDD",
"DDDDD    SSSSS%%%%*********;::::::::;*********%%%%SSSSS    DDDDD",
"DDDDD    SSSSS%%%%*********;::::::::;*********%%%%SSSSS    DDDDD",
"DDDDD    SSSSS%%%%=********-::::::::;*********%%%%SSSSS    DDDDD",
"  XXXAAASnnnnn    VVVVV=--------;;---====VVVVV    nnnnnAAAA  XXX",
"     SSSSmmmnn    CCCCV:-----------------CCCCC    mmmmmSSSS     ",
"     SSSSmmmnn    CCCCC;-----------------CCCCC    mmmmmSSSS     ",
"     SSSSmmmmm    CCCCC;-------;---------CCCCC    mmmmmSSSS     ",
"     mmmmmmmmm    CCCCCCCCCCCCCCCCCCCCCCCCCCCC    mmmmmmmmm     ",
"     mmmmmmmmm    CCCCCCCCCCCCCCCCCCCCCCCCCCCC    mmmmmmmmm     ",
"     mmmmmmmmm    CCCCCCCCCCCCCCCCCCCCCCCCCCCC    mmmmmmmmm     ",
"     mmmmmmmmm    CCCCCCCCCCCCCCCCCCCCCCCCCCCC    mmmmmmmmm     ",
"DDDDD             ZZZZZCCCCCCCCCCCCCCCCCCZZZZZ             DDDDD",
"DDDDD             ZZZZZCCCCCCCCCCCCCCCCCCZZZZZ             DDDDD",
"DDDDD             ZZZZZCCCCCCCCCCCCCCCCCCZZZZZ             DDDDD",
"DDDDD             ZZZZZCCCCCCCCCCCCCCCCCCZZZZZ             DDDDD",
"DDDDDDDDDDDDDD    ZZZZZCCCCNBBBBBBBBMCCCCZZZZZ    DDDDDDDDDDDDDD",
"DDDDDDDDDDDDDD    ZZZZZCCCCNBBBBBBBBMCCCCZZZZZ    DDDDDDDDDDDDDD",
"DDDDDDDDDDDDDD    ZZZZZVCCCNBBBBBBBBMCCCCZZZZZ    DDDDDDDDDDDDDD",
"DDDDDDDDDDDDDD    9999998882111111113988999999    DDDDDDDDDDDDDD",
"DDDDDDDDDDDDDD    777777777>,,,,,,,,<777777777    DDDDDDDDDDDDDD",
"DDDDDDDDDDDDDD    777777777>,,,,,,,,<777777777    DDDDDDDDDDDDDD",
"DDDDDDDDDDDDDD    777777777<,,,,,,,,<777777777    DDDDDDDDDDDDDD",
"DDDDDDDDDDDDDDDDDD                            DDDDDDDDDDDDDDDDDD",
"DDDDDDDDDDDDDDDDDD                            DDDDDDDDDDDDDDDDDD",
"DDDDDDDDDDDDDDDDDD                            DDDDDDDDDDDDDDDDDD",
"DDDDDDDDDDDDDDDDDD                            DDDDDDDDDDDDDDDDDD"
};
