/* XPM */
static char *result[] = {
/* columns rows colors chars-per-pixel */
"64 64 62 1 ",
"  c black",
". c #010101",
"X c gray1",
"o c #040404",
"O c #050404",
"+ c #0B0A0A",
"@ c #0C0B0B",
"# c #0C0C0C",
"$ c #1A1615",
"% c #1B1615",
"& c #272727",
"* c #302725",
"= c #3E2C27",
"- c #352D2B",
"; c #373737",
": c #3A3A3A",
"> c gray23",
", c #3D3A39",
"< c #3F3F3F",
"1 c #4F2820",
"2 c #514E4E",
"3 c gray33",
"4 c gray46",
"5 c #983200",
"6 c #98321D",
"7 c #98331E",
"8 c #8D3D3C",
"9 c #A13B26",
"0 c #A33D28",
"q c #FE3131",
"w c #AA4530",
"e c #AC4631",
"r c #B6503B",
"t c #9A5A54",
"y c #AA564A",
"u c #8E6C55",
"i c #A5655F",
"p c #A86259",
"a c #88646A",
"s c #C24F4F",
"d c #FE4F4F",
"f c #D76B58",
"g c #D46E59",
"h c #CD776A",
"j c #F56F6D",
"k c #FE6D6D",
"l c #E0736B",
"z c #BA8F68",
"x c #D89C74",
"c c #F28C77",
"v c #E0AD7A",
"b c #3F9AB8",
"n c #5095AF",
"m c #008FC2",
"M c #00ADC2",
"N c #19A5D0",
"B c #00ADE0",
"V c #00CBFE",
"C c gray53",
"Z c gray63",
"A c gray67",
"S c #FECB98",
/* pixels */
"Z333:333333:3333C333              @3333#              333333333Z",
"Z3333333C33333333333              @3333#              333333333Z",
"Z3333333333333333333              @3333#              333333333Z",
"Z3333333333334333333              @3333#              33333:333Z",
"Z333333C33          gggggrrrrrrrrr1    %6666pggggjkkkk     3333Z",
"Z333333333          gggggrrrrrrrrr1    %6666pggggjkkkk     3333Z",
"Z333333333          gggggrrrrrrrrr1    %6666pggggjkkkk     3333Z",
"Z333C33333          gggggrrrrrrrrr1    %6666pggggjkkkk     3333Z",
"Z3333     rrrrrgggggdddddssss8    +rrrragggglkkkk.    333333333Z",
"Z3333     rrrrrgggggdddddssss8    +rrrragggglkkkk.    3333333:3Z",
"Z3333     rrrrrgggggdddddssss8    +rrrragggglkkkk.    333333333Z",
"Z3333     rrrrrgggggdddddssss8    +rrrragggglkkkk.    333333333Z",
"     qqqqq66666ggggggggggrrrrrrrrrtddddhkkkkfgggg76666     3333Z",
"     qqqqq66666ggggggggggrrrrrrrrrtddddhkkkkfgggg76666     3333Z",
"     qqqqq66666ggggggggggrrrrrrrrrtddddhkkkkfgggg76666     3C33Z",
"     qqqqq66666ggggggggggrrrrrrrrrtddddhkkkkfgggg76666     3333Z",
"     66666rrrrrcccccrrrrrvvvvxggggirrrragggglkkkk76666     3333Z",
"     66666rrrrrcccccrrrrrvvvvxggggirrrragggglkkkk76666     3333Z",
"     66666rrrrrcccccrrrrrvvvvxggggirrrragggglkkkk76666     3333Z",
"     66666rrrrrcccccrrrrrvvvvxggggirrrragggglkkkk76666     3333Z",
"Z3333     rrrrrrrrrrrrrrrrrrrrrrrre6666wrrrrrrrrr.    3333333C3Z",
"Z3333     rrrrrrrrrrrrrrrrrrrrrrrre6666wrrrrrrrrr.    333333333Z",
"Z3333     rrrrrrrrrrrrrrrrrrrrrrrre6666wrrrrrrrrr.    333333333Z",
"Z3C33     rrrrrrrrrrrrrrrrrrrrrrrre6666wrrrrrrrrr.    333333333Z",
"Z3333          66666rrrrr6666666669rrrr06666pgggg.    333333333Z",
"Z3333          66666rrrrr6666666669rrrr06666pgggg.    3333C3333Z",
"Z3333          66666rrrrr6666666669rrrr06666pgggg.    333333333Z",
"Z3333          66666rrrrr6666666669rrrr06666pgggg.    333333333Z",
"     vvvvv          66666    Xggggy6666#         23333333333333Z",
"     vvvvv          66666    Xggggy6666#         23333333333333Z",
"     vvvvv          66666    Xggggy6666#         2333333333333:Z",
"     vvvvv          66666    Xggggy6666#         2C33333:333333Z",
"     vvvvv;;;;;;;;;;                   $;;;;uvvvv.         3333Z",
"     vvvvv;;;;;;;;;;                   $;;;;uvvvv.         3333Z",
"     vvvvv;;;;;;;;;;                   $;;;;uvvvv.         3333Z",
"     vvvvv;;;;;;;;;;                   $;;;;uvvvv.         3333Z",
"Z3333     &&&&&;;;;;;;;;;<<<<<<<<<>;;;;*&&&&o    zvvvvSSSSS     ",
"Z3333     &&&&&;;;;;;;;;;<<<<<<<<<>;;;;*&&&&o    zvvvvSSSSS     ",
"Z3333     &&&&&;;;;;;;;;;<<<<<<<<<>;;;;*&&&&o    zvvvvSSSSS     ",
"Z3333     &&&&&;;;;;;;;;;<<<<<<<<<>;;;;*&&&&o    zvvvvSSSSS     ",
"Z333333333&&&&&&&&&&;;;;;;;;;;;;;;-&&&&=BBBBO    zvvvvvvvvv     ",
"Z33333333C&&&&&&&&&&;;;;;;;;;;;;;;-&&&&=BBBBO    zvvvvvvvvv     ",
"Z33C33CC33&&&&&&&&&&;;;;;;;;;;;;;;-&&&&=BBBBO    zvvvvvvvvv     ",
"Z333333333&&&&&&&&&&;;;;;;;;;;;;;;-&&&&=BBBBO    zvvvvvvvvv     ",
"Z3333     MMMMMBBBBBBBBBBBBBBNVVVVVVVVVnBBBBO              3333Z",
"Z3333     MMMMMBBBBBBBBBBBBBBNVVVVVVVVVnBBBBO              3333Z",
"ZZZZZ     MMMMMBBBBBBBBBBBBBBNVVVVVVVVVnBBBBO              ZZZZZ",
"ZZZZZ     MMMMMBBBBBBBBBBBBBBNVVVVVVVVVnBBBBO              ZZZZZ",
"Z3333     mmmmmBBBBBBBBBB    XBBBBbVVVVnBBBBO    23333333333333Z",
"Z3333     mmmmmBBBBBBBBBB    XBBBBbVVVVnBBBBO    23333333333333Z",
"Z3333     mmmmmBBBBBBBBBB    XBBBBbVVVVnBBBBO    2:333:33333333Z",
"Z3333     mmmmmBBBBBBBBBB    XBBBBbVVVVnBBBBO    23333333333333Z",
"Z3333     mmmmmBBBBBBBBBB                   ,333333333333333333Z",
"Z3333     mmmmmBBBBBBBBBB                   ,333333C333333A3333Z",
"Z3333     mmmmmBBBBBBBBBB                   ,333333C33333333333Z",
"Z3333     mmmmmBBBBBBBBBB                   ,333333333333333333Z",
"Z3333     555555555555555    X333333333333333333333333333333333Z",
"Z3333     555555555555555    X33333333333333333:333333333333333Z",
"Z333C     555555555555555    X333333333333:3333:33333:333333333Z",
"Z3333     555555555555555    X33C333333333333333333333333C33333Z",
"Z333333333               3333333333333333333333333333333CC33333Z",
"Z333333333               33333333333333333333333333333333333333Z",
"Z3333333C3               333333333:33333333333333333C3333333333Z",
"Z333333333               333333333333333C3333333333333333333333Z"
};
