/* XPM */
static char *M19yZXNpemU_[] = {
/* columns rows colors chars-per-pixel */
"64 64 55 1 ",
"  c black",
". c #010101",
"X c gray1",
"o c #040404",
"O c #050404",
"+ c #0B0A0A",
"@ c #0C0C0C",
"# c #1A1615",
"$ c #1B1615",
"% c #281F1B",
"& c #272727",
"* c #302725",
"= c #3E2C27",
"- c #352D2B",
"; c #373737",
": c gray23",
"> c #3F3F3F",
", c #4F2820",
"< c #983200",
"1 c #98321D",
"2 c #98331E",
"3 c #8D3D3C",
"4 c #A13B26",
"5 c #A33D28",
"6 c #FE3131",
"7 c #AA4530",
"8 c #AC4631",
"9 c #B6503B",
"0 c #9A5A54",
"q c #AA564A",
"w c #8E6C55",
"e c #A5655F",
"r c #A86259",
"t c #88646A",
"y c #C24F4F",
"u c #FE4F4F",
"i c #D76B58",
"p c #D46E59",
"a c #CD776A",
"s c #F56F6D",
"d c #FE6D6D",
"f c #E0736B",
"g c #BA8F68",
"h c #D89C74",
"j c #F28C77",
"k c #E0AD7A",
"l c #3F9AB8",
"z c #5095AF",
"x c #008FC2",
"c c #00ADC2",
"v c #19A5D0",
"b c #00ADE0",
"n c #00CBFE",
"m c #FECB98",
"M c None",
/* pixels */
"MMMMMMMMMMMMMMMMMMMM              +MMMM@              MMMMMMMMMM",
"MMMMMMMMMMMMMMMMMMMM              +MMMM@              MMMMMMMMMM",
"MMMMMMMMMMMMMMMMMMMM              +MMMM@              MMMMMMMMMM",
"MMMMMMMMMMMMMMMMMMMM              +MMMM@              MMMMMMMMMM",
"MMMMMMMMMM          ppppp999999999,    $1111rppppsdddd     MMMMM",
"MMMMMMMMMM          ppppp999999999,    $1111rppppsdddd     MMMMM",
"MMMMMMMMMM          ppppp999999999,    $1111rppppsdddd     MMMMM",
"MMMMMMMMMM          ppppp999999999,    $1111rppppsdddd     MMMMM",
"MMMMM     99999pppppuuuuuyyyy3    +9999tppppfdddd     MMMMMMMMMM",
"MMMMM     99999pppppuuuuuyyyy3    +9999tppppfdddd     MMMMMMMMMM",
"MMMMM     99999pppppuuuuuyyyy3    +9999tppppfdddd     MMMMMMMMMM",
"MMMMM     99999pppppuuuuuyyyy3    +9999tppppfdddd     MMMMMMMMMM",
"     6666611111pppppppppp9999999990uuuuaddddipppp22211     MMMMM",
"     6666611111pppppppppp9999999990uuuuaddddipppp21111     MMMMM",
"     6666611111pppppppppp9999999990uuuuaddddipppp21111     MMMMM",
"     6666611111pppppppppp9999999990uuuuaddddipppp21111     MMMMM",
"     1111199999jjjjj99999kkkkhppppe9999tppppfdddd21111     MMMMM",
"     1111199999jjjjj99999kkkkhppppe9999tppppfdddd21111     MMMMM",
"     1111199999jjjjj99999kkkkhppppe9999tppppfdddd21111     MMMMM",
"     1111199999jjjjj99999kkkkhppppe9999tppppfdddd21111     MMMMM",
"MMMMM     999999999999999999999999711117999999999     MMMMMMMMMM",
"MMMMM     999999999999999999999999811117999999999     MMMMMMMMMM",
"MMMMM     999999999999999999999999811128999999999O    MMMMMMMMMM",
"MMMMM     999999999999999999999999811228999999999     MMMMMMMMMM",
"MMMMM          11111999991111111114999951111rpppp     MMMMMMMMMM",
"MMMMM          11111999991111111114999951111rpppp     MMMMMMMMMM",
"MMMMM          11111999991111122114999951111rpppp     MMMMMMMMMM",
"MMMMM          11111999991111122114999951112rppppX    MMMMMMMMMM",
"     kkkkk          11111     ppppq1111@         MMMMMMMMMMMMMMM",
"     kkkkk          11111    Oppppq1111@         MMMMMMMMMMMMMMM",
"     kkkkk          11111    Xppppq1111@         MMMMMMMMMMMMMMM",
"     kkkkk          11111    Oppppq1111@         MMMMMMMMMMMMMMM",
"     kkkkk;;;;;;;;;;                   $;;;;wkkkk          MMMMM",
"     kkkkk;;;;;;;;;;                   $;;;;wkkkk          MMMMM",
"     kkkkk;;;;;;;;;;                   $;;;;wkkkk          MMMMM",
"     kkkkk;;;;;;;;;;                   $;;;;wkkkk          MMMMM",
"MMMMM     &&&&&;;;;;;;;;;>>>>>>>>>:;;;;*&&&&O    gkkkkmmmmm     ",
"MMMMM     &&&&&;;;;;;;;;;>>>>>>>>>:;;;;*&&&&X    gkkkkmmmmm     ",
"MMMMM     &&&&&;;;;;;;;;;>>>>>>>>>:;;;;*&&&&O    gkkkkmmmmm     ",
"MMMMM     &&&&&;;;;;;;;;;>>>>>>>>>:;;;;*&&&&O    gkkkkmmmmm     ",
"MMMMMMMMMM&&&&&&&&&&;;;;;;;;;;;;;;-&&&&=bbbbO    gkkkkkkkkk     ",
"MMMMMMMMMM&&&&&&&&&&;;;;;;;;;;;;;;-&&&&=bbbbO    gkkkkkkkkk     ",
"MMMMMMMMMM&&&&&&&&&&;;;;;;;;;;;;;;-&&&&=bbbbO    gkkkkkkkkk     ",
"MMMMMMMMMM&&&&&&&&&&;;;;;;;;;;;;;;-&&&&=bbbbO    gkkkkkkkkk     ",
"MMMMM     cccccbbbbbbbbbbbbbbvnnnnnnnnnzbbbbO              MMMMM",
"MMMMM     cccccbbbbbbbbbbbbbbvnnnnnnnnnzbbbbO              MMMMM",
"MMMMM     cccccbbbbbbbbbbbbbbvnnnnnnnnnzbbbbO              MMMMM",
"MMMMM     cccccbbbbbbbbbbbbbbvnnnnnnnnnzbbbbO              MMMMM",
"MMMMM     xxxxxbbbbbbbbbb    XbbbblnnnnzbbbbO    MMMMMMMMMMMMMMM",
"MMMMM     xxxxxbbbbbbbbbb    XbbbblnnnnzbbbbO    MMMMMMMMMMMMMMM",
"MMMMM     xxxxxbbbbbbbbbb    XbbbblnnnnzbbbbO    MMMMMMMMMMMMMMM",
"MMMMM     xxxxxbbbbbbbbbb    XbbbbznnnnzbbbbO    MMMMMMMMMMMMMMM",
"MMMMM     xxxxxbbbbbbbbbb       X           %MMMMMMMMMMMMMMMMMMM",
"MMMMM     xxxxxbbbbbbbbbb       X           %MMMMMMMMMMMMMMMMMMM",
"MMMMM     xxxxxbbbbbbbbbb                   %MMMMMMMMMMMMMMMMMMM",
"MMMMM     xxxxxbbbbbbbbbb                   %MMMMMMMMMMMMMMMMMMM",
"MMMMM     <<<<<<<<<<<<<<<    XMMMMMMMMMMMMMMMMMMMMMMMMMMMMMMMMMM",
"MMMMM     <<<<<<<<<<<<<<<    XMMMMMMMMMMMMMMMMMMMMMMMMMMMMMMMMMM",
"MMMMM     <<<<<<<<<<<<<<<    XMMMMMMMMMMMMMMMMMMMMMMMMMMMMMMMMMM",
"MMMMM     <<<<<<<<<<<<<<<    XMMMMMMMMMMMMMMMMMMMMMMMMMMMMMMMMMM",
"MMMMMMMMMM               MMMMMMMMMMMMMMMMMMMMMMMMMMMMMMMMMMMMMMM",
"MMMMMMMMMM               MMMMMMMMMMMMMMMMMMMMMMMMMMMMMMMMMMMMMMM",
"MMMMMMMMMM               MMMMMMMMMMMMMMMMMMMMMMMMMMMMMMMMMMMMMMM",
"MMMMMMMMMM               MMMMMMMMMMMMMMMMMMMMMMMMMMMMMMMMMMMMMMM"
};
