/* XPM */
static char *result[] = {
/* columns rows colors chars-per-pixel */
"64 64 62 1 ",
"  c black",
". c #020101",
"X c #040404",
"o c #080707",
"O c #0F0B0A",
"+ c #100A09",
"@ c #2E1C18",
"# c #272727",
"$ c #3F2F2C",
"% c #373737",
"& c #3A3A3A",
"* c gray23",
"= c #3C3C3C",
"- c #3F3F3F",
"; c #6E1B0A",
": c #7A1400",
"> c #731D09",
", c #632419",
"< c #62291E",
"1 c #662A1C",
"2 c #452821",
"3 c #412E2A",
"4 c #743427",
"5 c gray33",
"6 c gray37",
"7 c #983200",
"8 c #8E3C17",
"9 c #8E3E19",
"0 c #98321D",
"q c #9E3823",
"w c #993824",
"e c #A03A25",
"r c #FE3131",
"t c #AD4732",
"y c #B6503B",
"u c #965C57",
"i c #A2574C",
"p c #A8584E",
"a c #BD5B47",
"s c #BA5A48",
"d c #BD6657",
"f c #A45F64",
"g c #C24F4F",
"h c #FE4F4F",
"j c #CF6D59",
"k c #D46E59",
"l c #DA6A58",
"z c #FE6D6D",
"x c #BA8B70",
"c c #F28C77",
"v c #DEAE7C",
"b c #E0AD7A",
"n c #1C89B5",
"m c #2683AC",
"M c #008FC2",
"N c #03A5D5",
"B c #00ADE0",
"V c #00CBFE",
"C c gray53",
"Z c gray63",
"A c #EEBE8F",
"S c #FECB98",
/* pixels */
"ZZZZZZZZZZZZZZZZZZZZZZZ             OZZZZ              ZZZZZZZZZ",
"Z5555555555555555555555             O5555              55555555Z",
"Z5555555555555555555555             O5555              55555555Z",
"Z5555555555555555555555             O5555              55555555Z",
"Z5555555555CC5         kkkkiyyyyyyyy4    00000kkkkzzzzz    5555Z",
"Z5555C55555555         kkkkiyyyyyyyy4    00000kkkkzzzzz    5555Z",
"Z5555555555555         kkkkiyyyyyyyy4    00000kkkkzzzzz    5555Z",
"Z55555555$$$$$XXXXXXXXXlllluiiii2222@XXXXwwwwwklll33333XXXX5555Z",
"Z5555555C     yyyykkkkkhhhhfgggg    +yyyykkkkkzzzz     55555555Z",
"Z55555555     yyyykkkkkhhhhfgggg    +yyyykkkkkzzzz     55555555Z",
"Z55555555     yyyykkkkkhhhhfgggg    +yyyykkkkkzzzz     55555555Z",
"Z555C    rrrrr0000kkkkkkkkkiyyyyyyyyphhhhzzzzzkkkk00000    5555Z",
"Z5555    rrrrr0000kkkkkkkkkiyyyyyyyyphhhhzzzzzkkkk00000    5555Z",
"Z5555    rrrrr0000kkkkkkkkkiyyyyyyyyphhhhzzzzzkkkk00000    5555Z",
"Z5555    rrrrr0000kkkkkkkkkiyyyyyyyyphhhhzzzzzkkkk00000    5555Z",
"Z5555    00000yyyycccccyyyyxbbbbkkkkdyyyykkkkkzzzz00000    5555Z",
"Z5555    00000yyyycccccyyyyxbbbbkkkkdyyyykkkkkzzzz00000    5555Z",
"Z555&    00000yyyycccccyyyyxbbbbkkkkdyyyykkkkkzzzz00000    5555Z",
"Z5555    00000yyyycccccyyyyxbbbbkkkkdyyyykkkkkzzzz00000    5555Z",
"Z55555555     yyyyyyyyyyyyyyyyyyyyyyt0000yyyyyyyyy     55555555Z",
"Z55555555     yyyyyyyyyyyyyyyyyyyyyyt0000yyyyyyyyy     5555&555Z",
"Z555555C5     yyyyyyyyyyyyyyyyyyyyyyt0000yyyyyyyyy     55555555Z",
"Z55555555     yyyyyyyyyyyyyyyyyyyyyyt0000yyyyyyyyy     55555555Z",
"Z5555555555555    00000yyyyq00000000eyyyy00000kkkk     55555555Z",
"Z555C55555&555    00000yyyyq00000000eyyyy00000kkkk     5C555555Z",
"Z5555555555555    00000yyyyq00000000eyyyy00000kkkk     55555555Z",
"Z5555555555555         0000o    jjjjs0000         55555555555&5Z",
"Z5555555555555         0000X    kkkka0000         5555555555555Z",
"Z5555555555555         0000o    kkkka0000         5555555555555Z",
"Z555555555&555         0000o    kkkka0000         5&&5555555555Z",
"Z55555555     %%%%%%%%%                  %%%%%%%%%     55555555Z",
"Z555C5555     %%%%%%%%%                  %%%%%%%%%     55555C55Z",
"Z555C5555     %%%%%%%%%                  %%%%%%%%%     55555555Z",
"Z55555555     %&%%%%%%%                  %%%%%%%%%     55555555Z",
"Z5555    SSSSS####%%%%%------------------&%%%%####SSSSS    5555Z",
"Z5555    SSSSS####%%%%%-----------------=%%%%%####SSSSS    5555Z",
"Z5555    SSSSS####%%%%%------------------&%%%%####SSSSS    5555Z",
"Z5555    SSSSS####%%%%%-----------------=%%%%&####SSSSS    55C5Z",
"Z5555    SSSSS####%%%%%%%%%=--------=%%%%%%%%%####SSSSS    5555Z",
"Z5555    SSSSS####%%%%%%%%%=--------=%%%%%%%%%####SSSSS    5555Z",
"Z5C55    SSSSS####&%%%%%%%%*--------=%%%%%%%%%####SSSSS    5555Z",
"  ...AAASvvvvv    NNNNN&********==***&&&&NNNNN    vvvvvAAAA  ...",
"     SSSSbbbvv    BBBBN-*****************BBBBB    bbbbbSSSS     ",
"     SSSSbbbvv    BBBBB=*****************BBBBB    bbbbbSSSS     ",
"     SSSSbbbbb    BBBBB=*******=*********BBBBB    bbbbbSSSS     ",
"     bbbbbbbbb    BBBBBBBBBBBBBBBBBBBBBBBBBBBB    bbbbbbbbb     ",
"     bbbbbbbbb    BBBBBBBBBBBBBBBBBBBBBBBBBBBB    bbbbbbbbb     ",
"     bbbbbbbbb    BBBBBBBBBBBBBBBBBBBBBBBBBBBB    bbbbbbbbb     ",
"     bbbbbbbbb    BBBBBBBBBBBBBBBBBBBBBBBBBBBB    bbbbbbbbb     ",
"Z5555             VVVVVBBBBBBBBBBBBBBBBBBVVVVV             5555Z",
"Z5555             VVVVVBBBBBBBBBBBBBBBBBBVVVVV             5555Z",
"Z5C55             VVVVVBBBBBBBBBBBBBBBBBBVVVVV             5555Z",
"Z5555             VVVVVBBBBBBBBBBBBBBBBBBVVVVV             5555Z",
"Z5555555&55555    VVVVVBBBBmMMMMMMMMnBBBBVVVVV    5555555555555Z",
"Z555555555555&    VVVVVBBBBmMMMMMMMMnBBBBVVVVV    5555555555555Z",
"Z5555555555555    VVVVVNBBBmMMMMMMMMnBBBBVVVVV    5555C55555555Z",
"Z5555555555555    999999888<,,,,,,,,1988999999    6555555555555Z",
"Z5555555555555    777777777;::::::::>777777777    5C555555C55C5Z",
"Z55555555C5555    777777777;::::::::>777777777    5555555555555Z",
"Z55C55CC555555    777777777>::::::::>777777777    5555555555555Z",
"Z555555555555555C5                            55&555C55555555&5Z",
"Z55555555555555555                            555555C5555&55555Z",
"Z55555555555555555                            55555555555555555Z",
"ZZZZZZZZZZZZZZZZZZ                            ZZZZZZZZZZZZZZZZZZ"
};
