/* XPM */
static char *result[] = {
/* columns rows colors chars-per-pixel */
"64 64 74 1 ",
"  c black",
". c #030202",
"X c #090808",
"o c #0B0B0B",
"O c #071215",
"+ c #0A1416",
"@ c #121010",
"# c gray7",
"$ c #141211",
"% c #161212",
"& c #1B1514",
"* c #1B1B1B",
"= c #1D1D1D",
"- c #231B19",
"; c #2B211E",
": c #2E201C",
"> c #272727",
", c #2C2220",
"< c #2C2221",
"1 c #2D2321",
"2 c #373737",
"3 c #3A3A3A",
"4 c gray23",
"5 c #3C3B3A",
"6 c #3F3F3F",
"7 c #584335",
"8 c gray33",
"9 c #705A44",
"0 c #78614B",
"q c #983200",
"w c #98321D",
"e c #FE3131",
"r c #8A4030",
"t c #A7412C",
"y c #B6503B",
"u c #915D5A",
"i c #935C5E",
"p c #AC5342",
"a c #A57555",
"s c #8B6064",
"d c #8A656D",
"f c #C24F4F",
"g c #FE4F4F",
"h c #E95E54",
"j c #D46E59",
"k c #E0665A",
"l c #CB7F6E",
"z c #D27060",
"x c #FE6D6D",
"c c #E7777C",
"v c #BB9571",
"b c #C28F5C",
"n c #F28C77",
"m c #E0AD7A",
"M c #379EBF",
"N c #4B96B2",
"B c #6293A5",
"V c #10A7D5",
"C c #00ADE0",
"Z c #41B4D9",
"A c #00CBFE",
"S c #1DCBFE",
"D c #27C5F5",
"F c #1DE9FE",
"G c gray53",
"H c #B89490",
"J c #B296A0",
"K c gray63",
"L c gray67",
"P c #D88186",
"I c #FECB98",
"U c #FECD9A",
"Y c #FEE9B6",
"T c gray88",
/* pixels */
"K888888888888888888888888888888888888888G8888888888888888888888K",
"K888388888838888G8888888G88G88888888888888888888838888888888888K",
"K8888888G888888888888888888888883888888888888888888888888888888K",
"K888888888              &8888                    88888888888888K",
"K888888888              &8888                    88888888883888K",
"K888888G88              &8888.                   88888888888888K",
"K888888888              &8888.                   88838888888888K",
"K8888     xxxxxTTTTHwwwwo    ryyyyyyyyyjjjjjeeeee     888888888K",
"K888G     xxxxxTTTTHwwwwo   .ryyyyyyyyyjjjjjeeeee     88G888888K",
"K8888     xxxxxTTTTHwwwwo   .ryyyyyyyyyjjjjjeeeee     888888888K",
"K8888     xxxxxTTTTHwwwwo    ryyyyyyyyyjjjjjeeeee     888888838K",
"K888888888     xxxxPTTTTuyyyyyyyyyfffffgggggTTTTTyyyyy     8888K",
"K888888888     xxxxPTTTTuyyyyyyyyyfffffgggggTTTTTyyyyy     8888K",
"K888888888     xxxxPTTTTuyyyypyyyyfffffgggggTTTTTyyyyy     8888K",
"K8888@@@@@@@@@@xxxxcJJJJdsssipyyyyiiiiikhhhhjzzzzttttt@@@@@@@@@%",
"K888G     wwwwwxxxxxxxxxkggggpyyyyyyyyyjjjjjjjjjjwwwwweeeee    .",
"K888G     wwwwwxxxxxxxxxkggggpyyyyyyyyyjjjjjjjjjjwwwwweeeee    .",
"K8888     wwwwwxxxxxxxxxkggggpypyyyyyyyjjjjjjjjjjwwwwweeeee    .",
"K8888     wwwwwjjjjjjjjjlYYYYUUUIImmmmmyyyyynnnnnjjjjjwwwww    .",
"K8888     wwwwwjjjjjjjjjlYYYYUUUIImmmmmyyyyynnnnnjjjjjwwwww    .",
"K8888     wwwwwjjjjjjjjjlYYYYUIIIImmmmmyyyyynnnnnjjjjjwwwww    .",
"K8888     wwwwwjjjjjjjjjbYYYYUIIIImmmmmyyyyynnnnnjjjjjwwwww    .",
"K888888888         XYYYYo    vIIIIIIIII     bbbbb          8888K",
"K888888888         XYYYYX    vIIIIIIIII     bbbbb          8888K",
"K8G8888888         XYYYYX    vIIIIIIIII     bbbbb          8888K",
"K888888888         XYYYYo    vIIIIIIIII     bbbbb          8888K",
"K8888888388GG88    XIIIIo    vIIIIIIIII     bbbbb     8888G8888K",
"K8888888888G888    XIIIIo    vIIIIIIIII     bbbbb     888888888K",
"K88888888888888    XIIIIo    vIIIIIIIII     bbbbb     888888888K",
"K88888888888888    XIIIIo    vIIIIIIIII     bbbbb     888888888K",
"K888G88388     >>>>*    ;mmmmmmmmmmmmmmbbbbb     IIIII     8888K",
"K888888888     >>>>*    ;mmmmmmmmmmmmmmbbbbb     IIIII     8883K",
"K888888888     >>>>*    ;mmmmmmmmmmmmmmbbbbb     UIIII     8888K",
"K8888;;;;;9999900007====@1;<,,11<<<<<<;::;::@$#@#1<<<<     ;;;;<",
"K8888     IIIIImmmma6666o                   >>>>>              .",
"K8G88     IIIIImmmma6666o                   >>>>>              .",
"K8888     IIIIImmmma6666o                   >>>>>              .",
"     IIIIImmmmm    X6666666666666622422>>>>>     IIIIImmmmm    .",
"     IIIIImmmmm    X6666666666666622222>>>>>     IIIIImmmmm    .",
"     IIIIImmmmm    X6666666666666622222>>>>>     IIIIImmmmm    .",
"     IIIUImmmmm    X6666666666666622222>>>>>     IIIIUmmmmm    .",
"K8888              XFFFFZAAAA5444444444=====     mmmmmmmmmm    .",
"K8888              XFFFFZAAAA5444444444=====     mmmmmmmmmm    .",
"K88G8              XFFFFZAAAA5444444444=====     mmmmmmmmmm    .",
"K8888              XFFFFZAAAA5444444444=====     mmmmmmmmmm    .",
"K88888888888888    XFFFFZAAAADSSSSCCCCCCCCCCCCCCC          8888K",
"K88888888888888    XFFFFZAAAADSSSSCCCCCCCCCCCCCCC          8888K",
"KKKKKKKKKKKKKKK    XFFFFZAAAADSSSSCCCCCCCCCCCCCCC          KKKKK",
"KKKKKKKKKKKKKKK    XFFFFZAAAADSSSSCCCCCCCCCCCCCCC          KKKKK",
"K88888888888888    XAAAAAAAAAVCCCC     CCCCCCCCCC     888888888K",
"K88888888888888    XAAAAAAAAAVCCCC     CCCCCCCCCC     888888888K",
"K88888888888888    XAAAAAAAAAVCCCC     CCCCCCCCCC     388888888K",
"K8888888888GG88    XAAAABMMMM+OOOO     OOOOOOOOOO-----888888888K",
"K8888G888888888    XAAAANCCCC.                   88888888888888K",
"K88888888888888    XAAAANCCCC.                   88G888888L8888K",
"K88888888888888    XAAAANCCCC.                   88G88888888888K",
"K8888888G888883    Xqqqqqqqqq.    GG888888888888888888888888888K",
"K88888888888888    Xqqqqqqqqq     88888888888888888888888888888K",
"K88888888888888    Xqqqqqqqqq     88888888888883888888888888888K",
"K888G8888888888    Xqqqqqqqqq.    88888888388883888883888888888K",
"K88888883888GG8888G8         888G888888888888888888888888G88888K",
"K8888888888888888888         888888888888888888888888888GG88888K",
"K8888888888888888888         8888888888888888888888888888888888K",
"K8888888G88888888888         88888388888888888888888G8888888888K"
};
