/* XPM */
static char *MV9yZXNpemU_[] = {
/* columns rows colors chars-per-pixel */
"64 64 73 1 ",
"  c black",
". c #020202",
"X c #030202",
"o c #090808",
"O c #0B0B0B",
"+ c #071215",
"@ c #0A1416",
"# c #121010",
"$ c gray7",
"% c #141211",
"& c #161212",
"* c #1B1514",
"= c #1B1B1B",
"- c #1D1D1D",
"; c #231B19",
": c #271F1B",
"> c #2B211E",
", c #2E201C",
"< c #272727",
"1 c #2C2220",
"2 c #2C2221",
"3 c #2D2321",
"4 c #373737",
"5 c gray23",
"6 c #3C3B3A",
"7 c #3F3F3F",
"8 c #584335",
"9 c #705A44",
"0 c #78614B",
"q c #983200",
"w c #98321D",
"e c #FE3131",
"r c #8A4030",
"t c #A7412C",
"y c #B6503B",
"u c #B0513F",
"i c #915D5A",
"p c #935C5E",
"a c #AC5342",
"s c #A57555",
"d c #8B6064",
"f c #8A656D",
"g c #C24F4F",
"h c #FE4F4F",
"j c #E95E54",
"k c #D46E59",
"l c #E0665A",
"z c #CB7F6E",
"x c #D27060",
"c c #FE6D6D",
"v c #E7777C",
"b c #BB9571",
"n c #C28F5C",
"m c #F28C77",
"M c #E0AD7A",
"N c #379EBF",
"B c #4B96B2",
"V c #6293A5",
"C c #10A7D5",
"Z c #00ADE0",
"A c #41B4D9",
"S c #00CBFE",
"D c #1DCBFE",
"F c #27C5F5",
"G c #1DE9FE",
"H c #B89490",
"J c #B296A0",
"K c #D88186",
"L c #FECB98",
"P c #FECD9A",
"I c #FEE9B6",
"U c gray88",
"Y c None",
/* pixels */
"YYYYYYYYYYYYYYYYYYYYYYYYYYYYYYYYYYYYYYYYYYYYYYYYYYYYYYYYYYYYYYYY",
"YYYYYYYYYYYYYYYYYYYYYYYYYYYYYYYYYYYYYYYYYYYYYYYYYYYYYYYYYYYYYYYY",
"YYYYYYYYYYYYYYYYYYYYYYYYYYYYYYYYYYYYYYYYYYYYYYYYYYYYYYYYYYYYYYYY",
"YYYYYYYYYY              *YYYY                    YYYYYYYYYYYYYYY",
"YYYYYYYYYY              *YYYY                    YYYYYYYYYYYYYYY",
"YYYYYYYYYY              *YYYYX                   YYYYYYYYYYYYYYY",
"YYYYYYYYYY              *YYYYX                   YYYYYYYYYYYYYYY",
"YYYYY     cccccUUUUHwwwwO    ryyyyyyyyykkkkkeeeee     YYYYYYYYYY",
"YYYYY     cccccUUUUHwwwwO   Xryyyyyyyyykkkkkeeeee     YYYYYYYYYY",
"YYYYY     cccccUUUUHwwwwO   Xryyyyyyyyykkkkkeeeee     YYYYYYYYYY",
"YYYYY     cccccUUUUHwwwwO    ryyyyyyyyykkkkkeeeee     YYYYYYYYYY",
"YYYYYYYYYY     ccccKUUUUiyyyyyyyyyggggghhhhhUUUUUyyyyy     YYYYY",
"YYYYYYYYYY     ccccKUUUUiyyyyyyyyyggggghhhhhUUUUUyyyyy     YYYYY",
"YYYYYYYYYY     ccccKUUUUiyyyyayyyyggggghhhhhUUUUUyyyyy     YYYYY",
"YYYYY##########ccccvJJJJfdddpayyyypppppljjjjkxxxxttttt#########&",
"YYYYY     wwwwwccccccccclhhhhayyyyyyyyykkkkkkkkkkwwwwweeeee    X",
"YYYYY     wwwwwccccccccclhhhhayyyyyyyyykkkkkkkkkkwwwwweeeee    X",
"YYYYY     wwwwwccccccccclhhhhayayyyyyyykkkkkkkkkkwwwwweeeee    X",
"YYYYY     wwwwwkkkkkkkkkzIIIIPPPLLMMMMMyyyyymmmmmkkkkkwwwww    X",
"YYYYY     wwwwwkkkkkkkkkzIIIIPPPLLMMMMMyyyyymmmmmkkkkkwwwww    X",
"YYYYY     wwwwwkkkkkkkkkzIIIIPLLLLMMMMMyyyyymmmmmkkkkkwwwww    X",
"YYYYY     wwwwwkkkkkkkkknIIIIPLLLLMMMMMyyyyymmmmmkkkkkwwwww    X",
"YYYYYYYYYY         oIIIIO    bLLLLLLLLL     nnnnn          YYYYY",
"YYYYYYYYYY         oIIIIo    bLLLLLLLLL     nnnnn          YYYYY",
"YYYYYYYYYY         oIIIIo    bLLLLLLLLL     nnnnn          YYYYY",
"YYYYYYYYYY         oIIIIO    bLLLLLLLLL     nnnnn          YYYYY",
"YYYYYYYYYYYYYYY    oLLLLO    bLLLLLLLLL     nnnnn     YYYYYYYYYY",
"YYYYYYYYYYYYYYY    oLLLLO    bLLLLLLLLL     nnnnn     YYYYYYYYYY",
"YYYYYYYYYYYYYYY    oLLLLO    bLLLLLLLLL     nnnnn     YYYYYYYYYY",
"YYYYYYYYYYYYYYY    oLLLLO    bLLLLLLLLL     nnnnn     YYYYYYYYYY",
"YYYYYYYYYY     <<<<=    >MMMMMMMMMMMMMMnnnnn     LLLLL     YYYYY",
"YYYYYYYYYY     <<<<=    >MMMMMMMMMMMMMMnnnnn     LLLLL     YYYYY",
"YYYYYYYYYY     <<<<=    >MMMMMMMMMMMMMMnnnnn     PLLLL     YYYYY",
"YYYYY>>>>>9999900008----#3>21133222222>,,>,,#%$#$32222     >>>>2",
"YYYYY     LLLLLMMMMs7777O                   <<<<<              X",
"YYYYY     LLLLLMMMMs7777O                   <<<<<              X",
"YYYYY     LLLLLMMMMs7777O                   <<<<<              X",
"     LLLLLMMMMM    o7777777777777744544<<<<<     LLLLLMMMMM    X",
"     LLLLLMMMMM    o7777777777777744444<<<<<     LLLLLMMMMM    X",
"     LLLLLMMMMM    o7777777777777744444<<<<<     LLLLLMMMMM    X",
"     LLLPLMMMMM    o7777777777777744444<<<<<     LLLLPMMMMM    X",
"YYYYY              oGGGGASSSS6555555555-----     MMMMMMMMMM    X",
"YYYYY              oGGGGASSSS6555555555-----     MMMMMMMMMM    X",
"YYYYY              oGGGGASSSS6555555555-----     MMMMMMMMMM    X",
"YYYYY              oGGGGASSSS6555555555-----     MMMMMMMMMM    X",
"YYYYYYYYYYYYYYY    oGGGGASSSSFDDDDZZZZZZZZZZZZZZZ          YYYYY",
"YYYYYYYYYYYYYYY    oGGGGASSSSFDDDDZZZZZZZZZZZZZZZ          YYYYY",
"YYYYYYYYYYYYYYY    oGGGGASSSSFDDDDZZZZZZZZZZZZZZZ          YYYYY",
"YYYYYYYYYYYYYYY    oGGGGASSSSFDDDDZZZZZZZZZZZZZZZ          YYYYY",
"YYYYYYYYYYYYYYY    oSSSSSSSSSCZZZZ     ZZZZZZZZZZ     YYYYYYYYYY",
"YYYYYYYYYYYYYYY    oSSSSSSSSSCZZZZ     ZZZZZZZZZZ     YYYYYYYYYY",
"YYYYYYYYYYYYYYY    oSSSSSSSSSCZZZZ     ZZZZZZZZZZ     YYYYYYYYYY",
"YYYYYYYYYYYYYYY    oSSSSVNNNN@++++     ++++++++++;;;;;YYYYYYYYYY",
"YYYYYYYYYYYYYYY    oSSSSBZZZZX                   YYYYYYYYYYYYYYY",
"YYYYYYYYYYYYYYY    oSSSSBZZZZX                   YYYYYYYYYYYYYYY",
"YYYYYYYYYYYYYYY    oSSSSBZZZZX                   YYYYYYYYYYYYYYY",
"YYYYYYYYYYYYYYY    oqqqqqqqqqX    YYYYYYYYYYYYYYYYYYYYYYYYYYYYYY",
"YYYYYYYYYYYYYYY    oqqqqqqqqq     YYYYYYYYYYYYYYYYYYYYYYYYYYYYYY",
"YYYYYYYYYYYYYYY    oqqqqqqqqq     YYYYYYYYYYYYYYYYYYYYYYYYYYYYYY",
"YYYYYYYYYYYYYYY    oqqqqqqqqqX    YYYYYYYYYYYYYYYYYYYYYYYYYYYYYY",
"YYYYYYYYYYYYYYYYYYYY         YYYYYYYYYYYYYYYYYYYYYYYYYYYYYYYYYYY",
"YYYYYYYYYYYYYYYYYYYY         YYYYYYYYYYYYYYYYYYYYYYYYYYYYYYYYYYY",
"YYYYYYYYYYYYYYYYYYYY         YYYYYYYYYYYYYYYYYYYYYYYYYYYYYYYYYYY",
"YYYYYYYYYYYYYYYYYYYY         YYYYYYYYYYYYYYYYYYYYYYYYYYYYYYYYYYY"
};
