/* XPM */
static char *result[] = {
/* columns rows colors chars-per-pixel */
"64 64 66 1 ",
"  c black",
". c #050403",
"X c #060504",
"o c gray3",
"O c gray4",
"+ c #191210",
"@ c #1A1311",
"# c #272727",
"$ c #282828",
"% c #373737",
"& c #3A3A3A",
"* c gray23",
"= c #3C3C3C",
"- c gray24",
"; c #3E3E3E",
": c #3F3F3F",
"> c #6E1B0A",
", c #681F0F",
"< c #7A1400",
"1 c #701807",
"2 c #731D09",
"3 c #6E210E",
"4 c #6E3428",
"5 c gray31",
"6 c gray33",
"7 c gray37",
"8 c #983200",
"9 c #983204",
"0 c #98321D",
"q c #FE3131",
"w c #A04634",
"e c #AD4C38",
"r c #B6503B",
"t c #A2574C",
"y c #A6594E",
"u c #BC504F",
"i c #AE5C5F",
"p c #B15B5F",
"a c #96795C",
"s c #C24F4F",
"d c #FE4F4F",
"f c #FA514F",
"g c #D46E59",
"h c #FE6D6D",
"j c #F37576",
"k c #A18161",
"l c #C28F5C",
"z c #C48D6B",
"x c #F28C77",
"c c #C7A57B",
"v c #E0AD7A",
"b c #1C89B5",
"n c #2683AC",
"m c #008FC2",
"M c #00ADE0",
"N c #00CBFE",
"B c gray53",
"V c gray63",
"C c #FECB98",
"Z c #FDD19E",
"A c #FEDAA8",
"S c #FEE9B6",
"D c #D7CBC9",
"F c #E0CBCB",
"G c gray88",
"H c #FEFEFE",
/* pixels */
"V666B6666              6666o                  66666666666666666V",
"V66666666              6666o                  66666666666666666V",
"V66666666              6666o                  66666666666B66666V",
"V66666666              6666O                  66666666666B66666V",
"V6666    hhhhhHHHH00000    4rrrrrrrryggggqqqqq    6666666666666V",
"V6666    hhhhhHHHH00000    4rrrrrrrryggggqqqqq    66666666666B6V",
"V6666    hhhhhHHHH00000    4rrrrrrrryggggqqqqq    6666666666666V",
"V66665555.....jjjjDDDDDwwwwerrrruuuuiffffFFFFFwwwwXXXXX66666666V",
"V6B666666     hhhhGGGGGrrrrrrrrrsssspddddGGGGGrrrr     66666666V",
"V66666666     hhhhGGGGGrrrrrrrrrsssspddddGGGGGrrrr     66666666V",
"V6666666&     hhhhGGGGGrrrrrrrrrsssspddddGGGGGrrrr     666B6666V",
"V6666    00000gggghhhhhddddtrrrrrrrryggggggggg0000qqqqq    6666V",
"V6666    00000gggghhhhhddddtrrrrrrrryggggggggg0000qqqqq    6666V",
"V6666    00000gggghhhhhddddtrrrrrrrryggggggggg0000qqqqq    6666V",
"V666B    00000gggghhhhhddddtrrrrrrrryggggggggg0000qqqqq    6666V",
"V6666    00000    gggggSSSSZCCCCvvvvzrrrrxxxxx    00000    666&V",
"V6666    00000    gggggSSSSZCCCCvvvvzrrrrxxxxx    00000    6666V",
"V6666    00000    gggggSSSSZCCCCvvvvzrrrrxxxxx    00000    6666V",
"V6666    00000    gggggSSSSZCCCCvvvvzrrrrxxxxx    00000    6666V",
"V6B666666         SSSSS    aCCCCCCCCk    lllll         66B66666V",
"V66666666         SSSSS    aCCCCCCCCk    lllll         66666666V",
"V6666666&         SSSSS    aCCCCCCCCk    lllll         66666666V",
"V66666666@@@@+    AAAAA    aCCCCCCCCk    lllll    @@@@@66666666V",
"V6666666666666    CCCCC    aCCCCCCCCk    lllll    6666B66666666V",
"V6666666666666    CCCCC    aCCCCCCCCk    lllll    7666666666666V",
"V6666666666666    CCCCC    aCCCCCCCCk    lllll    6B666666B66B6V",
"V66666666B6666         vvvvvvvvvvvvvcllll         6666666666666V",
"V66B66BB666666         vvvvvvvvvvvvvcllll         6666666666666V",
"V6666666666666         vvvvvvvvvvvvvcllll         66B66666666&6V",
"V6666666666666         vvvvvvvvvvvvvcllll         66B6666&66666V",
"V66666666     %%%%%%%%%                  %%%%%%%%%     66666666V",
"VVVVVVVVV     %%%%%%%%%                  %%%%%%%%%     VVVVVVVVV",
"VVVVVVVVV     %%%%%%%%%                  %%%%%%%%%     VVVVVVVVV",
"V66666666     %%%%%%%%%                  %%%%%%%%%     66666666V",
"V6666    CCCCC####%%%%%::::::::::::::::::%%%%%####CCCCC    6666V",
"V6666    CCCCC####%%%%%::::::::::::::::::%%%%%####CCCCC    6666V",
"V6666    CCCCC####%%%%%::::::::::::::::::%%%%%####CCCCC    6666V",
"V6666    CCCCC####%%%%%----;::::::::;----%%%%%####CCCCC    6666V",
"V6666    CCCCC####%%%%%%%%%=::::::::=%%%%%%%%%####CCCCC    6666V",
"V6666    CCCCC####%%%%%%%%%=::::::::=%%%%%%%%%####CCCCC    6666V",
"V6666    CCCCC####%%%%%%%%%=::::::::=%%%%%%%%%####CCCCC    6666V",
"     CCCCvvvvv    MMMMM******************MMMMM    vvvvvCCCC     ",
"     CCCCvvvvv    MMMMM******************MMMMM    vvvvvCCCC     ",
"     CCCCvvvvv    MMMMM******************MMMMM    vvvvvCCCC     ",
"     CCCCvvvvv    MMMMM******************MMMMM    vvvvvCCCC     ",
"     vvvvvvvvv    MMMMMMMMMMMMMMMMMMMMMMMMMMMM    vvvvvvvvv     ",
"     vvvvvvvvv    MMMMMMMMMMMMMMMMMMMMMMMMMMMM    vvvvvvvvv     ",
"     vvvvvvvvv    MMMMMMMMMMMMMMMMMMMMMMMMMMMM    vvvvvvvvv     ",
"     vvvvvvvvv    MMMMMMMMMMMMMMMMMMMMMMMMMMMM    vvvvvvvvv     ",
"V666&             NNNNNMMMMMMMMMMMMMMMMMMNNNNN             6666V",
"V6666             NNNNNMMMMMMMMMMMMMMMMMMNNNNN             6666V",
"V6666             NNNNNMMMMMMMMMMMMMMMMMMNNNNN             6666V",
"V6666             NNNNNMMMMMMMMMMMMMMMMMMNNNNN             &666V",
"V666666B666666    NNNNNMMMMnmmmmmmmmbMMMMNNNNN    6666666666666V",
"V6666666666666    NNNNNMMMMnmmmmmmmmbMMMMNNNNN    66&6666666666V",
"V6666666666666    NNNNNMMMMnmmmmmmmmbMMMMNNNNN    6666666666666V",
"V666B66666&666    999999999,111111113999999999    666666B666666V",
"V6666666666666    888888888><<<<<<<<2888888888    6666666666666V",
"V6666666666666    888888888><<<<<<<<2888888888    66666666666&6V",
"V6666666666666    888888888><<<<<<<<2888888888    6666666666666V",
"V66666666666666666                            66666666666666666V",
"V666666666&666&666                            66666&&6666666666V",
"V666666666$6666666                            66666666666666666V",
"V666B6666666666666                            66B66666666666B66V"
};
