/* XPM */
static char *Ml9yZXNpemU_[] = {
/* columns rows colors chars-per-pixel */
"64 64 57 1 ",
"  c black",
". c #050403",
"X c #070707",
"o c #191210",
"O c #272727",
"+ c #373737",
"@ c gray23",
"# c #3C3C3C",
"$ c gray24",
"% c #3E3E3E",
"& c #3F3F3F",
"* c #6E1B0A",
"= c #681F0F",
"- c #7A1400",
"; c #701807",
": c #731D09",
"> c #6E210E",
", c #6E3428",
"< c #983200",
"1 c #983204",
"2 c #98321D",
"3 c #FE3131",
"4 c #A04634",
"5 c #AD4C38",
"6 c #B6503B",
"7 c #A2574C",
"8 c #A6594E",
"9 c #BC504F",
"0 c #AE5C5F",
"q c #B15B5F",
"w c #96795C",
"e c #C24F4F",
"r c #FE4F4F",
"t c #FA514F",
"y c #D46E59",
"u c #FE6D6D",
"i c #F37576",
"p c #A18161",
"a c #C28F5C",
"s c #C48D6B",
"d c #F28C77",
"f c #C7A57B",
"g c #E0AD7A",
"h c #1C89B5",
"j c #2683AC",
"k c #008FC2",
"l c #00ADE0",
"z c #00CBFE",
"x c #FECB98",
"c c #FDD19E",
"v c #FEDAA8",
"b c #FEE9B6",
"n c #D7CBC9",
"m c #E0CBCB",
"M c gray88",
"N c #FEFEFE",
"B c None",
/* pixels */
"BBBBBBBBB              BBBBX                  BBBBBBBBBBBBBBBBBB",
"BBBBBBBBB              BBBBX                  BBBBBBBBBBBBBBBBBB",
"BBBBBBBBB              BBBBX                  BBBBBBBBBBBBBBBBBB",
"BBBBBBBBB              BBBBX                  BBBBBBBBBBBBBBBBBB",
"BBBBB    uuuuuNNNN22222    ,666666668yyyy33333    BBBBBBBBBBBBBB",
"BBBBB    uuuuuNNNN22222    ,666666668yyyy33333    BBBBBBBBBBBBBB",
"BBBBB    uuuuuNNNN22222    ,666666668yyyy33333    BBBBBBBBBBBBBB",
"BBBBBBBBB.....iiiinnnnn44445666699990ttttmmmmm4444.....BBBBBBBBB",
"BBBBBBBBB     uuuuMMMMM666666666eeeeqrrrrMMMMM6666     BBBBBBBBB",
"BBBBBBBBB     uuuuMMMMM666666666eeeeqrrrrMMMMM6666     BBBBBBBBB",
"BBBBBBBBB     uuuuMMMMM666666666eeeeqrrrrMMMMM6666     BBBBBBBBB",
"BBBBB    22222yyyyuuuuurrrr7666666668yyyyyyyyy222233333    BBBBB",
"BBBBB    22222yyyyuuuuurrrr7666666668yyyyyyyyy222233333    BBBBB",
"BBBBB    22222yyyyuuuuurrrr7666666668yyyyyyyyy222233333    BBBBB",
"BBBBB    22222yyyyuuuuurrrr7666666668yyyyyyyyy222233333    BBBBB",
"BBBBB    22222    yyyyybbbbcxxxxggggs6666ddddd    22222    BBBBB",
"BBBBB    22222    yyyyybbbbcxxxxggggs6666ddddd    22222    BBBBB",
"BBBBB    22222    yyyyybbbbcxxxxggggs6666ddddd    22222    BBBBB",
"BBBBB    22222    yyyyybbbbcxxxxggggs6666ddddd    22222    BBBBB",
"BBBBBBBBB         bbbbb    wxxxxxxxxp    aaaaa         BBBBBBBBB",
"BBBBBBBBB         bbbbb    wxxxxxxxxp    aaaaa         BBBBBBBBB",
"BBBBBBBBB         bbbbb    wxxxxxxxxp    aaaaa         BBBBBBBBB",
"BBBBBBBBBooooo    vvvvv    wxxxxxxxxp    aaaaa    oooooBBBBBBBBB",
"BBBBBBBBBBBBBB    xxxxx    wxxxxxxxxp    aaaaa    BBBBBBBBBBBBBB",
"BBBBBBBBBBBBBB    xxxxx    wxxxxxxxxp    aaaaa    BBBBBBBBBBBBBB",
"BBBBBBBBBBBBBB    xxxxx    wxxxxxxxxp    aaaaa    BBBBBBBBBBBBBB",
"BBBBBBBBBBBBBB         gggggggggggggfaaaa         BBBBBBBBBBBBBB",
"BBBBBBBBBBBBBB         gggggggggggggfaaaa         BBBBBBBBBBBBBB",
"BBBBBBBBBBBBBB         gggggggggggggfaaaa         BBBBBBBBBBBBBB",
"BBBBBBBBBBBBBB         gggggggggggggfaaaa         BBBBBBBBBBBBBB",
"BBBBBBBBB     +++++++++                  +++++++++     BBBBBBBBB",
"BBBBBBBBB     +++++++++                  +++++++++     BBBBBBBBB",
"BBBBBBBBB     +++++++++                  +++++++++     BBBBBBBBB",
"BBBBBBBBB     +++++++++                  +++++++++     BBBBBBBBB",
"BBBBB    xxxxxOOOO+++++&&&&&&&&&&&&&&&&&&+++++OOOOxxxxx    BBBBB",
"BBBBB    xxxxxOOOO+++++&&&&&&&&&&&&&&&&&&+++++OOOOxxxxx    BBBBB",
"BBBBB    xxxxxOOOO+++++&&&&&&&&&&&&&&&&&&+++++OOOOxxxxx    BBBBB",
"BBBBB    xxxxxOOOO+++++&&&@&&&&&&&&&&&&@&+++++OOOOxxxxx    BBBBB",
"BBBBB    xxxxxOOOO+++++++++@&&&&&&&&@+++++++++OOOOxxxxx    BBBBB",
"BBBBB    xxxxxOOOO+++++++++@&&&&&&&&@+++++++++OOOOxxxxx    BBBBB",
"BBBBB    xxxxxOOOO+++++++++&&&&&&&&&#+++++++++OOOOxxxxx    BBBBB",
"     xxxxggggg    lllll@@@@@@@@@@@@@@@@@@lllll    gggggxxxx     ",
"     xxxxggggg    lllll@@@@@@@@@@@@@@@@@@lllll    gggggxxxx     ",
"     xxxxggggg    lllll@@@@@@@@@@@@@@@@@@lllll    gggggxxxx     ",
"     xxxxggggg    lllll@@@@@@@@@@@@@@@@@@lllll    gggggxxxx     ",
"     ggggggggg    llllllllllllllllllllllllllll    ggggggggg     ",
"     ggggggggg    llllllllllllllllllllllllllll    ggggggggg     ",
"     ggggggggg    llllllllllllllllllllllllllll    ggggggggg     ",
"     ggggggggg    llllllllllllllllllllllllllll    ggggggggg     ",
"BBBBB             zzzzzllllllllllllllllllzzzzz             BBBBB",
"BBBBB             zzzzzllllllllllllllllllzzzzz             BBBBB",
"BBBBB             zzzzzllllllllllllllllllzzzzz             BBBBB",
"BBBBB             zzzzzllllllllllllllllllzzzzz             BBBBB",
"BBBBBBBBBBBBBB    zzzzzlllljkkkkkkkkhllllzzzzz    BBBBBBBBBBBBBB",
"BBBBBBBBBBBBBB    zzzzzlllljkkkkkkkkhllllzzzzz    BBBBBBBBBBBBBB",
"BBBBBBBBBBBBBB    zzzzzlllljkkkkkkkkhllllzzzzz    BBBBBBBBBBBBBB",
"BBBBBBBBBBBBBB    111111111=;;;;;;;;>111111111    BBBBBBBBBBBBBB",
"BBBBBBBBBBBBBB    <<<<<<<<<*--------:<<<<<<<<<    BBBBBBBBBBBBBB",
"BBBBBBBBBBBBBB    <<<<<<<<<*--------:<<<<<<<<<    BBBBBBBBBBBBBB",
"BBBBBBBBBBBBBB    <<<<<<<<<*--------:<<<<<<<<<    BBBBBBBBBBBBBB",
"BBBBBBBBBBBBBBBBBB                            BBBBBBBBBBBBBBBBBB",
"BBBBBBBBBBBBBBBBBB                            BBBBBBBBBBBBBBBBBB",
"BBBBBBBBBBBBBBBBBB                            BBBBBBBBBBBBBBBBBB",
"BBBBBBBBBBBBBBBBBB                            BBBBBBBBBBBBBBBBBB"
};
