/* XPM */
static char *result[] = {
/* columns rows colors chars-per-pixel */
"64 64 83 1 ",
"  c black",
". c #010101",
"X c #020202",
"o c #040404",
"O c #080707",
"+ c #090909",
"@ c #0E0D0D",
"# c #0F0E0E",
"$ c #1D1717",
"% c #1D1D1D",
"& c #1E1D1D",
"* c #2B160D",
"= c #291710",
"- c #261D1B",
"; c #2A201D",
": c #2B211E",
"> c #0E2D37",
", c #202020",
"< c #272727",
"1 c #2C2220",
"2 c #2D2321",
"3 c #322725",
"4 c #312F2E",
"5 c #3B2D29",
"6 c #373231",
"7 c #373737",
"8 c gray22",
"9 c #3B3A39",
"0 c #3A3A3A",
"q c gray23",
"w c #3C3C3C",
"e c #3F3F3F",
"r c #494848",
"t c #414F52",
"y c #425255",
"u c gray32",
"i c #535252",
"p c gray33",
"a c gray37",
"s c gray46",
"d c #983200",
"f c #8E3811",
"g c #8E3A12",
"h c #903810",
"j c #98321D",
"k c #ED393B",
"l c #FE3131",
"z c #B6503B",
"x c #9B5953",
"c c #925D5C",
"v c #836141",
"b c #976361",
"n c #966D76",
"m c #C24F4F",
"M c #DC5658",
"N c #FE4F4F",
"B c #D46E59",
"V c #CA7D72",
"C c #FE6D6D",
"Z c #C28F5C",
"A c #F28C77",
"S c #DEAE7D",
"D c #E0AD7A",
"F c #0C80A3",
"G c #1C85B1",
"H c #008FC2",
"J c #00ADC2",
"K c #00ADC6",
"L c #03A4D4",
"P c #03A5D5",
"I c #00ADE0",
"U c #22BAE1",
"Y c #00CBFE",
"T c gray53",
"R c #979C89",
"E c #9D9D9D",
"W c gray63",
"Q c #D4BBB7",
"! c #FECB98",
"~ c #D2C5A1",
"^ c #FEE6B3",
"/ c #FEE9B6",
"( c gray88",
/* pixels */
"WppppppppppppppppppTppppppppTpppppppppppppppppppppppppTppppppppW",
"Wppppppppppppppppppppppp0pppppppppppppppppppTppppp0pppTppppppppW",
"WpTpppppppppppppTppppppppppppppppppppppTpppppppppppppppppTpppppW",
"WppppppppppppppppppppTpppppppppppppTpppppppppppppppppppppppppppW",
"Wpppp               ppppr                   pppppppppppppppppppW",
"Wpppp               ppppr                   ppppT0pppppppppppppW",
"Wpppp               ppppr                   ppppTpppppTppppppppW",
"2::::OOOOOOOOOOOOOOO:::1-OOOOOOOOOOOOOOOOOOO:;::1TappppppppppppW",
"     CCCCC(((((jjjjj    XzzzzzzzzzbBBBBkllll     ppTppppppTppTpW",
"     CCCCC(((((jjjjj    XzzzzzzzzzbBBBBkllll     ppppppppppppppW",
"     CCCCC(((((jjjjj    XzzzzzzzzzbBBBBkllll     ppppppppppppppW",
"Wpppp     CCCCC(((((zzzzzzzzzxmmmmnNNNNQ((((zzzzz     ppppppp0pW",
"Wpppp     CCCCC(((((zzzzzzzzzxmmmmnNNNNQ((((zzzzz     ppp0pppppW",
"Wpppp     CCCCC(((((zzzzzzzzzxmmmmnNNNNQ((((zzzzz     pppppppppW",
"WWWWW     CCCCC(((((zzzzzzzzzxmmmmnNNNNQ((((zzzzz     WWWWWWWWWW",
"     jjjjjCCCCCCCCCCNNNNMzzzzzzzzzbBBBBBBBBBjjjjjlllll     WWWWW",
"     jjjjjCCCCCCCCCCNNNNMzzzzzzzzzbBBBBBBBBBjjjjjlllll     ppppW",
"     jjjjjCCCCCCCCCCNNNNMzzzzzzzzzbBBBBBBBBBjjjjjlllll     ppppW",
"     jjjjjCCCCCCCCCCNNNNMzzzzzzzzzbBBBBBBBBBjjjjjlllll     ppppW",
"     jjjjjBBBBBBBBBB////^!!!!~DDDDczzzzVAAAABBBBBjjjjj     ppppW",
"     jjjjjBBBBBBBBBB////^!!!!~DDDDczzzzVAAAABBBBBjjjjj     ppppW",
"     jjjjjBBBBBBBBBB////^!!!!~DDDDczzzzVAAAABBBBBjjjjj     ppppW",
"     jjjjjBBBBBBBBBB////^!!!!~DDDDczzzzVAAAABBBBBjjjjj     ppppW",
"Wpppp          /////    X!!!!!!!!!@    vZZZZ          pppppppppW",
"Wpppp          /////    X!!!!!!!!!@    vZZZZ          pppppppppW",
"Wpppp          /////    X!!!!!!!!!@    vZZZZ          pppppppppW",
"WpppTiiiii     !!!!!    X!!!!!!!!!@    vZZZZ     iiii9pppppppppW",
"Wppppppp0p     !!!!!    X!!!!!!!!!@    vZZZZ     ppppppppTpppppW",
"Wppppppppp     !!!!!    X!!!!!!!!!@    vZZZZ     pppppppTTpppppW",
"Wppppppppp     !!!!!    X!!!!!!!!!@    vZZZZ     ppppppppppppppW",
"Wpppp     !!!!!     DDDDDDDDDDDDDDRZZZZo    <<<<<     pppppppppW",
"Wpppp     !!!!!     DDDDDDDDDDDDDDRZZZZo    <<<<<     pppppppppW",
"Wppp0     !!!!!     DDDDDDDDDDDDDDRZZZZo    <<<<<     pppppppppW",
"Wpppp     !!!!!     DDDDDDDDDDDDDDRZZZZo    <<<<<     pppppppppW",
"               eeeee                   ,<<<<DDDDD!!!!!     ppppW",
"               eeeee                   ,<<<<DDDDD!!!!!     0pppW",
"               eeeee                   ,<<<<DDDDD!!!!!     ppppW",
"               eeeee                   ,<<<<DDDDD!!!!!     ppppW",
"     DDDDD/////     eeeeeeeeew77773<<<<67777     DDDDD!!!!!     ",
"     DDDDD/////     eeeeeeeeew77773<<<<67777     DDDDD!!!!!     ",
"     DDDDD/////     eeeeeeeeew77773<<<<67777     DDDDD!!!!!     ",
"     DDDDDSSSSS     %%%%&qqqqq0000tLLLLPPPPP     ..........uu8uE",
"     DDDDDDDDDD     %%%%%qqqqqqqqqyIIIIIIIII               ppppW",
"     DDDDDDDDDD     %%%%%qqqqqqqqqyIIIIIIIII               ppppW",
"     DDDDDDDDDD     %%%%%qqqqqqqqqyIIIIIIIII               ppppW",
"Wpppp          YYYYYYYYYUIIIIIIIIIIIIIIKJJJJ     ppppppppppppppW",
"WpppT          YYYYYYYYYUIIIIIIIIIIIIIIKJJJJ     pppppppppppTppW",
"WpppT          YYYYYYYYYUIIIIIIIIIIIIIIKJJJJ     ppppppppppppppW",
"Wpppp          YYYYYYYYYUIIIIIIIIIIIIIIKJJJJ     ppppppppppppppW",
"Wppppppppp     YYYYYIIIIF    +IIIIIIIIIGHHHH     ppppppppTpppppW",
"WppppppppT     YYYYYIIIIF    +IIIIIIIIIGHHHH     ppppppppTpppppW",
"Wppppppppp     YYYYYIIIIF    +IIIIIIIIIGHHHH     ppppppppppppppW",
"Wppppppppp     YYYYYIIIIF    +IIIIIIIIIGHHHH     ppppppppppppTpW",
"Wppppppppppsppp                   >IIIIGHHHH     ppppppppppppppW",
"Wpppppppppppppp                   >IIIIGHHHH     ppppppppppppppW",
"WpTpppppppppppp                   >IIIIGHHHH     ppTpppppppppppW",
"Wpppppppppppppp55555555555555$    =gggghffff     ppTpppppppppppW",
"Wppppppp0ppTTpppppppppppppppp4    *ddddddddd     pppppppppTppppW",
"WppppppppppTpppppTpppTpppp0pp4    *ddddddddd     ppppppppppppppW",
"Wpppppppppppppppppppppppppppp4    *ddddddddd     ppppppppppppppW",
"Wpppppppppppppppppppppppppppppppp0#         pppp0ppppppppppppppW",
"WpppTpp0pppppppppppppppppppppppppp#         pppppppppppppppppppW",
"Wppppppppppppppppppppppppppppppppp#         pppppppppppppppppp0W",
"WpppppppppTppppppppppppppppppppppp#         ppppppTppppp0ppppppW"
};
