/* XPM */
static char *M19yZXNpemU_[] = {
/* columns rows colors chars-per-pixel */
"64 64 69 1 ",
"  c black",
". c #010101",
"X c #020202",
"o c #040404",
"O c #080707",
"+ c #090909",
"@ c #0E0D0D",
"# c #1B1514",
"$ c #1C1616",
"% c #1D1D1D",
"& c #1E1D1D",
"* c #2B160D",
"= c #291710",
"- c #251C1A",
"; c #2A201D",
": c #0E2D37",
"> c #202020",
", c #272727",
"< c #322725",
"1 c #3B2C28",
"2 c #373231",
"3 c #373737",
"4 c #3A3A3A",
"5 c gray23",
"6 c #3C3C3C",
"7 c #3F3F3F",
"8 c #414F52",
"9 c #425255",
"0 c #983200",
"q c #8E3811",
"w c #8E3A12",
"e c #903810",
"r c #98321D",
"t c #ED393B",
"y c #FE3131",
"u c #B6503B",
"i c #9B5953",
"p c #925D5C",
"a c #836141",
"s c #976361",
"d c #966D76",
"f c #C24F4F",
"g c #DC5658",
"h c #FE4F4F",
"j c #D46E59",
"k c #CA7D72",
"l c #FE6D6D",
"z c #C28F5C",
"x c #F28C77",
"c c #DEAE7D",
"v c #E0AD7A",
"b c #0C80A3",
"n c #1C85B1",
"m c #008FC2",
"M c #00ADC2",
"N c #00ADC6",
"B c #03A4D4",
"V c #03A5D5",
"C c #00ADE0",
"Z c #22BAE1",
"A c #00CBFE",
"S c #979C89",
"D c #D4BBB7",
"F c #FECB98",
"G c #D2C5A1",
"H c #FEE6B3",
"J c #FEE9B6",
"K c gray88",
"L c None",
/* pixels */
"LLLLLLLLLLLLLLLLLLLLLLLLLLLLLLLLLLLLLLLLLLLLLLLLLLLLLLLLLLLLLLLL",
"LLLLLLLLLLLLLLLLLLLLLLLLLLLLLLLLLLLLLLLLLLLLLLLLLLLLLLLLLLLLLLLL",
"LLLLLLLLLLLLLLLLLLLLLLLLLLLLLLLLLLLLLLLLLLLLLLLLLLLLLLLLLLLLLLLL",
"LLLLLLLLLLLLLLLLLLLLLLLLLLLLLLLLLLLLLLLLLLLLLLLLLLLLLLLLLLLLLLLL",
"LLLLL               LLLLL                   LLLLLLLLLLLLLLLLLLLL",
"LLLLL               LLLLL                   LLLLLLLLLLLLLLLLLLLL",
"LLLLL               LLLLL                   LLLLLLLLLLLLLLLLLLLL",
";;;;;OOOOOOOOOOOOO++;;;;-OOOOOOOOOOOOOOOOOOO;;;;;LLLLLLLLLLLLLLL",
"     lllllKKKKKrrrrr     uuuuuuuuusjjjjtyyyy     LLLLLLLLLLLLLLL",
"     lllllKKKKKrrrrr    ouuuuuuuuusjjjjtyyyy     LLLLLLLLLLLLLLL",
"     lllllKKKKKrrrrr     uuuuuuuuusjjjjtyyyy     LLLLLLLLLLLLLLL",
"LLLLL     lllllKKKKKuuuuuuuuuiffffdhhhhDKKKKuuuuu     LLLLLLLLLL",
"LLLLL     lllllKKKKKuuuuuuuuuiffffdhhhhDKKKKuuuuu     LLLLLLLLLL",
"LLLLL     lllllKKKKKuuuuuuuuuiffffdhhhhDKKKKuuuuu     LLLLLLLLLL",
"LLLLL     lllllKKKKKuuuuuuuuuiffffdhhhhDKKKKuuuuu     LLLLLLLLLL",
"     rrrrrllllllllllhhhhguuuuuuuuusjjjjjjjjjrrrrryyyyy     LLLLL",
"     rrrrrllllllllllhhhhguuuuuuuuusjjjjjjjjjrrrrryyyyy     LLLLL",
"     rrrrrllllllllllhhhhguuuuuuuuusjjjjjjjjjrrrrryyyyy     LLLLL",
"     rrrrrllllllllllhhhhguuuuuuuuusjjjjjjjjjrrrrryyyyy     LLLLL",
"     rrrrrjjjjjjjjjjJJJJHFFFFGvvvvpuuuukxxxxjjjjjrrrrr     LLLLL",
"     rrrrrjjjjjjjjjjJJJJHFFFFGvvvvpuuuukxxxxjjjjjrrrrr     LLLLL",
"     rrrrrjjjjjjjjjjJJJJHFFFFGvvvvpuuuukxxxxjjjjjrrrrr     LLLLL",
"     rrrrrjjjjjjjjjjJJJJHFFFFGvvvvpuuuukxxxxjjjjjrrrrr     LLLLL",
"LLLLL          JJJJJ    oFFFFFFFFF@    azzzz          LLLLLLLLLL",
"LLLLL          JJJJJ     FFFFFFFFF@    azzzz          LLLLLLLLLL",
"LLLLL          JJJJJ     FFFFFFFFF@    azzzz          LLLLLLLLLL",
"LLLLLLLLLL     FFFFF    oFFFFFFFFF@    azzzz     LLLLLLLLLLLLLLL",
"LLLLLLLLLL     FFFFF     FFFFFFFFF@    azzzz     LLLLLLLLLLLLLLL",
"LLLLLLLLLL     FFFFF    oFFFFFFFFF@    azzzz     LLLLLLLLLLLLLLL",
"LLLLLLLLLL     FFFFF     FFFFFFFFF@    azzzz     LLLLLLLLLLLLLLL",
"LLLLL     FFFFF     vvvvvvvvvvvvvvSzzzzo    ,,,,,     LLLLLLLLLL",
"LLLLL     FFFFF     vvvvvvvvvvvvvvSzzzzo    ,,,,,     LLLLLLLLLL",
"LLLLL     FFFFF     vvvvvvvvvvvvvvSzzzzo    ,,,,,     LLLLLLLLLL",
"LLLLL     FFFFF     vvvvvvvvvvvvvvSzzzzo    ,,,,,     LLLLLLLLLL",
"               77777                   >,,,,vvvvvFFFFF     LLLLL",
"               77777                   >,,,,vvvvvFFFFF     LLLLL",
"               77777                   >,,,,vvvvvFFFFF     LLLLL",
"               77777                   >,,,,vvvvvFFFFF     LLLLL",
"     vvvvvJJJJJ     77777777763333<,,,,23333     vvvvvFFFFF     ",
"     vvvvvJJJJJ     77777777753333<,,,,23333     vvvvvFFFFF     ",
"     vvvvvJJJJJ     77777777753333<,,,,23333     vvvvvFFFFF     ",
"     vvvvvccccc     &&%&&5555545448BBBBBBBBB      X X X  XXLLLLL",
"     vvvvvvvvvv     %%%%&4645555469CCCCCCCCC               LLLLL",
"     vvvvvvvvvv     %%%%&6465555649CCCCCCCCC               LLLLL",
"     vvvvvvvvvv     %&&&&4645556469CCCCCCCCC               LLLLL",
"LLLLL          AAAAAAAAAZCCCCCCCCCCCCCCNMNMM     LLLLLLLLLLLLLLL",
"LLLLL          AAAAAAAAAZCCCCCCCCCCCCCCNMMMM     LLLLLLLLLLLLLLL",
"LLLLL          AAAAAAAAAZCCCCCCCCCCCCCCNMMMM     LLLLLLLLLLLLLLL",
"LLLLL          AAAAAAAAAZCCCCCCCCCCCCCCNMMMM     LLLLLLLLLLLLLLL",
"LLLLLLLLLL     AAAAACCCCb    +CCCCCCCCCnmmmm     LLLLLLLLLLLLLLL",
"LLLLLLLLLL     AAAAACCCCb    +CCCCCCCCCnmmmm     LLLLLLLLLLLLLLL",
"LLLLLLLLLL     AAAAACCCCb    +CCCCCCCCCnmmmm     LLLLLLLLLLLLLLL",
"LLLLLLLLLL     AAAAACCCCb    +CCCCCCCCCnmmmm     LLLLLLLLLLLLLLL",
"LLLLLLLLLLLLLLL                   :CCCCnmmmm     LLLLLLLLLLLLLLL",
"LLLLLLLLLLLLLLL                   :CCCCnmmmm     LLLLLLLLLLLLLLL",
"LLLLLLLLLLLLLLL                   :CCCCnmmmm     LLLLLLLLLLLLLLL",
"LLLLLLLLLLLLLLL11111111111111#    =wwwwewwwq     LLLLLLLLLLLLLLL",
"LLLLLLLLLLLLLLLLLLLLLLLLLLLLL#    *000000000     LLLLLLLLLLLLLLL",
"LLLLLLLLLLLLLLLLLLLLLLLLLLLLL#    *000000000     LLLLLLLLLLLLLLL",
"LLLLLLLLLLLLLLLLLLLLLLLLLLLLL#    *000000000     LLLLLLLLLLLLLLL",
"LLLLLLLLLLLLLLLLLLLLLLLLLLLLLLLLLL@         LLLLLLLLLLLLLLLLLLLL",
"LLLLLLLLLLLLLLLLLLLLLLLLLLLLLLLLLL@         LLLLLLLLLLLLLLLLLLLL",
"LLLLLLLLLLLLLLLLLLLLLLLLLLLLLLLLLL@         LLLLLLLLLLLLLLLLLLLL",
"LLLLLLLLLLLLLLLLLLLLLLLLLLLLLLLLLL@         LLLLLLLLLLLLLLLLLLLL"
};
