/* XPM */
static char *result[] = {
/* columns rows colors chars-per-pixel */
"64 64 90 1 ",
"  c black",
". c #010101",
"X c #020101",
"o c #020202",
"O c gray1",
"+ c #060505",
"@ c #060606",
"# c #080707",
"$ c #2A201D",
"% c #2B211E",
"& c #272727",
"* c #2C2220",
"= c #373737",
"- c #383433",
"; c gray22",
": c #3A3A3A",
"> c gray23",
", c gray24",
"< c #3F3F3F",
"1 c #741705",
"2 c #7A1400",
"3 c #7C2C05",
"4 c #662317",
"5 c #692013",
"6 c #792B13",
"7 c #753415",
"8 c #483937",
"9 c #662D21",
"0 c #693024",
"q c gray33",
"w c gray37",
"e c gray43",
"r c #872100",
"t c #983200",
"y c #8E3A12",
"u c #8E3C14",
"i c #98321D",
"p c #973420",
"a c #963E2E",
"s c #983C2A",
"d c #E43E3F",
"f c #FE3131",
"g c #B6503B",
"h c #985B54",
"j c #945C58",
"k c #AA5344",
"l c #A95A49",
"z c #B15759",
"x c #8E7255",
"c c #C24F4F",
"v c #D54F43",
"b c #FE4F4F",
"n c #DE6656",
"m c #D46E59",
"M c #F26F6C",
"N c #FE6D6D",
"B c #BA8959",
"V c #AE8A69",
"C c #BF9577",
"Z c #C28F5C",
"A c #F28C77",
"S c #C8A079",
"D c #D6A575",
"F c #DBA978",
"G c #DEAD7B",
"H c #DEAE7C",
"J c #E0AD7A",
"K c #0D84A7",
"L c #0A89AF",
"P c #1587B6",
"I c #008FC2",
"U c #009CCF",
"Y c #0AA0C5",
"T c #03A5D5",
"R c #00ADE0",
"E c #00CBFE",
"W c gray53",
"Q c gray63",
"! c gray67",
"~ c #ACB2B5",
"^ c #C2A987",
"/ c #C3AA87",
"( c #C8B68F",
") c #EEBF8F",
"_ c #FECB98",
"` c #FED8A5",
"' c #FEE9B6",
"] c #D2D3D4",
"[ c gray88",
"{ c #FEFEFE",
/* pixels */
"QQQQQQQQQ              QQQQe                  QQQQQQQQQQQQQQQQQQ",
"Qqqqqqqqq              qqqq;                  qqqqqqqqqqqqqqqqqQ",
"Qqqqqqqqq              qqqq;                  qqqqqqqqqqqqqqqqqQ",
"Qqqqqqqqq              qqqq;                  :qqq:qqq:qqqqqqqqQ",
"Qqqqq    NNNNN{{{{piiii    9ggggggggkmmmmfffff    qqqqqqqqqqqqqQ",
"Qqqqq    NNNNN{{{{piiii    9ggggggggkmmmmfffff    qqqqqqqqqqqqqQ",
"Qqqqq    NNNNN{{{{piiii    9ggggggggkmmmmfffff    qWqqqqqq!qqqqQ",
"Qqqqq####$$$$$~~~~assss####0gggghhhhjnnnnddddd####%*%%%qqqqqqqqQ",
"QqqqqqqqW     NNNN][[[[gggggggggcccczbbbb[[[[[gggg     qqqqqqqqQ",
"Qqqqqqqqq     NNNN][[[[gggggggggcccczbbbb[[[[[gggg     qqqqqqqqQ",
"Qqqqqqqqq     NNNN][[[[gggggggggcccczbbbb[[[[[gggg     qqqqqqqqQ",
"QqqqW    iiiiimmmmMNNNNbbbbvggggggggkmmmmmmmmmiiiifffff    8qqqQ",
"Qqqqq    iiiiimmmmMNNNNbbbbvggggggggkmmmmmmmmmiiiifffff    8qqqQ",
"Qqqqq    iiiiimmmmMNNNNbbbbvggggggggkmmmmmmmmmiiiifffff    8qqqQ",
"Qqqqq    iiiiimmmmMNNNNbbbbvggggggggkmmmmmmmmmiiiifffff    8qqqQ",
"Qqqqq    iiiii    lmmmm''''`____JJJJCggggAAAAA    iiiii    8qqqQ",
"Qqqqq    iiiii    lmmmm''''`____JJJJCggggAAAAA    iiiii    8qqqQ",
"Qqqq:    iiiii    lmmmm''''`____JJJJCggggAAAAA    iiiii    8qqqQ",
"Qqqqq    iiiii    lmmmm''''`____JJJJCggggAAAAA    iiiii    8qqqQ",
"Qqqqqqqqq         (''''    x________V    ZZZZZ         qqqqqqqqQ",
"Qqqqqqqqq         (''''    x________V    ZZZZZ         qqqq:qqqQ",
"QqqqqqqWq         (''''    x________V    ZZZZZ         qqqqqqqqQ",
"Qqqqqqqqq         (''''    x________V    ZZZZZ         qqqqqqqqQ",
"Qqqqqqqqqqqqqq    S____    x________V    ZZZZZ    qqqqqqqqqqqqqQ",
"QqqqWqqqqq:qqq    S____    x________V    ZZZZZ    qqqqqqWqqqqqqQ",
"Qqqqqqqqqqqqqq    S____    x________V    ZZZZZ    qqqqqqqqqqqqqQ",
"Qqqqqqqqqqqqqq         DDDDFGGGGGGGG^BBBB         qqqqqqqqqqq:qQ",
"Qqqqqqqqqqqqqq         JJJJJJJJJJJJJ/ZZZZ         qqqqqqqqqqqqqQ",
"Qqqqqqqqqqqqqq         JJJJJJJJJJJJJ/ZZZZ         qqqqqqqqqqqqqQ",
"Qqqqqqqqqq:qqq         JJJJJJJJJJJJJ/ZZZZ         q::qqqqqqqqqqQ",
"Qqqqqqqqq     =========                  =========     qqqqqqqqQ",
"QqqqWqqqq     =========                  =========     qqqqqWqqQ",
"QqqqWqqqq     =========                  =========     qqqqqqqqQ",
"Qqqqqqqqq     =========                  =========     qqqqqqqqQ",
"Qqqqq    _____&&&&-====<<<<<<<<<<<<<<<<<<=====&&&&_____    8qqqQ",
"Qqqqq    _____&&&&-====<<<<<<<<<<<<<<<<<<=====&&&&_____    8qqqQ",
"Qqqqq    _____&&&&-====<<<<<<<<<<<<<<<<<<=====&&&&_____    8qqqQ",
"Qqqqq    _____&&&&-====<<<<<<<<<<<<<<<<<<=====&&&&_____    8qWqQ",
"Qqqqq    _____&&&&-========><<<<<<<<,=========&&&&_____    8qqqQ",
"Qqqqq    _____&&&&-========><<<<<<<<,=========&&&&_____    8qqqQ",
"QqWqq    _____&&&&-========><<<<<<<<,=========&&&&_____    8qqqQ",
"@oooo))))HHHHH....KTTTT::::>>>>>>>>>>::::TTTTT....HHHHH))))+ooo@",
"     ____JJJJJ    LRRRR>>>>>>>>>>>>>>>>>>RRRRR    JJJJJ____O    ",
"     ____JJJJJ    LRRRR>>>>>>>>>>>>>>>>>>RRRRR    JJJJJ____O    ",
"     ____JJJJJ    LRRRR>>>>>>>>>>>>>>>>>>RRRRR    JJJJJ____O    ",
"     JJJJJJJJJ    LRRRRRRRRRRRRRRRRRRRRRRRRRRR    JJJJJJJJJO    ",
"     JJJJJJJJJ    LRRRRRRRRRRRRRRRRRRRRRRRRRRR    JJJJJJJJJO    ",
"     JJJJJJJJJ    LRRRRRRRRRRRRRRRRRRRRRRRRRRR    JJJJJJJJJO    ",
"     JJJJJJJJJ    LRRRRRRRRRRRRRRRRRRRRRRRRRRR    JJJJJJJJJO    ",
"Qqqqq             YEEEERRRRRRRRRRRRRRRRRREEEEE             8qqqQ",
"Qqqqq             YEEEERRRRRRRRRRRRRRRRRREEEEE             8qqqQ",
"QqWqq             YEEEERRRRRRRRRRRRRRRRRREEEEE             8qqqQ",
"Qqqqq             YEEEERRRRRRRRRRRRRRRRRREEEEE             8qqqQ",
"Qqqqqqqq:qqqqq    YEEEERRRRUIIIIIIIIPRRRREEEEE    qqqqqqqqqqqqqQ",
"Qqqqqqqqqqqqq:    YEEEERRRRUIIIIIIIIPRRRREEEEE    qqqqqqqqqqqqqQ",
"Qqqqqqqqqqqqqq    YEEEERRRRUIIIIIIIIPRRRREEEEE    qqqqWqqqqqqqqQ",
"Qqqqqqqqqqqqqq    7uuuuyyyy6555555554yyyyuuuuu    wqqqqqqqqqqqqQ",
"Qqqqqqqqqqqqqq    3ttttttttr222222221ttttttttt    qWqqqqqqWqqWqQ",
"QqqqqqqqqWqqqq    3ttttttttr222222221ttttttttt    qqqqqqqqqqqqqQ",
"QqqWqqWWqqqqqq    3ttttttttr222222221ttttttttt    qqqqqqqqqqqqqQ",
"QqqqqqqqqqqqqqqqWqX                           qq:qqqWqqqqqqqq:qQ",
"QqqqqqqqqqqqqqqqqqX                           qqqqqqWqqqq:qqqqqQ",
"QqqqqqqqqqqqqqqqqqX                           qqqqqqqqqqqqqqqqqQ",
"QQQQQQQQQQQQQQQQQQX                           QQQQQQQQQQQQQQQQQQ"
};
